STARTFONT 2.1
FONT -Adobe-Times-Bold-I-Normal--25-180-100-100-P-128-ISO10646-1
SIZE 18 100 100
FONTBOUNDINGBOX 31 39 -5 -11
COMMENT $Xorg: $
COMMENT ISO10646-1 extension by Markus Kuhn <mkuhn@acm.org>, 2001-03-20
COMMENT 
COMMENT +
COMMENT  Copyright 1984-1989, 1994 Adobe Systems Incorporated.
COMMENT  Copyright 1988, 1994 Digital Equipment Corporation.
COMMENT
COMMENT  Adobe is a trademark of Adobe Systems Incorporated which may be
COMMENT  registered in certain jurisdictions.
COMMENT  Permission to use these trademarks is hereby granted only in
COMMENT  association with the images described in this file.
COMMENT
COMMENT  Permission to use, copy, modify, distribute and sell this software
COMMENT  and its documentation for any purpose and without fee is hereby
COMMENT  granted, provided that the above copyright notices appear in all
COMMENT  copies and that both those copyright notices and this permission
COMMENT  notice appear in supporting documentation, and that the names of
COMMENT  Adobe Systems and Digital Equipment Corporation not be used in
COMMENT  advertising or publicity pertaining to distribution of the software
COMMENT  without specific, written prior permission.  Adobe Systems and
COMMENT  Digital Equipment Corporation make no representations about the
COMMENT  suitability of this software for any purpose.  It is provided "as
COMMENT  is" without express or implied warranty.
COMMENT -
STARTPROPERTIES 26
FOUNDRY "Adobe"
FAMILY_NAME "Times"
WEIGHT_NAME "Bold"
SLANT "I"
SETWIDTH_NAME "Normal"
ADD_STYLE_NAME ""
PIXEL_SIZE 25
POINT_SIZE 180
RESOLUTION_X 100
RESOLUTION_Y 100
SPACING "P"
AVERAGE_WIDTH 128
CHARSET_REGISTRY "ISO10646"
CHARSET_ENCODING "1"
CAP_HEIGHT 17
X_HEIGHT 12
FONT_ASCENT 20
FONT_DESCENT 6
FACE_NAME "Times Bold Italic"
COPYRIGHT "Copyright (c) 1984, 1987 Adobe Systems Incorporated. All Rights Reserved. Copyright (c) 1988, 1991 Digital Equipment Corporation. All Rights Reserved."

STARTCHAR char0
ENCODING 0
SWIDTH 778 0
DWIDTH 19 0
BBX 21 17 -1 0
BITMAP
AAAAA8
000000
800008
000000
800008
000000
800008
000000
800008
000000
800008
000000
800008
000000
800008
000000
AAAAA8
ENDCHAR
STARTCHAR space
ENCODING 32
SWIDTH 250 0
DWIDTH 6 0
BBX 1 1 0 0
BITMAP
00
ENDCHAR
STARTCHAR exclam
ENCODING 33
SWIDTH 389 0
DWIDTH 10 0
BBX 8 17 1 0
BITMAP
06
0F
0F
0E
1E
1C
1C
1C
18
38
30
30
00
00
E0
E0
E0
ENDCHAR
STARTCHAR quotedbl
ENCODING 34
SWIDTH 555 0
DWIDTH 14 0
BBX 8 6 4 11
BITMAP
63
E7
E7
C6
C6
84
ENDCHAR
STARTCHAR numbersign
ENCODING 35
SWIDTH 500 0
DWIDTH 15 0
BBX 15 17 0 0
BITMAP
0318
0318
0318
0630
0630
3FFE
3FFE
0630
0C60
0C60
FFF8
FFF8
18C0
18C0
3180
3180
3180
ENDCHAR
STARTCHAR dollar
ENCODING 36
SWIDTH 500 0
DWIDTH 12 0
BBX 13 21 0 -3
BITMAP
0080
0080
07E8
0CB8
1890
1910
1D00
1F00
0F80
07C0
03C0
05E0
04E0
44E0
C8E0
C9C0
F380
7E00
1000
2000
2000
ENDCHAR
STARTCHAR percent
ENCODING 37
SWIDTH 833 0
DWIDTH 20 0
BBX 17 17 1 0
BITMAP
0E0C00
3FF800
791800
713000
F13000
E36000
E26000
C6C700
ECDF80
79BC80
01B880
037880
037180
067100
066300
0C7600
0C3C00
ENDCHAR
STARTCHAR ampersand
ENCODING 38
SWIDTH 778 0
DWIDTH 19 0
BBX 17 17 1 0
BITMAP
01F000
039800
071800
071800
073000
07E000
03C000
078000
1F8F00
3DC600
79C400
F1EC00
F0F800
F0F000
F87180
7FFF00
3F1E00
ENDCHAR
STARTCHAR quotesingle
ENCODING 39
SWIDTH 278 0
DWIDTH 7 0
BBX 3 6 3 11
BITMAP
60
E0
E0
C0
C0
80
ENDCHAR
STARTCHAR parenleft
ENCODING 40
SWIDTH 333 0
DWIDTH 8 0
BBX 9 22 0 -5
BITMAP
0180
0300
0600
0C00
1800
3800
3000
7000
7000
6000
E000
E000
E000
E000
E000
E000
E000
6000
6000
3000
3000
1800
ENDCHAR
STARTCHAR parenright
ENCODING 41
SWIDTH 333 0
DWIDTH 8 0
BBX 9 22 -1 -5
BITMAP
0C00
0600
0600
0300
0300
0380
0380
0380
0380
0380
0380
0380
0300
0700
0700
0600
0E00
0C00
1800
3000
6000
C000
ENDCHAR
STARTCHAR asterisk
ENCODING 42
SWIDTH 500 0
DWIDTH 10 0
BBX 8 9 2 9
BITMAP
18
18
CB
DB
3C
DB
CB
18
18
ENDCHAR
STARTCHAR plus
ENCODING 43
SWIDTH 570 0
DWIDTH 13 0
BBX 12 12 0 0
BITMAP
0600
0600
0600
0600
0600
FFF0
FFF0
0600
0600
0600
0600
0600
ENDCHAR
STARTCHAR comma
ENCODING 44
SWIDTH 250 0
DWIDTH 7 0
BBX 4 6 0 -3
BITMAP
70
70
70
30
60
C0
ENDCHAR
STARTCHAR hyphen
ENCODING 45
SWIDTH 333 0
DWIDTH 8 0
BBX 6 3 0 4
BITMAP
FC
FC
FC
ENDCHAR
STARTCHAR period
ENCODING 46
SWIDTH 250 0
DWIDTH 6 0
BBX 3 3 0 0
BITMAP
E0
E0
E0
ENDCHAR
STARTCHAR slash
ENCODING 47
SWIDTH 278 0
DWIDTH 8 0
BBX 8 17 0 0
BITMAP
03
06
06
06
0C
0C
0C
18
18
18
30
30
30
60
60
60
C0
ENDCHAR
STARTCHAR zero
ENCODING 48
SWIDTH 500 0
DWIDTH 12 0
BBX 12 17 0 0
BITMAP
03C0
0F60
1C60
3C70
3870
7870
7070
70F0
70E0
F0E0
E0E0
E1E0
E1C0
E3C0
6380
6F00
3E00
ENDCHAR
STARTCHAR one
ENCODING 49
SWIDTH 500 0
DWIDTH 12 0
BBX 10 17 0 0
BITMAP
01C0
0FC0
07C0
0380
0380
0780
0700
0700
0F00
0F00
0E00
0E00
1E00
1C00
1C00
3E00
FF00
ENDCHAR
STARTCHAR two
ENCODING 50
SWIDTH 500 0
DWIDTH 12 0
BBX 12 17 -1 0
BITMAP
03E0
0FF0
18F0
1070
0070
0070
0060
00E0
00C0
0180
0300
0600
0C00
1820
3FE0
7FC0
FF80
ENDCHAR
STARTCHAR three
ENCODING 51
SWIDTH 500 0
DWIDTH 12 0
BBX 12 17 0 0
BITMAP
07C0
1DE0
10E0
00F0
00E0
01E0
0780
1F00
1FC0
03E0
01E0
01E0
00E0
41C0
E1C0
F380
7E00
ENDCHAR
STARTCHAR four
ENCODING 52
SWIDTH 500 0
DWIDTH 12 0
BBX 12 17 0 0
BITMAP
0030
0070
00E0
01E0
03E0
06E0
0DC0
19C0
33C0
6380
7FE0
FFC0
FFC0
0700
0700
0F00
0F00
ENDCHAR
STARTCHAR five
ENCODING 53
SWIDTH 500 0
DWIDTH 12 0
BBX 13 17 0 0
BITMAP
03F8
07F0
07F0
0C00
1800
1F00
3FC0
3FC0
07E0
01E0
00E0
00E0
00E0
C1C0
E180
E380
3E00
ENDCHAR
STARTCHAR six
ENCODING 54
SWIDTH 500 0
DWIDTH 12 0
BBX 12 17 1 0
BITMAP
0070
01C0
0780
0F00
1E00
3C00
3F00
7D80
71C0
F0C0
E1C0
E1C0
E1C0
E3C0
6780
7F00
1E00
ENDCHAR
STARTCHAR seven
ENCODING 55
SWIDTH 500 0
DWIDTH 12 0
BBX 12 17 1 0
BITMAP
1FF0
3FF0
7FE0
6060
00C0
0180
0380
0300
0600
0E00
0C00
1800
3800
3000
6000
E000
C000
ENDCHAR
STARTCHAR eight
ENCODING 56
SWIDTH 500 0
DWIDTH 12 0
BBX 11 17 1 0
BITMAP
0F80
1CC0
3860
3860
3860
38C0
1F80
0F00
1F00
3780
6380
C3C0
C1C0
C1C0
E380
7780
3E00
ENDCHAR
STARTCHAR nine
ENCODING 57
SWIDTH 500 0
DWIDTH 12 0
BBX 12 17 0 0
BITMAP
07C0
1EE0
1C70
3870
3870
3870
3870
3870
18F0
0FE0
03E0
01C0
03C0
0780
0F00
3C00
E000
ENDCHAR
STARTCHAR colon
ENCODING 58
SWIDTH 333 0
DWIDTH 8 0
BBX 5 11 1 0
BITMAP
38
38
38
00
00
00
00
00
E0
E0
E0
ENDCHAR
STARTCHAR semicolon
ENCODING 59
SWIDTH 333 0
DWIDTH 8 0
BBX 6 14 0 -3
BITMAP
1C
1C
1C
00
00
00
00
00
70
70
70
30
60
C0
ENDCHAR
STARTCHAR less
ENCODING 60
SWIDTH 570 0
DWIDTH 12 0
BBX 10 10 1 1
BITMAP
01C0
0780
1E00
7800
E000
E000
7800
1E00
0780
01C0
ENDCHAR
STARTCHAR equal
ENCODING 61
SWIDTH 570 0
DWIDTH 13 0
BBX 10 6 1 3
BITMAP
FFC0
FFC0
0000
0000
FFC0
FFC0
ENDCHAR
STARTCHAR greater
ENCODING 62
SWIDTH 570 0
DWIDTH 12 0
BBX 10 10 1 1
BITMAP
E000
7800
1E00
0780
01C0
01C0
0780
1E00
7800
E000
ENDCHAR
STARTCHAR question
ENCODING 63
SWIDTH 500 0
DWIDTH 12 0
BBX 10 17 2 0
BITMAP
1F00
3380
71C0
71C0
01C0
01C0
0380
0700
0E00
1800
3000
2000
0000
0000
E000
E000
E000
ENDCHAR
STARTCHAR at
ENCODING 64
SWIDTH 832 0
DWIDTH 23 0
BBX 21 21 1 -4
BITMAP
007F00
01C1C0
070060
0E0030
1C1D90
387F98
70F388
71C708
E38708
E38708
E70E18
E70E10
E70E30
E79C60
E3FEC0
61E700
700000
380000
1E0000
0F8300
03FC00
ENDCHAR
STARTCHAR A
ENCODING 65
SWIDTH 667 0
DWIDTH 16 0
BBX 17 17 -2 0
BITMAP
000200
000600
000E00
001E00
003E00
006E00
00CE00
018E00
030E00
060E00
0FFE00
0FFE00
180E00
300E00
600E00
E00F00
F01F80
ENDCHAR
STARTCHAR B
ENCODING 66
SWIDTH 667 0
DWIDTH 16 0
BBX 15 17 0 0
BITMAP
0FF8
079C
078E
070E
0F0E
0F0E
0E1C
1FF8
1E60
1C38
3C1C
3C1C
381C
783C
7878
71F0
FFC0
ENDCHAR
STARTCHAR C
ENCODING 67
SWIDTH 667 0
DWIDTH 16 0
BBX 16 17 0 0
BITMAP
03FB
0F8F
1E06
3C02
3802
7800
7000
F000
F000
F000
F000
F000
F000
7800
7C0C
3FF8
0FC0
ENDCHAR
STARTCHAR D
ENCODING 68
SWIDTH 722 0
DWIDTH 19 0
BBX 18 17 0 0
BITMAP
0FF800
079F00
078780
070780
0F03C0
0F03C0
0E03C0
1E03C0
1E03C0
1C03C0
3C0780
3C0780
380F00
781E00
783C00
70F800
FFC000
ENDCHAR
STARTCHAR E
ENCODING 69
SWIDTH 667 0
DWIDTH 16 0
BBX 17 17 0 0
BITMAP
0FFF80
078380
078100
070100
0F0000
0F0800
0E1800
1E3000
1FF000
1C7000
3C2000
3C2000
380200
780600
780E00
703C00
FFFC00
ENDCHAR
STARTCHAR F
ENCODING 70
SWIDTH 667 0
DWIDTH 16 0
BBX 17 17 0 0
BITMAP
0FFF80
078380
078100
070100
0F0000
0F0800
0E1800
1E3000
1FF000
1C7000
3C2000
3C2000
380000
780000
780000
700000
F80000
ENDCHAR
STARTCHAR G
ENCODING 71
SWIDTH 722 0
DWIDTH 18 0
BBX 17 17 1 0
BITMAP
03FD80
0F8780
1E0300
3C0100
380100
780000
700000
F00000
F00000
F01F80
F00F00
F00E00
F00E00
781E00
7C1C00
3E3C00
0FF000
ENDCHAR
STARTCHAR H
ENCODING 72
SWIDTH 778 0
DWIDTH 19 0
BBX 21 17 -1 0
BITMAP
07E3F8
03C0E0
03C1E0
0381E0
0781C0
0783C0
0703C0
0F0380
0FFF80
0E0780
1E0700
1E0F00
1C0F00
3C0E00
3C0E00
381E00
FC3F00
ENDCHAR
STARTCHAR I
ENCODING 73
SWIDTH 389 0
DWIDTH 10 0
BBX 10 17 0 0
BITMAP
0FC0
0780
0780
0700
0F00
0F00
0E00
1E00
1E00
1C00
3C00
3C00
3800
7800
7800
7000
F800
ENDCHAR
STARTCHAR J
ENCODING 74
SWIDTH 500 0
DWIDTH 13 0
BBX 14 19 -1 -2
BITMAP
00FC
0078
0078
0070
00F0
00F0
00E0
01E0
01E0
01C0
03C0
03C0
0380
0780
E780
E700
EF00
7E00
3C00
ENDCHAR
STARTCHAR K
ENCODING 75
SWIDTH 667 0
DWIDTH 17 0
BBX 18 17 0 0
BITMAP
0FCFC0
078780
078E00
071C00
0F3800
0F6000
0EC000
1F8000
1FC000
1FC000
3DE000
3DE000
38F000
78F000
787800
707C00
F8FF00
ENDCHAR
STARTCHAR L
ENCODING 76
SWIDTH 611 0
DWIDTH 15 0
BBX 14 17 0 0
BITMAP
0FC0
0780
0780
0700
0F00
0F00
0E00
1E00
1E00
1C00
3C00
3C00
3804
780C
781C
7C78
FFF8
ENDCHAR
STARTCHAR M
ENCODING 77
SWIDTH 889 0
DWIDTH 22 0
BBX 22 17 0 0
BITMAP
0F807C
0780F8
0780F8
0781F0
0F83F0
0FC3F0
0BC6E0
0BCCE0
1BC9E0
13D9E0
11F1C0
11F3C0
31E3C0
31C3C0
21C380
7087C0
FC9FE0
ENDCHAR
STARTCHAR N
ENCODING 78
SWIDTH 722 0
DWIDTH 18 0
BBX 21 17 -1 0
BITMAP
0FC0F8
03C070
03C060
03E060
07E040
05F040
04F0C0
04F880
0C7880
0C7D80
083D00
183F00
181F00
101F00
300E00
700600
FC0600
ENDCHAR
STARTCHAR O
ENCODING 79
SWIDTH 722 0
DWIDTH 18 0
BBX 17 17 1 0
BITMAP
00FC00
03DE00
0F0700
1E0780
1C0780
3C0380
780780
780780
F00780
F00F00
F00F00
E01E00
F01E00
F03C00
707800
3DF000
1FC000
ENDCHAR
STARTCHAR P
ENCODING 80
SWIDTH 611 0
DWIDTH 15 0
BBX 16 17 0 0
BITMAP
0FF8
079E
078F
070F
0F0F
0F0F
0E1E
1E3C
1FF0
1C00
3C00
3C00
3800
7800
7800
7000
F800
ENDCHAR
STARTCHAR Q
ENCODING 81
SWIDTH 722 0
DWIDTH 18 0
BBX 17 22 0 -5
BITMAP
00FC00
03DE00
0F0700
1E0780
1C0780
3C0780
780780
780780
F00780
F00F00
F00F00
F01E00
F01E00
F03C00
707800
3DF000
1FC000
0C0000
1C0000
3FC300
7FFE00
E1F800
ENDCHAR
STARTCHAR R
ENCODING 82
SWIDTH 667 0
DWIDTH 17 0
BBX 16 17 0 0
BITMAP
0FF8
079E
078F
070F
0F0F
0F0F
0E1E
1E3C
1FF0
1CE0
3CF0
3CF0
3870
7878
7838
703C
F83E
ENDCHAR
STARTCHAR S
ENCODING 83
SWIDTH 556 0
DWIDTH 14 0
BBX 15 17 -1 0
BITMAP
03F6
071E
0E0C
0E04
0E04
0F00
0F80
07C0
03E0
01F0
00F8
10F8
3078
3078
78F0
7DE0
EFC0
ENDCHAR
STARTCHAR T
ENCODING 84
SWIDTH 611 0
DWIDTH 16 0
BBX 15 17 2 0
BITMAP
7FFE
E3CE
C3C6
8384
0780
0780
0700
0F00
0F00
0E00
1E00
1E00
1C00
3C00
3C00
3800
FF00
ENDCHAR
STARTCHAR U
ENCODING 85
SWIDTH 722 0
DWIDTH 18 0
BBX 19 17 1 0
BITMAP
3F07E0
1E0180
1E0180
1C0300
3C0300
3C0200
380600
780600
780600
700C00
F00C00
F00C00
F01800
F01800
703000
7CF000
1FC000
ENDCHAR
STARTCHAR V
ENCODING 86
SWIDTH 667 0
DWIDTH 17 0
BBX 17 17 1 0
BITMAP
FC0F80
780700
380600
380C00
380C00
3C1800
1C3000
1C3000
1C6000
1CE000
1CC000
1D8000
1F8000
0F0000
0E0000
0E0000
0C0000
ENDCHAR
STARTCHAR W
ENCODING 87
SWIDTH 889 0
DWIDTH 21 0
BBX 23 17 1 0
BITMAP
FC7C7E
78381C
383818
383830
387830
3C7C60
1CDC60
1CDCC0
1C9C80
1D9D80
1D1D00
1F1F00
1E1E00
0E0E00
0E0E00
0C0C00
0C0C00
ENDCHAR
STARTCHAR X
ENCODING 88
SWIDTH 667 0
DWIDTH 17 0
BBX 18 17 0 0
BITMAP
3FC7C0
0F0380
070700
070E00
079C00
03B800
03F000
01E000
01E000
01E000
03F000
077000
0E7800
1C7800
383C00
783C00
FCFF00
ENDCHAR
STARTCHAR Y
ENCODING 89
SWIDTH 611 0
DWIDTH 14 0
BBX 15 17 2 0
BITMAP
FC3E
781C
7818
3830
3C20
3C60
1CC0
1D80
1F00
0E00
1E00
1C00
1C00
1C00
3800
3C00
FF00
ENDCHAR
STARTCHAR Z
ENCODING 90
SWIDTH 611 0
DWIDTH 15 0
BBX 16 17 -1 0
BITMAP
0FFF
1E1F
181E
303C
0078
00F0
01E0
01E0
03C0
0780
0F00
1E00
3E06
3C0C
781C
F0F8
FFF8
ENDCHAR
STARTCHAR bracketleft
ENCODING 91
SWIDTH 333 0
DWIDTH 10 0
BBX 13 21 -1 -4
BITMAP
01F8
01C0
0380
0380
0380
0700
0700
0700
0E00
0E00
0E00
1C00
1C00
1C00
3800
3800
3800
7000
7000
7000
FE00
ENDCHAR
STARTCHAR backslash
ENCODING 92
SWIDTH 278 0
DWIDTH 9 0
BBX 7 17 1 0
BITMAP
C0
C0
C0
60
60
60
30
30
30
18
18
18
0C
0C
0C
06
06
ENDCHAR
STARTCHAR bracketright
ENCODING 93
SWIDTH 333 0
DWIDTH 11 0
BBX 13 21 -3 -4
BITMAP
03F8
0078
0070
0070
00E0
00E0
00E0
01C0
01C0
01C0
0380
0380
0380
0700
0700
0700
0E00
0E00
1E00
1C00
FC00
ENDCHAR
STARTCHAR asciicircum
ENCODING 94
SWIDTH 570 0
DWIDTH 14 0
BBX 10 9 2 8
BITMAP
0E00
0E00
1F00
1B00
3300
7380
6180
E1C0
C1C0
ENDCHAR
STARTCHAR underscore
ENCODING 95
SWIDTH 500 0
DWIDTH 12 0
BBX 12 2 0 -4
BITMAP
FFF0
FFF0
ENDCHAR
STARTCHAR grave
ENCODING 96
SWIDTH 333 0
DWIDTH 7 0
BBX 6 5 2 12
BITMAP
E0
F0
78
1C
04
ENDCHAR
STARTCHAR a
ENCODING 97
SWIDTH 500 0
DWIDTH 13 0
BBX 13 12 0 0
BITMAP
07B0
1EF0
3C70
38F0
70E0
70E0
E1C0
E1C0
E3C0
E7C8
FDF0
79E0
ENDCHAR
STARTCHAR b
ENCODING 98
SWIDTH 500 0
DWIDTH 12 0
BBX 12 18 0 0
BITMAP
1E00
0E00
0C00
1C00
1C00
1800
39E0
3BF0
3E70
7870
7070
7070
F0F0
E0E0
E1E0
E1C0
E780
7E00
ENDCHAR
STARTCHAR c
ENCODING 99
SWIDTH 444 0
DWIDTH 10 0
BBX 10 12 0 0
BITMAP
0F80
3DC0
79C0
7000
F000
E000
E000
E000
E000
E180
7700
3E00
ENDCHAR
STARTCHAR d
ENCODING 100
SWIDTH 500 0
DWIDTH 13 0
BBX 14 18 0 0
BITMAP
003C
001C
001C
0038
0038
0038
07B0
1EF0
3870
7070
70E0
E0E0
E1E0
E1C0
E3C0
F6E4
FEF8
7870
ENDCHAR
STARTCHAR e
ENCODING 101
SWIDTH 444 0
DWIDTH 10 0
BBX 10 12 0 0
BITMAP
0780
1FC0
39C0
7180
7700
FC00
F000
E000
E000
F180
7F00
3C00
ENDCHAR
STARTCHAR f
ENCODING 102
SWIDTH 333 0
DWIDTH 8 0
BBX 16 23 -4 -5
BITMAP
001E
0077
0067
00E0
00E0
00E0
07F8
07F8
01C0
01C0
01C0
0180
0380
0380
0380
0300
0700
0700
0700
0E00
EE00
EC00
7800
ENDCHAR
STARTCHAR g
ENCODING 103
SWIDTH 500 0
DWIDTH 11 0
BBX 13 17 -1 -5
BITMAP
07C0
1EF8
1C60
3870
3870
38E0
1CC0
1F80
0C00
3800
3E00
1F80
77C0
E1E0
E0E0
F1E0
3F80
ENDCHAR
STARTCHAR h
ENCODING 104
SWIDTH 556 0
DWIDTH 13 0
BBX 12 18 0 0
BITMAP
1E00
0E00
0E00
1C00
1C00
1C00
19C0
3BE0
3EE0
38E0
70E0
70C0
71C0
71C0
E180
E390
E3E0
E1C0
ENDCHAR
STARTCHAR i
ENCODING 105
SWIDTH 278 0
DWIDTH 7 0
BBX 7 18 0 0
BITMAP
0E
0E
0C
00
00
00
3C
1C
1C
38
38
38
70
70
70
F4
F8
70
ENDCHAR
STARTCHAR j
ENCODING 106
SWIDTH 278 0
DWIDTH 7 0
BBX 10 23 -3 -5
BITMAP
01C0
01C0
0180
0000
0000
0000
0780
0380
0380
0300
0700
0700
0700
0700
0700
0600
0E00
0E00
0E00
0C00
DC00
F800
7000
ENDCHAR
STARTCHAR k
ENCODING 107
SWIDTH 500 0
DWIDTH 13 0
BBX 13 18 0 0
BITMAP
0F00
0700
0700
0E00
0E00
0E00
1CF8
1C60
38C0
3B80
3F00
7F00
7380
7380
7190
E1F0
E1E0
E0C0
ENDCHAR
STARTCHAR l
ENCODING 108
SWIDTH 278 0
DWIDTH 7 0
BBX 7 18 1 0
BITMAP
1E
0E
0E
1C
1C
1C
38
38
38
70
70
70
70
70
E0
E4
F8
70
ENDCHAR
STARTCHAR m
ENCODING 109
SWIDTH 778 0
DWIDTH 19 0
BBX 19 12 0 0
BITMAP
79C700
3BEF80
3AEB80
3CF380
38E380
70C380
70C300
70C300
71C700
E1C720
E1C7C0
E1C380
ENDCHAR
STARTCHAR n
ENCODING 110
SWIDTH 556 0
DWIDTH 13 0
BBX 12 12 0 0
BITMAP
79C0
3BE0
3AE0
3CE0
38E0
71C0
71C0
71C0
71C0
E390
E3E0
E1C0
ENDCHAR
STARTCHAR o
ENCODING 111
SWIDTH 500 0
DWIDTH 12 0
BBX 11 12 0 0
BITMAP
0F80
3DC0
78E0
70E0
E0E0
E0E0
E0E0
E1E0
E1C0
E3C0
7780
3E00
ENDCHAR
STARTCHAR p
ENCODING 112
SWIDTH 500 0
DWIDTH 13 0
BBX 15 17 -2 -5
BITMAP
0F38
077C
07FE
071E
0E0E
0E0E
0E0C
1C0C
1C1C
1E18
1FF0
39C0
3800
3800
7000
7000
F800
ENDCHAR
STARTCHAR q
ENCODING 113
SWIDTH 500 0
DWIDTH 12 0
BBX 11 17 0 -5
BITMAP
0EE0
1FE0
38E0
71C0
71C0
E1C0
E180
E380
E380
E780
FB80
7300
0700
0700
0600
0E00
1F00
ENDCHAR
STARTCHAR r
ENCODING 114
SWIDTH 389 0
DWIDTH 10 0
BBX 10 12 0 0
BITMAP
7980
3BC0
37C0
3CC0
3800
7800
7000
7000
7000
E000
E000
E000
ENDCHAR
STARTCHAR s
ENCODING 115
SWIDTH 389 0
DWIDTH 10 0
BBX 9 12 0 0
BITMAP
1F80
3980
3180
3800
3C00
1E00
0F00
0F00
C700
C700
EE00
BC00
ENDCHAR
STARTCHAR t
ENCODING 116
SWIDTH 278 0
DWIDTH 8 0
BBX 7 15 1 0
BITMAP
0E
0E
1C
7E
FE
38
38
70
70
70
70
E0
E4
F8
70
ENDCHAR
STARTCHAR u
ENCODING 117
SWIDTH 556 0
DWIDTH 13 0
BBX 12 12 0 0
BITMAP
3C70
1C70
38E0
38E0
71E0
71C0
73C0
73C0
E780
ED90
F9E0
71C0
ENDCHAR
STARTCHAR v
ENCODING 118
SWIDTH 444 0
DWIDTH 11 0
BBX 10 12 0 0
BITMAP
F180
73C0
71C0
70C0
3880
3980
3900
3B00
3E00
3C00
3800
3000
ENDCHAR
STARTCHAR w
ENCODING 119
SWIDTH 667 0
DWIDTH 16 0
BBX 16 12 0 0
BITMAP
F18E
718F
7183
71C3
3BC6
3BC4
3EEC
3EE8
3CF8
38F0
38E0
30C0
ENDCHAR
STARTCHAR x
ENCODING 120
SWIDTH 500 0
DWIDTH 12 0
BBX 12 12 -1 0
BITMAP
1E70
0E70
0E60
06C0
0780
0700
0700
0F00
0B80
DB90
F3E0
E1C0
ENDCHAR
STARTCHAR y
ENCODING 121
SWIDTH 444 0
DWIDTH 11 0
BBX 12 17 -2 -5
BITMAP
3C70
1C70
1C70
1C60
0C60
0EC0
0EC0
0780
0780
0700
0300
0200
0600
0400
CC00
F800
7000
ENDCHAR
STARTCHAR z
ENCODING 122
SWIDTH 389 0
DWIDTH 9 0
BBX 10 14 -1 -2
BITMAP
3FC0
3FC0
6180
4300
0600
0C00
0C00
1800
3000
6000
F000
F980
0D80
0700
ENDCHAR
STARTCHAR braceleft
ENCODING 123
SWIDTH 348 0
DWIDTH 7 0
BBX 9 22 0 -4
BITMAP
0380
0600
0C00
1C00
1C00
1C00
1800
3800
7000
C000
6000
7000
7000
7000
7000
7000
E000
E000
E000
6000
3000
1C00
ENDCHAR
STARTCHAR bar
ENCODING 124
SWIDTH 220 0
DWIDTH 6 0
BBX 2 18 2 0
BITMAP
C0
C0
C0
C0
C0
C0
C0
C0
C0
C0
C0
C0
C0
C0
C0
C0
C0
C0
ENDCHAR
STARTCHAR braceright
ENCODING 125
SWIDTH 348 0
DWIDTH 7 0
BBX 10 22 -2 -4
BITMAP
0E00
0300
0380
0380
0380
0700
0700
0700
0380
00C0
0380
0700
0E00
0E00
0E00
0E00
0E00
0C00
1C00
1800
3000
E000
ENDCHAR
STARTCHAR asciitilde
ENCODING 126
SWIDTH 570 0
DWIDTH 14 0
BBX 12 4 1 6
BITMAP
3C30
7E70
E7E0
C3C0
ENDCHAR
STARTCHAR space
ENCODING 160
SWIDTH 250 0
DWIDTH 6 0
BBX 1 1 0 0
BITMAP
00
ENDCHAR
STARTCHAR exclamdown
ENCODING 161
SWIDTH 389 0
DWIDTH 10 0
BBX 9 17 -1 -6
BITMAP
0380
0380
0380
0000
0000
0600
0E00
0E00
0C00
1C00
1C00
3800
7800
7800
7000
F000
6000
ENDCHAR
STARTCHAR cent
ENCODING 162
SWIDTH 500 0
DWIDTH 13 0
BBX 10 16 1 -3
BITMAP
0080
0080
0780
1D80
3AC0
72C0
7400
E400
E800
E800
F080
7F00
3E00
2000
4000
4000
ENDCHAR
STARTCHAR sterling
ENCODING 163
SWIDTH 500 0
DWIDTH 13 0
BBX 13 17 0 0
BITMAP
01F0
03B8
0738
0710
0700
0F00
0E00
3FC0
7F80
0E00
0E00
0E00
6C00
FC10
9FF0
FFE0
73C0
ENDCHAR
STARTCHAR currency
ENCODING 164
SWIDTH 500 0
DWIDTH 12 0
BBX 11 12 0 2
BITMAP
CE60
FFE0
3F80
71C0
60C0
E0E0
60C0
60C0
3180
7FC0
FFE0
CE60
ENDCHAR
STARTCHAR yen
ENCODING 165
SWIDTH 500 0
DWIDTH 13 0
BBX 13 17 2 0
BITMAP
FE78
7870
3860
3CC0
3CC0
1D80
1F00
0F00
7FC0
0E00
1E00
FF80
1C00
3C00
3C00
3800
FE00
ENDCHAR
STARTCHAR brokenbar
ENCODING 166
SWIDTH 220 0
DWIDTH 6 0
BBX 2 17 2 0
BITMAP
C0
C0
C0
C0
C0
C0
C0
00
00
00
C0
C0
C0
C0
C0
C0
C0
ENDCHAR
STARTCHAR section
ENCODING 167
SWIDTH 500 0
DWIDTH 12 0
BBX 12 21 0 -4
BITMAP
07C0
0CE0
1C70
1C70
1E00
0F00
1F80
23C0
61C0
60E0
7060
3860
3C60
1E40
0F80
0780
0380
E180
E180
7300
3E00
ENDCHAR
STARTCHAR dieresis
ENCODING 168
SWIDTH 333 0
DWIDTH 9 0
BBX 7 2 3 14
BITMAP
C6
C6
ENDCHAR
STARTCHAR copyright
ENCODING 169
SWIDTH 747 0
DWIDTH 19 0
BBX 17 17 1 0
BITMAP
03E000
0FF800
3C1E00
300600
61F300
633300
C61180
C60180
C60180
C60180
C60180
633300
61E300
300600
3C1E00
0FF800
03E000
ENDCHAR
STARTCHAR ordfeminine
ENCODING 170
SWIDTH 266 0
DWIDTH 8 0
BBX 8 9 1 8
BITMAP
1D
3F
66
C6
CC
FD
76
00
FC
ENDCHAR
STARTCHAR guillemotleft
ENCODING 171
SWIDTH 500 0
DWIDTH 13 0
BBX 11 10 1 0
BITMAP
0660
0EE0
1DC0
3B80
7700
EE00
6600
7700
3300
3B80
ENDCHAR
STARTCHAR logicalnot
ENCODING 172
SWIDTH 606 0
DWIDTH 15 0
BBX 11 7 2 3
BITMAP
FFE0
FFE0
0060
0060
0060
0060
0060
ENDCHAR
STARTCHAR hyphen
ENCODING 173
SWIDTH 333 0
DWIDTH 8 0
BBX 6 3 0 4
BITMAP
FC
FC
FC
ENDCHAR
STARTCHAR registered
ENCODING 174
SWIDTH 747 0
DWIDTH 19 0
BBX 17 17 1 0
BITMAP
03E000
0FF800
3C1E00
300600
67E300
633300
C33180
C33180
C3E180
C36180
C33180
633300
67BB00
300600
3C1E00
0FF800
03E000
ENDCHAR
STARTCHAR macron
ENCODING 175
SWIDTH 333 0
DWIDTH 8 0
BBX 7 2 2 14
BITMAP
FE
FE
ENDCHAR
STARTCHAR degree
ENCODING 176
SWIDTH 400 0
DWIDTH 9 0
BBX 8 7 1 10
BITMAP
3C
66
C3
C3
C3
66
3C
ENDCHAR
STARTCHAR plusminus
ENCODING 177
SWIDTH 570 0
DWIDTH 13 0
BBX 12 13 1 0
BITMAP
0600
0600
0600
0600
FFF0
FFF0
0600
0600
0600
0600
0000
FFF0
FFF0
ENDCHAR
STARTCHAR twosuperior
ENCODING 178
SWIDTH 300 0
DWIDTH 7 0
BBX 8 11 -1 6
BITMAP
1E
27
43
03
06
04
08
10
22
7E
FC
ENDCHAR
STARTCHAR threesuperior
ENCODING 179
SWIDTH 300 0
DWIDTH 7 0
BBX 8 11 -1 6
BITMAP
1E
27
43
03
06
1C
06
06
06
8C
78
ENDCHAR
STARTCHAR acute
ENCODING 180
SWIDTH 333 0
DWIDTH 7 0
BBX 6 5 2 12
BITMAP
1C
3C
78
E0
80
ENDCHAR
STARTCHAR mu
ENCODING 181
SWIDTH 576 0
DWIDTH 13 0
BBX 14 17 -2 -5
BITMAP
0F1C
071C
0E38
0E38
1C78
1CF0
1CB0
1CB0
39B0
3B64
3E78
7C70
6000
4000
E000
F000
6000
ENDCHAR
STARTCHAR paragraph
ENCODING 182
SWIDTH 500 0
DWIDTH 12 0
BBX 13 22 0 -5
BITMAP
07F8
1FF0
3E60
7EE0
7EC0
7CC0
7D80
7D80
3D80
1980
1B00
1B00
3300
3600
3600
2600
6C00
6C00
6C00
C800
D800
D800
ENDCHAR
STARTCHAR periodcentered
ENCODING 183
SWIDTH 250 0
DWIDTH 7 0
BBX 3 3 2 5
BITMAP
E0
E0
E0
ENDCHAR
STARTCHAR cedilla
ENCODING 184
SWIDTH 333 0
DWIDTH 8 0
BBX 7 5 -1 -5
BITMAP
18
1C
8E
CE
7C
ENDCHAR
STARTCHAR onesuperior
ENCODING 185
SWIDTH 300 0
DWIDTH 7 0
BBX 6 11 0 6
BITMAP
04
1C
0C
0C
08
18
18
10
30
30
FC
ENDCHAR
STARTCHAR ordmasculine
ENCODING 186
SWIDTH 300 0
DWIDTH 8 0
BBX 7 9 1 8
BITMAP
1C
3A
72
66
4E
5C
38
00
FC
ENDCHAR
STARTCHAR guillemotright
ENCODING 187
SWIDTH 500 0
DWIDTH 13 0
BBX 11 10 0 0
BITMAP
3B80
1980
1DC0
0DC0
0EE0
1DC0
3B80
7700
EE00
CC00
ENDCHAR
STARTCHAR onequarter
ENCODING 188
SWIDTH 750 0
DWIDTH 18 0
BBX 16 17 0 0
BITMAP
0418
1C18
0C30
0C30
0860
1860
18C0
10C3
3187
318B
FF12
0326
0646
06CC
0CFF
0C0C
180C
ENDCHAR
STARTCHAR onehalf
ENCODING 189
SWIDTH 750 0
DWIDTH 18 0
BBX 17 17 0 0
BITMAP
041800
1C1800
0C3000
0C3000
086000
186000
188F00
109380
31A180
318180
FF0300
030200
060400
060800
0C1100
0C3F00
187E00
ENDCHAR
STARTCHAR threequarters
ENCODING 190
SWIDTH 750 0
DWIDTH 18 0
BBX 17 17 -1 0
BITMAP
1E0C00
270C00
431800
031800
063000
1C3000
066000
066180
06C380
8CC580
798900
019300
032300
036600
067F80
060600
0C0600
ENDCHAR
STARTCHAR questiondown
ENCODING 191
SWIDTH 500 0
DWIDTH 12 0
BBX 10 16 -1 -5
BITMAP
01C0
01C0
01C0
0000
0000
0100
0300
0600
1C00
3800
7000
E000
E000
E380
7380
3F00
ENDCHAR
STARTCHAR Agrave
ENCODING 192
SWIDTH 667 0
DWIDTH 16 0
BBX 17 22 -2 0
BITMAP
003800
003C00
001C00
000600
000000
000200
000600
000E00
001E00
003E00
006E00
00CE00
018E00
030E00
060E00
0FFE00
0FFE00
180E00
300E00
600E00
E00F00
F01F80
ENDCHAR
STARTCHAR Aacute
ENCODING 193
SWIDTH 667 0
DWIDTH 16 0
BBX 20 22 -2 0
BITMAP
000070
0000F0
0001C0
000300
000000
000200
000600
000E00
001E00
003E00
006E00
00CE00
018E00
030E00
060E00
0FFE00
0FFE00
180E00
300E00
600E00
E00F00
F01F80
ENDCHAR
STARTCHAR Acircumflex
ENCODING 194
SWIDTH 667 0
DWIDTH 16 0
BBX 19 22 -2 0
BITMAP
000180
0003C0
000EE0
001C60
000000
000200
000600
000E00
001E00
003E00
006E00
00CE00
018E00
030E00
060E00
0FFE00
0FFE00
180E00
300E00
600E00
E00F00
F01F80
ENDCHAR
STARTCHAR Atilde
ENCODING 195
SWIDTH 667 0
DWIDTH 16 0
BBX 19 21 -2 0
BITMAP
000E20
001FE0
0011C0
000000
000200
000600
000E00
001E00
003E00
006E00
00CE00
018E00
030E00
060E00
0FFE00
0FFE00
180E00
300E00
600E00
E00F00
F01F80
ENDCHAR
STARTCHAR Adieresis
ENCODING 196
SWIDTH 667 0
DWIDTH 16 0
BBX 20 21 -2 0
BITMAP
000C30
001C70
001860
000000
000200
000600
000E00
001E00
003E00
006E00
00CE00
018E00
030E00
060E00
0FFE00
0FFE00
180E00
300E00
600E00
E00F00
F01F80
ENDCHAR
STARTCHAR Aring
ENCODING 197
SWIDTH 667 0
DWIDTH 16 0
BBX 17 22 -2 0
BITMAP
000700
000D80
000880
000D80
000700
000200
000600
000E00
001E00
003E00
006E00
00CE00
018E00
030E00
060E00
0FFE00
0FFE00
180E00
300E00
600E00
E00F00
F01F80
ENDCHAR
STARTCHAR AE
ENCODING 198
SWIDTH 944 0
DWIDTH 22 0
BBX 25 17 -2 0
BITMAP
007FFF80
001F8380
00378100
00270100
006F0000
00CF0800
018E1800
011E3000
031FF000
061C7000
043C2000
0FFC2000
18380200
10780600
30780E00
70703C00
F8FFFC00
ENDCHAR
STARTCHAR Ccedilla
ENCODING 199
SWIDTH 667 0
DWIDTH 16 0
BBX 16 22 0 -5
BITMAP
03FB
0F8F
1E06
3C02
3802
7800
7000
F000
F000
F000
F000
F000
F000
7806
7C1C
3FF8
0FE0
0180
01C0
08E0
0CE0
07C0
ENDCHAR
STARTCHAR Egrave
ENCODING 200
SWIDTH 667 0
DWIDTH 16 0
BBX 17 22 0 0
BITMAP
00E000
00F000
007800
001C00
000000
0FFF80
078380
078100
070100
0F0000
0F0800
0E1800
1E3000
1FF000
1C7000
3C2000
3C2000
380200
780600
780E00
703C00
FFFC00
ENDCHAR
STARTCHAR Eacute
ENCODING 201
SWIDTH 667 0
DWIDTH 16 0
BBX 17 22 0 0
BITMAP
000E00
001E00
003C00
007000
000000
0FFF80
078380
078100
070100
0F0000
0F0800
0E1800
1E3000
1FF000
1C7000
3C2000
3C2000
380200
780600
780E00
703C00
FFFC00
ENDCHAR
STARTCHAR Ecircumflex
ENCODING 202
SWIDTH 667 0
DWIDTH 16 0
BBX 17 22 0 0
BITMAP
001800
003C00
00EE00
01C600
000000
0FFF80
078380
078100
070100
0F0000
0F0800
0E1800
1E3000
1FF000
1C7000
3C2000
3C2000
380200
780600
780E00
703C00
FFFC00
ENDCHAR
STARTCHAR Edieresis
ENCODING 203
SWIDTH 667 0
DWIDTH 16 0
BBX 17 21 0 0
BITMAP
006300
00E700
00C600
000000
0FFF80
078380
078100
070100
0F0000
0F0800
0E1800
1E3000
1FF000
1C7000
3C2000
3C2000
380200
780600
780E00
703C00
FFFC00
ENDCHAR
STARTCHAR Igrave
ENCODING 204
SWIDTH 389 0
DWIDTH 10 0
BBX 10 22 0 0
BITMAP
0E00
0F00
0780
01C0
0000
0FC0
0780
0780
0700
0F00
0F00
0E00
1E00
1E00
1C00
3C00
3C00
3800
7800
7800
7000
F800
ENDCHAR
STARTCHAR Iacute
ENCODING 205
SWIDTH 389 0
DWIDTH 10 0
BBX 12 22 0 0
BITMAP
0070
00F0
01E0
0380
0000
0FC0
0780
0780
0700
0F00
0F00
0E00
1E00
1E00
1C00
3C00
3C00
3800
7800
7800
7000
F800
ENDCHAR
STARTCHAR Icircumflex
ENCODING 206
SWIDTH 389 0
DWIDTH 10 0
BBX 11 22 0 0
BITMAP
0180
03C0
0EE0
1C60
0000
0FC0
0780
0780
0700
0F00
0F00
0E00
1E00
1E00
1C00
3C00
3C00
3800
7800
7800
7000
F800
ENDCHAR
STARTCHAR Idieresis
ENCODING 207
SWIDTH 389 0
DWIDTH 10 0
BBX 13 21 0 0
BITMAP
0318
0738
0630
0000
0FC0
0780
0780
0700
0F00
0F00
0E00
1E00
1E00
1C00
3C00
3C00
3800
7800
7800
7000
F800
ENDCHAR
STARTCHAR Eth
ENCODING 208
SWIDTH 722 0
DWIDTH 19 0
BBX 18 17 0 0
BITMAP
0FF800
07BF00
078780
070780
0F03C0
0F03C0
0E03C0
FFC3C0
FFC3C0
1C03C0
3C0780
3C0780
380F00
781E00
783C00
70F800
FFC000
ENDCHAR
STARTCHAR Ntilde
ENCODING 209
SWIDTH 722 0
DWIDTH 18 0
BBX 21 21 -1 0
BITMAP
003880
007F80
004700
000000
0FC0F8
03C070
03C060
03E060
07E040
05F040
04F0C0
04F880
0C7880
0C7D80
083D00
183F00
181F00
101F00
300E00
700600
FC0600
ENDCHAR
STARTCHAR Ograve
ENCODING 210
SWIDTH 722 0
DWIDTH 18 0
BBX 17 22 1 0
BITMAP
00E000
00F000
007800
001C00
000000
00FC00
03DE00
0F0700
1E0780
1C0780
3C0380
780780
780780
F00780
F00F00
F00F00
E01E00
F01E00
F03C00
707800
3DF000
1FC000
ENDCHAR
STARTCHAR Oacute
ENCODING 211
SWIDTH 722 0
DWIDTH 18 0
BBX 17 22 1 0
BITMAP
000380
000780
000F00
001C00
000000
00FC00
03DE00
0F0700
1E0780
1C0780
3C0380
780780
780780
F00780
F00F00
F00F00
E01E00
F01E00
F03C00
707800
3DF000
1FC000
ENDCHAR
STARTCHAR Ocircumflex
ENCODING 212
SWIDTH 722 0
DWIDTH 18 0
BBX 17 22 1 0
BITMAP
001800
003C00
00EE00
01C600
000000
00FC00
03DE00
0F0700
1E0780
1C0780
3C0380
780780
780780
F00780
F00F00
F00F00
E01E00
F01E00
F03C00
707800
3DF000
1FC000
ENDCHAR
STARTCHAR Otilde
ENCODING 213
SWIDTH 722 0
DWIDTH 18 0
BBX 17 21 1 0
BITMAP
007100
00FF00
008E00
000000
00FC00
03DE00
0F0700
1E0780
1C0780
3C0380
780780
780780
F00780
F00F00
F00F00
E01E00
F01E00
F03C00
707800
3DF000
1FC000
ENDCHAR
STARTCHAR Odieresis
ENCODING 214
SWIDTH 722 0
DWIDTH 18 0
BBX 17 21 1 0
BITMAP
006300
00E700
00C600
000000
00FC00
03DE00
0F0700
1E0780
1C0780
3C0380
780780
780780
F00780
F00F00
F00F00
E01E00
F01E00
F03C00
707800
3DF000
1FC000
ENDCHAR
STARTCHAR multiply
ENCODING 215
SWIDTH 570 0
DWIDTH 13 0
BBX 11 11 1 0
BITMAP
C060
E0E0
71C0
3B80
1F00
0E00
1F00
3B80
71C0
E0E0
C060
ENDCHAR
STARTCHAR Oslash
ENCODING 216
SWIDTH 722 0
DWIDTH 18 0
BBX 17 21 1 -3
BITMAP
000300
00FE00
03DE00
0F0F00
1E1F80
1C3780
3C6780
786780
78C780
F18780
F18F00
F30F00
F61E00
F61E00
FC3C00
787800
3DF000
7FC000
600000
C00000
800000
ENDCHAR
STARTCHAR Ugrave
ENCODING 217
SWIDTH 722 0
DWIDTH 18 0
BBX 19 22 1 0
BITMAP
01C000
01E000
00F000
003800
000000
3F07E0
1E0180
1E0180
1C0300
3C0300
3C0200
380600
780600
780600
700C00
F00C00
F00C00
F01800
F01800
703000
7CF000
1FC000
ENDCHAR
STARTCHAR Uacute
ENCODING 218
SWIDTH 722 0
DWIDTH 18 0
BBX 19 22 1 0
BITMAP
000E00
001E00
003C00
007000
000000
3F07E0
1E0180
1E0180
1C0300
3C0300
3C0200
380600
780600
780600
700C00
F00C00
F00C00
F01800
F01800
703000
7CF000
1FC000
ENDCHAR
STARTCHAR Ucircumflex
ENCODING 219
SWIDTH 722 0
DWIDTH 18 0
BBX 19 22 1 0
BITMAP
001800
003C00
00EE00
01C600
000000
3F07E0
1E0180
1E0180
1C0300
3C0300
3C0200
380600
780600
780600
700C00
F00C00
F00C00
F01800
F01800
703000
7CF000
1FC000
ENDCHAR
STARTCHAR Udieresis
ENCODING 220
SWIDTH 722 0
DWIDTH 18 0
BBX 19 21 1 0
BITMAP
00C300
01C700
018600
000000
3F07E0
1E0180
1E0180
1C0300
3C0300
3C0200
380600
780600
780600
700C00
F00C00
F00C00
F01800
F01800
703000
7CF000
1FC000
ENDCHAR
STARTCHAR Yacute
ENCODING 221
SWIDTH 611 0
DWIDTH 14 0
BBX 15 22 2 0
BITMAP
0038
0078
00F0
01C0
0000
FC3E
781C
7818
3830
3C20
3C60
1CC0
1D80
1F00
0E00
1E00
1C00
1C00
1C00
3800
3C00
FF00
ENDCHAR
STARTCHAR Thorn
ENCODING 222
SWIDTH 611 0
DWIDTH 15 0
BBX 14 17 0 0
BITMAP
0FC0
0780
0780
0700
0FE0
0E78
0E3C
1E3C
1E3C
1C3C
3C78
3CF0
3FC0
7800
7800
7000
F800
ENDCHAR
STARTCHAR germandbls
ENCODING 223
SWIDTH 500 0
DWIDTH 13 0
BBX 18 22 -5 -5
BITMAP
000F00
003980
0071C0
0061C0
00E1C0
00E3C0
00E380
01CE00
01C700
01C380
038380
038380
038380
038780
030700
071E00
077C00
070000
060000
E60000
EC0000
780000
ENDCHAR
STARTCHAR agrave
ENCODING 224
SWIDTH 500 0
DWIDTH 13 0
BBX 13 18 0 0
BITMAP
0700
0780
03C0
00E0
0020
0000
07B0
1EF0
3C70
38F0
70E0
70E0
E1E0
E1C0
E3C0
E7C8
FDF0
79E0
ENDCHAR
STARTCHAR aacute
ENCODING 225
SWIDTH 500 0
DWIDTH 13 0
BBX 13 18 0 0
BITMAP
0070
00F0
01E0
0380
0000
0000
07B8
1EF0
3C70
38E0
70E0
70E0
E1E0
E1C0
E3C0
E7C8
FDF0
79E0
ENDCHAR
STARTCHAR acircumflex
ENCODING 226
SWIDTH 500 0
DWIDTH 13 0
BBX 13 17 0 0
BITMAP
00C0
01E0
0770
0E30
0000
07B8
1EF8
3C70
3870
70E0
70E0
E1E0
E1C0
E3C0
E7C8
FDF0
79E0
ENDCHAR
STARTCHAR atilde
ENCODING 227
SWIDTH 500 0
DWIDTH 13 0
BBX 13 16 0 0
BITMAP
0710
0FF0
08E0
0000
07B8
1EF8
3C70
3870
70E0
70E0
E1E0
E1C0
E3C0
E7C8
FDF0
79E0
ENDCHAR
STARTCHAR adieresis
ENCODING 228
SWIDTH 500 0
DWIDTH 13 0
BBX 13 16 0 0
BITMAP
0630
0630
0000
0000
07B8
1EF8
3C70
3870
70E0
70E0
E1E0
E1C0
E3C0
E7C8
FDF0
79E0
ENDCHAR
STARTCHAR aring
ENCODING 229
SWIDTH 500 0
DWIDTH 13 0
BBX 13 18 0 0
BITMAP
01C0
0360
0220
0360
01C0
0000
07B0
1EF0
3C70
38F0
70E0
71E0
E1C0
E1C0
E3C0
E7C8
FDF0
79E0
ENDCHAR
STARTCHAR ae
ENCODING 230
SWIDTH 722 0
DWIDTH 17 0
BBX 17 12 0 0
BITMAP
078F00
1EFF80
3C7380
38E300
70EE00
71F800
E1E000
E1E000
E3C000
E7E300
FCFE00
787800
ENDCHAR
STARTCHAR ccedilla
ENCODING 231
SWIDTH 444 0
DWIDTH 11 0
BBX 10 17 0 -5
BITMAP
0F80
3DC0
79C0
7000
F000
E000
E000
E000
E000
E180
7700
3E00
0C00
0E00
4700
6700
3E00
ENDCHAR
STARTCHAR egrave
ENCODING 232
SWIDTH 444 0
DWIDTH 11 0
BBX 10 18 1 0
BITMAP
3800
3C00
1E00
0700
0100
0000
0780
1FC0
39C0
7180
7300
FE00
F000
E000
E000
F180
7F00
3C00
ENDCHAR
STARTCHAR eacute
ENCODING 233
SWIDTH 444 0
DWIDTH 11 0
BBX 11 18 1 0
BITMAP
00E0
01E0
03C0
0700
0400
0000
0780
1FC0
39C0
7180
7300
FE00
F000
E000
E000
F180
7F00
3C00
ENDCHAR
STARTCHAR ecircumflex
ENCODING 234
SWIDTH 444 0
DWIDTH 11 0
BBX 10 17 1 0
BITMAP
0300
0780
1DC0
38C0
0000
0780
1FC0
39C0
7180
7300
FE00
F800
E000
E000
F180
7F00
3C00
ENDCHAR
STARTCHAR edieresis
ENCODING 235
SWIDTH 444 0
DWIDTH 11 0
BBX 10 16 1 0
BITMAP
18C0
18C0
0000
0000
0780
1FC0
39C0
7180
7300
FE00
F000
E000
E000
F180
7F00
3C00
ENDCHAR
STARTCHAR igrave
ENCODING 236
SWIDTH 278 0
DWIDTH 7 0
BBX 6 18 0 0
BITMAP
E0
F0
78
1C
04
00
3C
1C
1C
38
38
38
70
70
70
F4
F8
70
ENDCHAR
STARTCHAR iacute
ENCODING 237
SWIDTH 278 0
DWIDTH 7 0
BBX 9 18 0 0
BITMAP
0380
0780
0F00
1C00
1000
0000
3C00
1C00
1C00
3800
3800
3800
7000
7000
7000
F400
F800
7000
ENDCHAR
STARTCHAR icircumflex
ENCODING 238
SWIDTH 278 0
DWIDTH 7 0
BBX 8 17 0 0
BITMAP
0C
1E
77
63
00
3C
1C
1C
38
38
38
70
70
70
F4
F8
70
ENDCHAR
STARTCHAR idieresis
ENCODING 239
SWIDTH 278 0
DWIDTH 7 0
BBX 8 16 0 0
BITMAP
33
33
00
00
3C
1C
1C
38
38
38
70
70
70
F4
F8
70
ENDCHAR
STARTCHAR eth
ENCODING 240
SWIDTH 500 0
DWIDTH 12 0
BBX 11 17 0 0
BITMAP
30C0
1DC0
0F00
3F00
3180
0FC0
3DC0
78E0
70E0
E0E0
E0E0
E0E0
E0E0
E1C0
E3C0
7780
3E00
ENDCHAR
STARTCHAR ntilde
ENCODING 241
SWIDTH 556 0
DWIDTH 13 0
BBX 12 16 0 0
BITMAP
0E20
1FE0
11C0
0000
79C0
3BE0
3AE0
3CE0
38E0
71C0
71C0
71C0
71C0
E390
E3E0
E1C0
ENDCHAR
STARTCHAR ograve
ENCODING 242
SWIDTH 500 0
DWIDTH 12 0
BBX 11 18 0 0
BITMAP
3800
3C00
1E00
0700
0100
0000
0F80
3DC0
78E0
70E0
E0E0
E0E0
E0E0
E0E0
E1C0
E3C0
7780
3E00
ENDCHAR
STARTCHAR oacute
ENCODING 243
SWIDTH 500 0
DWIDTH 12 0
BBX 11 18 0 0
BITMAP
01C0
03C0
0780
0E00
0800
0000
0F80
3DC0
78E0
70E0
E0E0
E0E0
E0E0
E0E0
E1C0
E3C0
7780
3E00
ENDCHAR
STARTCHAR ocircumflex
ENCODING 244
SWIDTH 500 0
DWIDTH 12 0
BBX 11 17 0 0
BITMAP
0180
03C0
0EE0
1C60
0000
0F80
3DC0
78E0
70E0
E0E0
E0E0
E0E0
E0E0
E1C0
E3C0
7780
3E00
ENDCHAR
STARTCHAR otilde
ENCODING 245
SWIDTH 500 0
DWIDTH 12 0
BBX 11 16 0 0
BITMAP
0E20
1FE0
11C0
0000
0F80
3DC0
78E0
70E0
E0E0
E0E0
E0E0
E0E0
E1C0
E3C0
7780
3E00
ENDCHAR
STARTCHAR odieresis
ENCODING 246
SWIDTH 500 0
DWIDTH 12 0
BBX 11 16 0 0
BITMAP
0C60
0C60
0000
0000
0F80
3DC0
78E0
70E0
E0E0
E0E0
E0E0
E0E0
E1C0
E3C0
7780
3E00
ENDCHAR
STARTCHAR divide
ENCODING 247
SWIDTH 570 0
DWIDTH 13 0
BBX 11 11 1 1
BITMAP
0E00
0E00
0E00
0000
FFE0
FFE0
0000
0000
0E00
0E00
0E00
ENDCHAR
STARTCHAR oslash
ENCODING 248
SWIDTH 500 0
DWIDTH 13 0
BBX 11 17 1 -3
BITMAP
0040
00C0
0F80
3DC0
7BE0
7360
E6E0
E6E0
ECE0
ECE0
D9C0
FBC0
7780
3E00
7000
6000
4000
ENDCHAR
STARTCHAR ugrave
ENCODING 249
SWIDTH 556 0
DWIDTH 14 0
BBX 12 18 1 0
BITMAP
1C00
1E00
0F00
0380
0080
0000
3C70
1C70
38E0
38E0
71E0
71C0
73C0
63C0
E780
EDB0
F9E0
71C0
ENDCHAR
STARTCHAR uacute
ENCODING 250
SWIDTH 556 0
DWIDTH 14 0
BBX 12 18 1 0
BITMAP
0070
00F0
01E0
0380
0200
0000
3C70
1C70
38E0
38E0
71E0
71C0
73C0
73C0
E780
EDB0
F9E0
71C0
ENDCHAR
STARTCHAR ucircumflex
ENCODING 251
SWIDTH 556 0
DWIDTH 14 0
BBX 12 17 1 0
BITMAP
00C0
01E0
0770
0E30
0000
3C70
1C70
38E0
38E0
70E0
71C0
73C0
73C0
E780
EDB0
F9E0
71C0
ENDCHAR
STARTCHAR udieresis
ENCODING 252
SWIDTH 556 0
DWIDTH 14 0
BBX 12 16 1 0
BITMAP
0C60
0C60
0000
0000
3C70
1C70
38E0
38E0
71E0
71C0
73C0
73C0
E7C0
EDB0
F9E0
71C0
ENDCHAR
STARTCHAR yacute
ENCODING 253
SWIDTH 444 0
DWIDTH 11 0
BBX 13 23 -2 -5
BITMAP
0038
0078
00F0
01C0
0100
0000
3C70
1C70
1C70
1C60
0C60
0EC0
0EC0
0780
0780
0700
0700
0600
0E00
0C00
DC00
F800
7000
ENDCHAR
STARTCHAR thorn
ENCODING 254
SWIDTH 500 0
DWIDTH 13 0
BBX 15 23 -3 -5
BITMAP
03C0
01C0
01C0
0380
0380
0380
0738
077C
079E
0F0E
0E0E
0E0E
0E0E
0E0C
1C1C
1E38
1F70
39C0
3800
3800
7000
7000
F800
ENDCHAR
STARTCHAR ydieresis
ENCODING 255
SWIDTH 444 0
DWIDTH 11 0
BBX 12 21 -1 -5
BITMAP
0C60
0C60
0000
0000
3C70
1C70
1C70
1C60
0C60
0EC0
0EC0
0780
0780
0700
0700
0600
0E00
0C00
DC00
F800
7000
ENDCHAR
STARTCHAR Amacron
ENCODING 256
SWIDTH 667 0
DWIDTH 16 0
BBX 17 20 -2 0
BITMAP
00FE00
00FE00
000000
000200
000600
000E00
001E00
003E00
006E00
00CE00
018E00
030E00
060E00
0FFE00
0FFE00
180E00
300E00
600E00
E00F00
F01F80
ENDCHAR
STARTCHAR amacron
ENCODING 257
SWIDTH 500 0
DWIDTH 13 0
BBX 13 15 0 0
BITMAP
0FE0
0FE0
0000
07B0
1EF0
3C70
38F0
70E0
70E0
E1C0
E1C0
E3C0
E7C8
FDF0
79E0
ENDCHAR
STARTCHAR Abreve
ENCODING 258
SWIDTH 667 0
DWIDTH 16 0
BBX 17 22 -2 0
BITMAP
00C300
00C300
007E00
003C00
000000
000200
000600
000E00
001E00
003E00
006E00
00CE00
018E00
030E00
060E00
0FFE00
0FFE00
180E00
300E00
600E00
E00F00
F01F80
ENDCHAR
STARTCHAR abreve
ENCODING 259
SWIDTH 500 0
DWIDTH 13 0
BBX 13 17 0 0
BITMAP
1860
1860
0FC0
0780
0000
07B0
1EF0
3C70
38F0
70E0
70E0
E1C0
E1C0
E3C0
E7C8
FDF0
79E0
ENDCHAR
STARTCHAR Aogonek
ENCODING 260
SWIDTH 667 0
DWIDTH 16 0
BBX 17 22 -2 -5
BITMAP
000200
000600
000E00
001E00
003E00
006E00
00CE00
018E00
030E00
060E00
0FFE00
0FFE00
180E00
300E00
600E00
E00F00
F01F80
00C000
038000
038000
03F800
01E000
ENDCHAR
STARTCHAR aogonek
ENCODING 261
SWIDTH 500 0
DWIDTH 13 0
BBX 13 17 0 -5
BITMAP
07B0
1EF0
3C70
38F0
70E0
70E0
E1C0
E1C0
E3C0
E7C8
FDF0
79E0
0600
1C00
1C00
1FC0
0F00
ENDCHAR
STARTCHAR Cacute
ENCODING 262
SWIDTH 667 0
DWIDTH 16 0
BBX 16 23 0 0
BITMAP
0038
0078
00F0
01C0
0100
0000
03FB
0F8F
1E06
3C02
3802
7800
7000
F000
F000
F000
F000
F000
F000
7800
7C0C
3FF8
0FC0
ENDCHAR
STARTCHAR cacute
ENCODING 263
SWIDTH 444 0
DWIDTH 10 0
BBX 10 18 0 0
BITMAP
0380
0780
0F00
1C00
1000
0000
0F80
3DC0
79C0
7000
F000
E000
E000
E000
E000
E180
7700
3E00
ENDCHAR
STARTCHAR Ccircumflex
ENCODING 264
SWIDTH 667 0
DWIDTH 16 0
BBX 16 22 0 0
BITMAP
00C0
01E0
0770
0E30
0000
03FB
0F8F
1E06
3C02
3802
7800
7000
F000
F000
F000
F000
F000
F000
7800
7C0C
3FF8
0FC0
ENDCHAR
STARTCHAR ccircumflex
ENCODING 265
SWIDTH 444 0
DWIDTH 10 0
BBX 10 17 0 0
BITMAP
0600
0F00
3B80
7180
0000
0F80
3DC0
79C0
7000
F000
E000
E000
E000
E000
E180
7700
3E00
ENDCHAR
STARTCHAR Cdotaccent
ENCODING 266
SWIDTH 667 0
DWIDTH 16 0
BBX 16 20 0 0
BITMAP
0180
0180
0000
03FB
0F8F
1E06
3C02
3802
7800
7000
F000
F000
F000
F000
F000
F000
7800
7C0C
3FF8
0FC0
ENDCHAR
STARTCHAR cdotaccent
ENCODING 267
SWIDTH 444 0
DWIDTH 10 0
BBX 10 15 0 0
BITMAP
0C00
0C00
0000
0F80
3DC0
79C0
7000
F000
E000
E000
E000
E000
E180
7700
3E00
ENDCHAR
STARTCHAR Ccaron
ENCODING 268
SWIDTH 667 0
DWIDTH 16 0
BBX 16 22 0 0
BITMAP
0638
0770
03C0
0180
0000
03FB
0F8F
1E06
3C02
3802
7800
7000
F000
F000
F000
F000
F000
F000
7800
7C0C
3FF8
0FC0
ENDCHAR
STARTCHAR ccaron
ENCODING 269
SWIDTH 444 0
DWIDTH 10 0
BBX 10 17 0 0
BITMAP
31C0
3B80
1E00
0C00
0000
0F80
3DC0
79C0
7000
F000
E000
E000
E000
E000
E180
7700
3E00
ENDCHAR
STARTCHAR Dcaron
ENCODING 270
SWIDTH 722 0
DWIDTH 19 0
BBX 18 22 0 0
BITMAP
018E00
01DC00
00F000
006000
000000
0FF800
079F00
078780
070780
0F03C0
0F03C0
0E03C0
1E03C0
1E03C0
1C03C0
3C0780
3C0780
380F00
781E00
783C00
70F800
FFC000
ENDCHAR
STARTCHAR dcaron
ENCODING 271
SWIDTH 808 0
DWIDTH 20 0
BBX 19 18 0 0
BITMAP
003C00
001CE0
001CE0
0038E0
003860
0038C0
07B180
1EF000
387000
707000
70E000
E0E000
E1E000
E1C000
E3C000
F6E400
FEF800
787000
ENDCHAR
STARTCHAR Dcroat
ENCODING 272
SWIDTH 722 0
DWIDTH 19 0
BBX 18 17 0 0
BITMAP
0FF800
07BF00
078780
070780
0F03C0
0F03C0
0E03C0
FFC3C0
FFC3C0
1C03C0
3C0780
3C0780
380F00
781E00
783C00
70F800
FFC000
ENDCHAR
STARTCHAR dcroat
ENCODING 273
SWIDTH 500 0
DWIDTH 13 0
BBX 15 18 0 0
BITMAP
003C
001C
001C
0038
07FE
07FE
07B0
1EF0
3870
7070
70E0
E0E0
E1E0
E1C0
E3C0
F6E4
FEF8
7870
ENDCHAR
STARTCHAR Emacron
ENCODING 274
SWIDTH 667 0
DWIDTH 16 0
BBX 17 20 0 0
BITMAP
03F800
03F800
000000
0FFF80
078380
078100
070100
0F0000
0F0800
0E1800
1E3000
1FF000
1C7000
3C2000
3C2000
380200
780600
780E00
703C00
FFFC00
ENDCHAR
STARTCHAR emacron
ENCODING 275
SWIDTH 444 0
DWIDTH 10 0
BBX 10 15 0 0
BITMAP
3F80
3F80
0000
0780
1FC0
39C0
7180
7700
FC00
F000
E000
E000
F180
7F00
3C00
ENDCHAR
STARTCHAR Ebreve
ENCODING 276
SWIDTH 667 0
DWIDTH 16 0
BBX 17 22 0 0
BITMAP
061800
061800
03F000
01E000
000000
0FFF80
078380
078100
070100
0F0000
0F0800
0E1800
1E3000
1FF000
1C7000
3C2000
3C2000
380200
780600
780E00
703C00
FFFC00
ENDCHAR
STARTCHAR ebreve
ENCODING 277
SWIDTH 444 0
DWIDTH 10 0
BBX 10 17 0 0
BITMAP
30C0
30C0
1F80
0F00
0000
0780
1FC0
39C0
7180
7700
FC00
F000
E000
E000
F180
7F00
3C00
ENDCHAR
STARTCHAR Edotaccent
ENCODING 278
SWIDTH 667 0
DWIDTH 16 0
BBX 17 20 0 0
BITMAP
00C000
00C000
000000
0FFF80
078380
078100
070100
0F0000
0F0800
0E1800
1E3000
1FF000
1C7000
3C2000
3C2000
380200
780600
780E00
703C00
FFFC00
ENDCHAR
STARTCHAR edotaccent
ENCODING 279
SWIDTH 444 0
DWIDTH 10 0
BBX 10 15 0 0
BITMAP
0600
0600
0000
0780
1FC0
39C0
7180
7700
FC00
F000
E000
E000
F180
7F00
3C00
ENDCHAR
STARTCHAR Eogonek
ENCODING 280
SWIDTH 667 0
DWIDTH 16 0
BBX 17 22 0 -5
BITMAP
0FFF80
078380
078100
070100
0F0000
0F0800
0E1800
1E3000
1FF000
1C7000
3C2000
3C2000
380200
780600
780E00
703C00
FFFC00
018000
070000
070000
07F000
03C000
ENDCHAR
STARTCHAR eogonek
ENCODING 281
SWIDTH 444 0
DWIDTH 10 0
BBX 10 17 0 -5
BITMAP
0780
1FC0
39C0
7180
7700
FC00
F000
E000
E000
F180
7F00
3C00
0C00
3800
3800
3F80
1E00
ENDCHAR
STARTCHAR Ecaron
ENCODING 282
SWIDTH 667 0
DWIDTH 16 0
BBX 17 22 0 0
BITMAP
031C00
03B800
01E000
00C000
000000
0FFF80
078380
078100
070100
0F0000
0F0800
0E1800
1E3000
1FF000
1C7000
3C2000
3C2000
380200
780600
780E00
703C00
FFFC00
ENDCHAR
STARTCHAR ecaron
ENCODING 283
SWIDTH 444 0
DWIDTH 10 0
BBX 10 17 0 0
BITMAP
31C0
3B80
1E00
0C00
0000
0780
1FC0
39C0
7180
7700
FC00
F000
E000
E000
F180
7F00
3C00
ENDCHAR
STARTCHAR Gcircumflex
ENCODING 284
SWIDTH 722 0
DWIDTH 18 0
BBX 17 22 1 0
BITMAP
006000
00F000
03B800
071800
000000
03FD80
0F8780
1E0300
3C0100
380100
780000
700000
F00000
F00000
F01F80
F00F00
F00E00
F00E00
781E00
7C1C00
3E3C00
0FF000
ENDCHAR
STARTCHAR gcircumflex
ENCODING 285
SWIDTH 500 0
DWIDTH 11 0
BBX 13 22 -1 -5
BITMAP
0180
03C0
0EE0
1C60
0000
07C0
1EF8
1C60
3870
3870
38E0
1CC0
1F80
0C00
3800
3E00
1F80
77C0
E1E0
E0E0
F1E0
3F80
ENDCHAR
STARTCHAR Gbreve
ENCODING 286
SWIDTH 722 0
DWIDTH 18 0
BBX 17 22 1 0
BITMAP
061800
061800
03F000
01E000
000000
03FD80
0F8780
1E0300
3C0100
380100
780000
700000
F00000
F00000
F01F80
F00F00
F00E00
F00E00
781E00
7C1C00
3E3C00
0FF000
ENDCHAR
STARTCHAR gbreve
ENCODING 287
SWIDTH 500 0
DWIDTH 11 0
BBX 13 22 -1 -5
BITMAP
1860
1860
0FC0
0780
0000
07C0
1EF8
1C60
3870
3870
38E0
1CC0
1F80
0C00
3800
3E00
1F80
77C0
E1E0
E0E0
F1E0
3F80
ENDCHAR
STARTCHAR Gdotaccent
ENCODING 288
SWIDTH 722 0
DWIDTH 18 0
BBX 17 20 1 0
BITMAP
00C000
00C000
000000
03FD80
0F8780
1E0300
3C0100
380100
780000
700000
F00000
F00000
F01F80
F00F00
F00E00
F00E00
781E00
7C1C00
3E3C00
0FF000
ENDCHAR
STARTCHAR gdotaccent
ENCODING 289
SWIDTH 500 0
DWIDTH 11 0
BBX 13 20 -1 -5
BITMAP
0300
0300
0000
07C0
1EF8
1C60
3870
3870
38E0
1CC0
1F80
0C00
3800
3E00
1F80
77C0
E1E0
E0E0
F1E0
3F80
ENDCHAR
STARTCHAR Gcommaaccent
ENCODING 290
SWIDTH 722 0
DWIDTH 18 0
BBX 17 24 1 -7
BITMAP
03FD80
0F8780
1E0300
3C0100
380100
780000
700000
F00000
F00000
F01F80
F00F00
F00E00
F00E00
781E00
7C1C00
3E3C00
0FF000
000000
01C000
01C000
01C000
00C000
018000
030000
ENDCHAR
STARTCHAR gcommaaccent
ENCODING 291
SWIDTH 500 0
DWIDTH 11 0
BBX 13 24 -1 -5
BITMAP
0180
0300
0600
0700
0700
0700
0000
07C0
1EF8
1C60
3870
3870
38E0
1CC0
1F80
0C00
3800
3E00
1F80
77C0
E1E0
E0E0
F1E0
3F80
ENDCHAR
STARTCHAR Hcircumflex
ENCODING 292
SWIDTH 778 0
DWIDTH 19 0
BBX 21 22 -1 0
BITMAP
000C00
001E00
007700
00E300
000000
07E3F8
03C0E0
03C1E0
0381E0
0781C0
0783C0
0703C0
0F0380
0FFF80
0E0780
1E0700
1E0F00
1C0F00
3C0E00
3C0E00
381E00
FC3F00
ENDCHAR
STARTCHAR hcircumflex
ENCODING 293
SWIDTH 556 0
DWIDTH 13 0
BBX 12 23 0 0
BITMAP
0600
0F00
3B80
7180
0000
1E00
0E00
0E00
1C00
1C00
1C00
19C0
3BE0
3EE0
38E0
70E0
70C0
71C0
71C0
E180
E390
E3E0
E1C0
ENDCHAR
STARTCHAR Hbar
ENCODING 294
SWIDTH 778 0
DWIDTH 19 0
BBX 21 17 -1 0
BITMAP
07E3F8
03C0E0
03C1E0
0381E0
FFFFF8
FFFFF8
0703C0
0F0380
0FFF80
0E0780
1E0700
1E0F00
1C0F00
3C0E00
3C0E00
381E00
FC3F00
ENDCHAR
STARTCHAR hbar
ENCODING 295
SWIDTH 556 0
DWIDTH 13 0
BBX 14 18 -2 0
BITMAP
0780
0380
0380
0700
FFC0
FFC0
0670
0EF8
0FB8
0E38
1C38
1C30
1C70
1C70
3860
38E4
38F8
3870
ENDCHAR
STARTCHAR Itilde
ENCODING 296
SWIDTH 389 0
DWIDTH 10 0
BBX 10 21 0 0
BITMAP
1C40
3FC0
2380
0000
0FC0
0780
0780
0700
0F00
0F00
0E00
1E00
1E00
1C00
3C00
3C00
3800
7800
7800
7000
F800
ENDCHAR
STARTCHAR itilde
ENCODING 297
SWIDTH 278 0
DWIDTH 7 0
BBX 8 15 0 0
BITMAP
71
FF
8E
00
3C
1C
1C
38
38
38
70
70
F4
F8
70
ENDCHAR
STARTCHAR Imacron
ENCODING 298
SWIDTH 389 0
DWIDTH 10 0
BBX 10 20 0 0
BITMAP
1FC0
1FC0
0000
0FC0
0780
0780
0700
0F00
0F00
0E00
1E00
1E00
1C00
3C00
3C00
3800
7800
7800
7000
F800
ENDCHAR
STARTCHAR imacron
ENCODING 299
SWIDTH 278 0
DWIDTH 7 0
BBX 7 14 0 0
BITMAP
FE
FE
00
3C
1C
1C
38
38
38
70
70
F4
F8
70
ENDCHAR
STARTCHAR Ibreve
ENCODING 300
SWIDTH 389 0
DWIDTH 10 0
BBX 10 22 0 0
BITMAP
30C0
30C0
1F80
0F00
0000
0FC0
0780
0780
0700
0F00
0F00
0E00
1E00
1E00
1C00
3C00
3C00
3800
7800
7800
7000
F800
ENDCHAR
STARTCHAR ibreve
ENCODING 301
SWIDTH 278 0
DWIDTH 7 0
BBX 8 16 0 0
BITMAP
C3
C3
7E
3C
00
3C
1C
1C
38
38
38
70
70
F4
F8
70
ENDCHAR
STARTCHAR Iogonek
ENCODING 302
SWIDTH 389 0
DWIDTH 10 0
BBX 10 22 0 -5
BITMAP
0FC0
0780
0780
0700
0F00
0F00
0E00
1E00
1E00
1C00
3C00
3C00
3800
7800
7800
7000
F800
1800
7000
7000
7F00
3C00
ENDCHAR
STARTCHAR iogonek
ENCODING 303
SWIDTH 278 0
DWIDTH 7 0
BBX 7 23 0 -5
BITMAP
0E
0E
0C
00
00
00
3C
1C
1C
38
38
38
70
70
70
F4
F8
70
30
E0
E0
FE
78
ENDCHAR
STARTCHAR Idotaccent
ENCODING 304
SWIDTH 389 0
DWIDTH 10 0
BBX 10 20 0 0
BITMAP
0600
0600
0000
0FC0
0780
0780
0700
0F00
0F00
0E00
1E00
1E00
1C00
3C00
3C00
3800
7800
7800
7000
F800
ENDCHAR
STARTCHAR dotlessi
ENCODING 305
SWIDTH 278 0
DWIDTH 7 0
BBX 6 11 0 0
BITMAP
3C
1C
1C
38
38
38
70
70
F4
F8
70
ENDCHAR
STARTCHAR IJ
ENCODING 306
SWIDTH 870 0
DWIDTH 23 0
BBX 23 19 0 -2
BITMAP
0FC07E
07803C
07803C
070038
0F0078
0F0078
0E0070
1E00F0
1E00F0
1C00E0
3C01E0
3C01E0
3801C0
7803C0
7873C0
707380
F87780
003F00
001E00
ENDCHAR
STARTCHAR ij
ENCODING 307
SWIDTH 542 0
DWIDTH 14 0
BBX 14 23 0 -5
BITMAP
0E1C
0E1C
0C18
0000
0000
0000
3C78
1C38
1C38
3830
3870
3870
7070
7070
7070
F460
F8E0
70E0
00E0
00C0
0DC0
0F80
0700
ENDCHAR
STARTCHAR Jcircumflex
ENCODING 308
SWIDTH 500 0
DWIDTH 13 0
BBX 14 24 -1 -2
BITMAP
0060
00F0
03B8
0718
0000
00FC
0078
0078
0070
00F0
00F0
00E0
01E0
01E0
01C0
03C0
03C0
0380
0780
E780
E700
EF00
7E00
3C00
ENDCHAR
STARTCHAR jcircumflex
ENCODING 309
SWIDTH 278 0
DWIDTH 7 0
BBX 10 22 -3 -5
BITMAP
0300
0780
1DC0
38C0
0000
0780
0380
0380
0300
0700
0700
0700
0700
0700
0600
0E00
0E00
0E00
0C00
DC00
F800
7000
ENDCHAR
STARTCHAR Kcommaaccent
ENCODING 310
SWIDTH 667 0
DWIDTH 17 0
BBX 18 24 0 -7
BITMAP
0FCFC0
078780
078E00
071C00
0F3800
0F6000
0EC000
1F8000
1FC000
1FC000
3DE000
3DE000
38F000
78F000
787800
707C00
F8FF00
000000
01C000
01C000
01C000
00C000
018000
030000
ENDCHAR
STARTCHAR kcommaaccent
ENCODING 311
SWIDTH 500 0
DWIDTH 13 0
BBX 13 25 0 -7
BITMAP
0F00
0700
0700
0E00
0E00
0E00
1CF8
1C60
38C0
3B80
3F00
7F00
7380
7380
7190
E1F0
E1E0
E0C0
0000
0700
0700
0700
0300
0600
0C00
ENDCHAR
STARTCHAR kgreenlandic
ENCODING 312
SWIDTH 500 0
DWIDTH 13 0
BBX 13 12 0 0
BITMAP
1CF8
1C60
38C0
3B80
3F00
7F00
7380
7380
7190
E1F0
E1E0
E0C0
ENDCHAR
STARTCHAR Lacute
ENCODING 313
SWIDTH 611 0
DWIDTH 15 0
BBX 14 23 0 0
BITMAP
00E0
01E0
03C0
0700
0400
0000
0FC0
0780
0780
0700
0F00
0F00
0E00
1E00
1E00
1C00
3C00
3C00
3804
780C
781C
7C78
FFF8
ENDCHAR
STARTCHAR lacute
ENCODING 314
SWIDTH 278 0
DWIDTH 7 0
BBX 9 24 1 0
BITMAP
0380
0780
0F00
1C00
1000
0000
1E00
0E00
0E00
1C00
1C00
1C00
3800
3800
3800
7000
7000
7000
7000
7000
E000
E400
F800
7000
ENDCHAR
STARTCHAR Lcommaaccent
ENCODING 315
SWIDTH 611 0
DWIDTH 15 0
BBX 14 24 0 -7
BITMAP
0FC0
0780
0780
0700
0F00
0F00
0E00
1E00
1E00
1C00
3C00
3C00
3804
780C
781C
7C78
FFF8
0000
0700
0700
0700
0300
0600
0C00
ENDCHAR
STARTCHAR lcommaaccent
ENCODING 316
SWIDTH 278 0
DWIDTH 7 0
BBX 7 25 1 -7
BITMAP
1E
0E
0E
1C
1C
1C
38
38
38
70
70
70
70
70
E0
E4
F8
70
00
70
70
70
30
60
C0
ENDCHAR
STARTCHAR Lcaron
ENCODING 317
SWIDTH 913 0
DWIDTH 22 0
BBX 21 17 0 0
BITMAP
0FC038
078038
078038
070018
0F0030
0F0060
0E0000
1E0000
1E0000
1C0000
3C0000
3C0000
380400
780C00
781C00
7C7800
FFF800
ENDCHAR
STARTCHAR lcaron
ENCODING 318
SWIDTH 597 0
DWIDTH 15 0
BBX 13 18 1 0
BITMAP
1E00
0E38
0E38
1C38
1C18
1C30
3860
3800
3800
7000
7000
7000
7000
7000
E000
E400
F800
7000
ENDCHAR
STARTCHAR Ldot
ENCODING 319
SWIDTH 830 0
DWIDTH 21 0
BBX 19 17 0 0
BITMAP
0FC000
078000
078000
070000
0F0000
0F0000
0E0000
1E0000
1E0000
1C00E0
3C00E0
3C00E0
380400
780C00
781C00
7C7800
FFF800
ENDCHAR
STARTCHAR ldot
ENCODING 320
SWIDTH 514 0
DWIDTH 14 0
BBX 11 18 1 0
BITMAP
1E00
0E00
0E00
1C00
1C00
1C00
3800
3800
3800
7000
70E0
70E0
70E0
7000
E000
E400
F800
7000
ENDCHAR
STARTCHAR Lslash
ENCODING 321
SWIDTH 611 0
DWIDTH 15 0
BBX 14 17 0 0
BITMAP
0FC0
0780
0780
0700
0F00
0F60
0FC0
1F00
3E00
FC00
3C00
3C00
3804
780C
781C
7C78
FFF8
ENDCHAR
STARTCHAR lslash
ENCODING 322
SWIDTH 278 0
DWIDTH 7 0
BBX 9 17 0 0
BITMAP
0F00
0700
0700
0E00
0E00
0F80
1F00
1C00
7C00
F800
3800
3800
3800
7000
7200
7C00
3800
ENDCHAR
STARTCHAR Nacute
ENCODING 323
SWIDTH 722 0
DWIDTH 18 0
BBX 21 23 -1 0
BITMAP
000E00
001E00
003C00
007000
004000
000000
0FC0F8
03C070
03C060
03E060
07E040
05F040
04F0C0
04F880
0C7880
0C7D80
083D00
183F00
181F00
101F00
300E00
700600
FC0600
ENDCHAR
STARTCHAR nacute
ENCODING 324
SWIDTH 556 0
DWIDTH 13 0
BBX 12 18 0 0
BITMAP
01C0
03C0
0780
0E00
0800
0000
79C0
3BE0
3AE0
3CE0
38E0
71C0
71C0
71C0
71C0
E390
E3E0
E1C0
ENDCHAR
STARTCHAR Ncommaaccent
ENCODING 325
SWIDTH 722 0
DWIDTH 18 0
BBX 21 24 -1 -7
BITMAP
0FC0F8
03C070
03C060
03E060
07E040
05F040
04F0C0
04F880
0C7880
0C7D80
083D00
183F00
181F00
101F00
300E00
700600
FC0600
000000
00E000
00E000
00E000
006000
00C000
018000
ENDCHAR
STARTCHAR ncommaaccent
ENCODING 326
SWIDTH 556 0
DWIDTH 13 0
BBX 12 19 0 -7
BITMAP
79C0
3BE0
3AE0
3CE0
38E0
71C0
71C0
71C0
71C0
E390
E3E0
E1C0
0000
0E00
0E00
0E00
0600
0C00
1800
ENDCHAR
STARTCHAR Ncaron
ENCODING 327
SWIDTH 722 0
DWIDTH 18 0
BBX 21 22 -1 0
BITMAP
00C700
00EE00
007800
003000
000000
0FC0F8
03C070
03C060
03E060
07E040
05F040
04F0C0
04F880
0C7880
0C7D80
083D00
183F00
181F00
101F00
300E00
700600
FC0600
ENDCHAR
STARTCHAR ncaron
ENCODING 328
SWIDTH 556 0
DWIDTH 13 0
BBX 12 17 0 0
BITMAP
18E0
1DC0
0F00
0600
0000
79C0
3BE0
3AE0
3CE0
38E0
71C0
71C0
71C0
71C0
E390
E3E0
E1C0
ENDCHAR
STARTCHAR napostrophe
ENCODING 329
SWIDTH 872 0
DWIDTH 21 0
BBX 17 17 3 0
BITMAP
700000
700000
700000
300000
600000
C3CE00
01DF00
01D700
01E700
01C700
038E00
038E00
038E00
038E00
071C80
071F00
070E00
ENDCHAR
STARTCHAR Eng
ENCODING 330
SWIDTH 722 0
DWIDTH 18 0
BBX 21 22 -1 -5
BITMAP
0FC0F8
03C070
03C060
03E060
07E040
05F040
04F0C0
04F880
0C7880
0C7D80
083D00
183F00
181F00
101F00
300E00
700E00
FC0E00
000E00
000C00
00DC00
00F800
007000
ENDCHAR
STARTCHAR eng
ENCODING 331
SWIDTH 556 0
DWIDTH 13 0
BBX 11 17 0 -5
BITMAP
79C0
3BE0
3AE0
3CE0
38E0
71C0
71C0
71C0
71C0
E180
E380
E380
0380
0300
3700
3E00
1C00
ENDCHAR
STARTCHAR Omacron
ENCODING 332
SWIDTH 722 0
DWIDTH 18 0
BBX 17 20 1 0
BITMAP
03F800
03F800
000000
00FC00
03DE00
0F0700
1E0780
1C0780
3C0380
780780
780780
F00780
F00F00
F00F00
E01E00
F01E00
F03C00
707800
3DF000
1FC000
ENDCHAR
STARTCHAR omacron
ENCODING 333
SWIDTH 500 0
DWIDTH 12 0
BBX 11 15 0 0
BITMAP
3F80
3F80
0000
0F80
3DC0
78E0
70E0
E0E0
E0E0
E0E0
E1E0
E1C0
E3C0
7780
3E00
ENDCHAR
STARTCHAR Obreve
ENCODING 334
SWIDTH 722 0
DWIDTH 18 0
BBX 17 22 1 0
BITMAP
030C00
030C00
01F800
00F000
000000
00FC00
03DE00
0F0700
1E0780
1C0780
3C0380
780780
780780
F00780
F00F00
F00F00
E01E00
F01E00
F03C00
707800
3DF000
1FC000
ENDCHAR
STARTCHAR obreve
ENCODING 335
SWIDTH 500 0
DWIDTH 12 0
BBX 11 17 0 0
BITMAP
30C0
30C0
1F80
0F00
0000
0F80
3DC0
78E0
70E0
E0E0
E0E0
E0E0
E1E0
E1C0
E3C0
7780
3E00
ENDCHAR
STARTCHAR Ohungarumlaut
ENCODING 336
SWIDTH 722 0
DWIDTH 18 0
BBX 17 22 1 0
BITMAP
00CC00
00CC00
019800
019800
000000
00FC00
03DE00
0F0700
1E0780
1C0780
3C0380
780780
780780
F00780
F00F00
F00F00
E01E00
F01E00
F03C00
707800
3DF000
1FC000
ENDCHAR
STARTCHAR ohungarumlaut
ENCODING 337
SWIDTH 500 0
DWIDTH 12 0
BBX 11 17 0 0
BITMAP
0CC0
0CC0
1980
1980
0000
0F80
3DC0
78E0
70E0
E0E0
E0E0
E0E0
E1E0
E1C0
E3C0
7780
3E00
ENDCHAR
STARTCHAR OE
ENCODING 338
SWIDTH 944 0
DWIDTH 24 0
BBX 25 17 0 0
BITMAP
00FBFF80
03DF8380
0F078100
1E0F0100
1C0F0000
3C0F0800
780E1800
781E3000
F01FF000
F01C7000
F03C2000
F03C2000
F0380200
F0380600
70780E00
3DF03C00
1FBFFC00
ENDCHAR
STARTCHAR oe
ENCODING 339
SWIDTH 722 0
DWIDTH 17 0
BBX 17 11 0 0
BITMAP
0F8F00
3DFF80
78F380
70E300
E0EE00
E0F800
E0E000
E1C000
E3E300
77FE00
3E7800
ENDCHAR
STARTCHAR Racute
ENCODING 340
SWIDTH 667 0
DWIDTH 17 0
BBX 16 23 0 0
BITMAP
0038
0078
00F0
01C0
0100
0000
0FF8
079E
078F
070F
0F0F
0F0F
0E1E
1E3C
1FF0
1CE0
3CF0
3CF0
3870
7878
7838
703C
F83E
ENDCHAR
STARTCHAR racute
ENCODING 341
SWIDTH 389 0
DWIDTH 10 0
BBX 10 18 0 0
BITMAP
01C0
03C0
0780
0E00
0800
0000
7980
3BC0
37C0
3CC0
3800
7800
7000
7000
7000
E000
E000
E000
ENDCHAR
STARTCHAR Rcommaaccent
ENCODING 342
SWIDTH 667 0
DWIDTH 17 0
BBX 16 24 0 -7
BITMAP
0FF8
079E
078F
070F
0F0F
0F0F
0E1E
1E3C
1FF0
1CE0
3CF0
3CF0
3870
7878
7838
703C
F83E
0000
0380
0380
0380
0180
0300
0600
ENDCHAR
STARTCHAR rcommaaccent
ENCODING 343
SWIDTH 389 0
DWIDTH 10 0
BBX 10 19 0 -7
BITMAP
7980
3BC0
37C0
3CC0
3800
7800
7000
7000
7000
E000
E000
E000
0000
3800
3800
3800
1800
3000
6000
ENDCHAR
STARTCHAR Rcaron
ENCODING 344
SWIDTH 667 0
DWIDTH 17 0
BBX 16 22 0 0
BITMAP
031C
03B8
01E0
00C0
0000
0FF8
079E
078F
070F
0F0F
0F0F
0E1E
1E3C
1FF0
1CE0
3CF0
3CF0
3870
7878
7838
703C
F83E
ENDCHAR
STARTCHAR rcaron
ENCODING 345
SWIDTH 389 0
DWIDTH 10 0
BBX 10 17 0 0
BITMAP
31C0
3B80
1E00
0C00
0000
7980
3BC0
37C0
3CC0
3800
7800
7000
7000
7000
E000
E000
E000
ENDCHAR
STARTCHAR Sacute
ENCODING 346
SWIDTH 556 0
DWIDTH 14 0
BBX 15 23 -1 0
BITMAP
0038
0078
00F0
01C0
0100
0000
03F6
071E
0E0C
0E04
0E04
0F00
0F80
07C0
03E0
01F0
00F8
10F8
3078
3078
78F0
7DE0
EFC0
ENDCHAR
STARTCHAR sacute
ENCODING 347
SWIDTH 389 0
DWIDTH 10 0
BBX 9 18 0 0
BITMAP
0380
0780
0F00
1C00
1000
0000
1F80
3980
3180
3800
3C00
1E00
0F00
0F00
C700
C700
EE00
BC00
ENDCHAR
STARTCHAR Scircumflex
ENCODING 348
SWIDTH 556 0
DWIDTH 14 0
BBX 15 22 -1 0
BITMAP
0060
00F0
03B8
0718
0000
03F6
071E
0E0C
0E04
0E04
0F00
0F80
07C0
03E0
01F0
00F8
10F8
3078
3078
78F0
7DE0
EFC0
ENDCHAR
STARTCHAR scircumflex
ENCODING 349
SWIDTH 389 0
DWIDTH 10 0
BBX 9 17 0 0
BITMAP
0600
0F00
3B80
7180
0000
1F80
3980
3180
3800
3C00
1E00
0F00
0F00
C700
C700
EE00
BC00
ENDCHAR
STARTCHAR Scedilla
ENCODING 350
SWIDTH 556 0
DWIDTH 14 0
BBX 15 22 -1 -5
BITMAP
03F6
071E
0E0C
0E04
0E04
0F00
0F80
07C0
03E0
01F0
00F8
10F8
3078
3078
78F0
7DE0
EFC0
0300
0380
11C0
19C0
0F80
ENDCHAR
STARTCHAR scedilla
ENCODING 351
SWIDTH 389 0
DWIDTH 10 0
BBX 9 17 0 -5
BITMAP
1F80
3980
3180
3800
3C00
1E00
0F00
0F00
C700
C700
EE00
BC00
1800
1C00
8E00
CE00
7C00
ENDCHAR
STARTCHAR Scaron
ENCODING 352
SWIDTH 556 0
DWIDTH 14 0
BBX 15 17 -1 0
BITMAP
018E
01DC
00F0
0060
03F6
071E
0E0C
0F04
0F84
07C0
01E0
10F0
3078
3078
7878
7CF0
EFE0
ENDCHAR
STARTCHAR scaron
ENCODING 353
SWIDTH 389 0
DWIDTH 10 0
BBX 11 15 0 0
BITMAP
18E0
1DC0
0F00
0600
1F80
3980
3180
3800
3C00
1E00
0F00
C700
C700
EF00
BC00
ENDCHAR
STARTCHAR Tcommaaccent
ENCODING 354
SWIDTH 611 0
DWIDTH 16 0
BBX 15 22 2 -5
BITMAP
7FFE
E3CE
C3C6
8384
0780
0780
0700
0F00
0F00
0E00
1E00
1E00
1C00
3C00
3C00
3800
FF00
0C00
0E00
4700
6700
3E00
ENDCHAR
STARTCHAR tcommaaccent
ENCODING 355
SWIDTH 278 0
DWIDTH 8 0
BBX 8 20 0 -5
BITMAP
07
07
0E
3F
7F
1C
1C
38
38
38
38
70
72
7C
38
18
1C
8E
CE
7C
ENDCHAR
STARTCHAR Tcaron
ENCODING 356
SWIDTH 611 0
DWIDTH 16 0
BBX 15 22 2 0
BITMAP
0C70
0EE0
0780
0300
0000
7FFE
E3CE
C3C6
8384
0780
0780
0700
0F00
0F00
0E00
1E00
1E00
1C00
3C00
3C00
3800
FF00
ENDCHAR
STARTCHAR tcaron
ENCODING 357
SWIDTH 597 0
DWIDTH 16 0
BBX 14 17 1 0
BITMAP
001C
001C
0E1C
0E0C
1C18
7E30
FE00
3800
3800
7000
7000
7000
7000
E000
E400
F800
7000
ENDCHAR
STARTCHAR Tbar
ENCODING 358
SWIDTH 611 0
DWIDTH 16 0
BBX 15 17 2 0
BITMAP
7FFE
E3CE
C3C6
8384
0780
0780
0700
1FF8
1FF8
0E00
1E00
1E00
1C00
3C00
3C00
3800
FF00
ENDCHAR
STARTCHAR tbar
ENCODING 359
SWIDTH 278 0
DWIDTH 8 0
BBX 10 15 0 0
BITMAP
0700
0700
0E00
3F00
7F00
1C00
1C00
3800
FFC0
FFC0
3800
7000
7200
7C00
3800
ENDCHAR
STARTCHAR Utilde
ENCODING 360
SWIDTH 722 0
DWIDTH 18 0
BBX 19 21 1 0
BITMAP
038800
07F800
047000
000000
3F07E0
1E0180
1E0180
1C0300
3C0300
3C0200
380600
780600
780600
700C00
F00C00
F00C00
F01800
F01800
703000
7CF000
1FC000
ENDCHAR
STARTCHAR utilde
ENCODING 361
SWIDTH 556 0
DWIDTH 13 0
BBX 12 16 0 0
BITMAP
1C40
3FC0
2380
0000
3C70
1C70
38E0
38E0
71E0
71C0
73C0
73C0
E780
ED90
F9E0
71C0
ENDCHAR
STARTCHAR Umacron
ENCODING 362
SWIDTH 722 0
DWIDTH 18 0
BBX 19 20 1 0
BITMAP
03F800
03F800
000000
3F07E0
1E0180
1E0180
1C0300
3C0300
3C0200
380600
780600
780600
700C00
F00C00
F00C00
F01800
F01800
703000
7CF000
1FC000
ENDCHAR
STARTCHAR umacron
ENCODING 363
SWIDTH 556 0
DWIDTH 13 0
BBX 12 15 0 0
BITMAP
1FC0
1FC0
0000
3C70
1C70
38E0
38E0
71E0
71C0
73C0
73C0
E780
ED90
F9E0
71C0
ENDCHAR
STARTCHAR Ubreve
ENCODING 364
SWIDTH 722 0
DWIDTH 18 0
BBX 19 22 1 0
BITMAP
061800
061800
03F000
01E000
000000
3F07E0
1E0180
1E0180
1C0300
3C0300
3C0200
380600
780600
780600
700C00
F00C00
F00C00
F01800
F01800
703000
7CF000
1FC000
ENDCHAR
STARTCHAR ubreve
ENCODING 365
SWIDTH 556 0
DWIDTH 13 0
BBX 12 17 0 0
BITMAP
1860
1860
0FC0
0780
0000
3C70
1C70
38E0
38E0
71E0
71C0
73C0
73C0
E780
ED90
F9E0
71C0
ENDCHAR
STARTCHAR Uring
ENCODING 366
SWIDTH 722 0
DWIDTH 18 0
BBX 19 23 1 0
BITMAP
00E000
01B000
011000
01B000
00E000
000000
3F07E0
1E0180
1E0180
1C0300
3C0300
3C0200
380600
780600
780600
700C00
F00C00
F00C00
F01800
F01800
703000
7CF000
1FC000
ENDCHAR
STARTCHAR uring
ENCODING 367
SWIDTH 556 0
DWIDTH 13 0
BBX 12 18 0 0
BITMAP
0700
0D80
0880
0D80
0700
0000
3C70
1C70
38E0
38E0
71E0
71C0
73C0
73C0
E780
ED90
F9E0
71C0
ENDCHAR
STARTCHAR Uhungarumlaut
ENCODING 368
SWIDTH 722 0
DWIDTH 18 0
BBX 19 22 1 0
BITMAP
019800
019800
033000
033000
000000
3F07E0
1E0180
1E0180
1C0300
3C0300
3C0200
380600
780600
780600
700C00
F00C00
F00C00
F01800
F01800
703000
7CF000
1FC000
ENDCHAR
STARTCHAR uhungarumlaut
ENCODING 369
SWIDTH 556 0
DWIDTH 13 0
BBX 12 17 0 0
BITMAP
0CC0
0CC0
1980
1980
0000
3C70
1C70
38E0
38E0
71E0
71C0
73C0
73C0
E780
ED90
F9E0
71C0
ENDCHAR
STARTCHAR Uogonek
ENCODING 370
SWIDTH 722 0
DWIDTH 18 0
BBX 19 22 1 -5
BITMAP
3F07E0
1E0180
1E0180
1C0300
3C0300
3C0200
380600
780600
780600
700C00
F00C00
F00C00
F01800
F01800
703000
7CF000
1FC000
018000
070000
070000
07F000
03C000
ENDCHAR
STARTCHAR uogonek
ENCODING 371
SWIDTH 556 0
DWIDTH 13 0
BBX 12 17 0 -5
BITMAP
3C70
1C70
38E0
38E0
71E0
71C0
73C0
73C0
E780
ED90
F9E0
71C0
0600
1C00
1C00
1FC0
0F00
ENDCHAR
STARTCHAR Wcircumflex
ENCODING 372
SWIDTH 889 0
DWIDTH 21 0
BBX 23 22 1 0
BITMAP
001800
003C00
00EE00
01C600
000000
FC7C7E
78381C
383818
383830
387830
3C7C60
1CDC60
1CDCC0
1C9C80
1D9D80
1D1D00
1F1F00
1E1E00
0E0E00
0E0E00
0C0C00
0C0C00
ENDCHAR
STARTCHAR wcircumflex
ENCODING 373
SWIDTH 667 0
DWIDTH 16 0
BBX 16 17 0 0
BITMAP
00C0
01E0
0770
0E30
0000
F18E
718F
7183
71C3
3BC6
3BC4
3EEC
3EE8
3CF8
38F0
38E0
30C0
ENDCHAR
STARTCHAR Ycircumflex
ENCODING 374
SWIDTH 611 0
DWIDTH 14 0
BBX 15 22 2 0
BITMAP
0180
03C0
0EE0
1C60
0000
FC3E
781C
7818
3830
3C20
3C60
1CC0
1D80
1F00
0E00
1E00
1C00
1C00
1C00
3800
3C00
FF00
ENDCHAR
STARTCHAR ycircumflex
ENCODING 375
SWIDTH 444 0
DWIDTH 11 0
BBX 12 22 -2 -5
BITMAP
0180
03C0
0EE0
1C60
0000
3C70
1C70
1C70
1C60
0C60
0EC0
0EC0
0780
0780
0700
0300
0200
0600
0400
CC00
F800
7000
ENDCHAR
STARTCHAR Ydieresis
ENCODING 376
SWIDTH 611 0
DWIDTH 14 0
BBX 14 16 2 0
BITMAP
0C60
0C60
0000
FC7C
7838
3830
3C60
1CC0
1F80
0F00
0E00
0E00
1C00
1C00
3E00
FF00
ENDCHAR
STARTCHAR Zacute
ENCODING 377
SWIDTH 611 0
DWIDTH 15 0
BBX 16 23 -1 0
BITMAP
0038
0078
00F0
01C0
0100
0000
0FFF
1E1F
181E
303C
0078
00F0
01E0
01E0
03C0
0780
0F00
1E00
3E06
3C0C
781C
F0F8
FFF8
ENDCHAR
STARTCHAR zacute
ENCODING 378
SWIDTH 389 0
DWIDTH 9 0
BBX 10 20 -1 -2
BITMAP
01C0
03C0
0780
0E00
0800
0000
3FC0
3FC0
6180
4300
0600
0C00
0C00
1800
3000
6000
F000
F980
0D80
0700
ENDCHAR
STARTCHAR Zdotaccent
ENCODING 379
SWIDTH 611 0
DWIDTH 15 0
BBX 16 20 -1 0
BITMAP
00C0
00C0
0000
0FFF
1E1F
181E
303C
0078
00F0
01E0
01E0
03C0
0780
0F00
1E00
3E06
3C0C
781C
F0F8
FFF8
ENDCHAR
STARTCHAR zdotaccent
ENCODING 380
SWIDTH 389 0
DWIDTH 9 0
BBX 10 17 -1 -2
BITMAP
0C00
0C00
0000
3FC0
3FC0
6180
4300
0600
0C00
0C00
1800
3000
6000
F000
F980
0D80
0700
ENDCHAR
STARTCHAR Zcaron
ENCODING 381
SWIDTH 611 0
DWIDTH 15 0
BBX 14 17 0 0
BITMAP
0638
0770
03C0
0180
1FFC
3C3C
3078
60F0
01E0
03C0
0780
0F00
1E0C
3C18
7838
F0F0
FFF0
ENDCHAR
STARTCHAR zcaron
ENCODING 382
SWIDTH 389 0
DWIDTH 9 0
BBX 11 17 -1 -2
BITMAP
18E0
1DC0
0F00
0600
3FC0
3FC0
6180
4300
0600
0C00
1800
3000
6000
F000
F980
0D80
0700
ENDCHAR
STARTCHAR uni0186
ENCODING 390
SWIDTH 667 0
DWIDTH 16 0
BBX 16 17 0 0
BITMAP
03F0
1FFC
303E
001E
000F
000F
000F
000F
000F
000F
000E
001E
401C
403C
6078
F1F0
DFC0
ENDCHAR
STARTCHAR uni0189
ENCODING 393
SWIDTH 722 0
DWIDTH 19 0
BBX 18 17 0 0
BITMAP
0FF800
07BF00
078780
070780
0F03C0
0F03C0
0E03C0
FFC3C0
FFC3C0
1C03C0
3C0780
3C0780
380F00
781E00
783C00
70F800
FFC000
ENDCHAR
STARTCHAR uni018E
ENCODING 398
SWIDTH 667 0
DWIDTH 16 0
BBX 17 17 0 0
BITMAP
1FFF80
1E0700
380F00
300F00
200E00
021E00
021E00
071C00
07FC00
063C00
0C3800
087800
007800
407000
40F000
E0F000
FFF800
ENDCHAR
STARTCHAR florin
ENCODING 402
SWIDTH 500 0
DWIDTH 13 0
BBX 13 21 -1 -4
BITMAP
0070
00D8
0198
0180
0380
0380
1FF0
0380
0380
0380
0380
0700
0700
0700
0700
0700
0700
0600
C600
CC00
7800
ENDCHAR
STARTCHAR uni0197
ENCODING 407
SWIDTH 389 0
DWIDTH 10 0
BBX 10 17 0 0
BITMAP
0FC0
0780
0780
0700
0F00
0F00
0E00
FFC0
FFC0
1C00
3C00
3C00
3800
7800
7800
7000
F800
ENDCHAR
STARTCHAR uni019A
ENCODING 410
SWIDTH 278 0
DWIDTH 7 0
BBX 10 18 0 0
BITMAP
0F00
0700
0700
0E00
0E00
0E00
1C00
1C00
FFC0
FFC0
3800
3800
3800
3800
7000
7200
7C00
3800
ENDCHAR
STARTCHAR uni019D
ENCODING 413
SWIDTH 722 0
DWIDTH 18 0
BBX 23 22 -3 -5
BITMAP
03F03E
00F01C
00F018
00F818
01F810
017C10
013C30
013E20
031E20
031F60
020F40
060FC0
0707C0
0707C0
060380
0E0180
0E0180
0E0000
0C0000
DC0000
F80000
700000
ENDCHAR
STARTCHAR uni019F
ENCODING 415
SWIDTH 722 0
DWIDTH 18 0
BBX 17 17 1 0
BITMAP
00FC00
03DE00
0F0700
1E0780
1C0780
3C0380
780780
FFFF80
FFFF80
F00F00
F00F00
E01E00
F01E00
F03C00
707800
3DF000
1FC000
ENDCHAR
STARTCHAR Ohorn
ENCODING 416
SWIDTH 722 0
DWIDTH 18 0
BBX 19 17 1 0
BITMAP
00FCE0
03DEE0
0F07E0
1E07E0
1C07C0
3C0380
780780
780780
F00780
F00F00
F00F00
E01E00
F01E00
F03C00
707800
3DF000
1FC000
ENDCHAR
STARTCHAR ohorn
ENCODING 417
SWIDTH 500 0
DWIDTH 12 0
BBX 14 12 0 0
BITMAP
0F9C
3DDC
78FC
70EC
E0F8
E0F0
E0E0
E1E0
E1C0
E3C0
7780
3E00
ENDCHAR
STARTCHAR Uhorn
ENCODING 431
SWIDTH 722 0
DWIDTH 18 0
BBX 21 17 1 0
BITMAP
3F07F8
1E01B8
1E01B8
1C0318
3C0330
3C0260
380600
780600
780600
700C00
F00C00
F00C00
F01800
F01800
703000
7CF000
1FC000
ENDCHAR
STARTCHAR uhorn
ENCODING 432
SWIDTH 556 0
DWIDTH 13 0
BBX 15 12 0 0
BITMAP
3C7E
1C7E
38EE
38E6
71EC
71D8
73C0
73C0
E780
ED90
F9E0
71C0
ENDCHAR
STARTCHAR uni01B5
ENCODING 437
SWIDTH 611 0
DWIDTH 15 0
BBX 16 17 -1 0
BITMAP
0FFF
1E1F
181E
303C
0078
00F0
01E0
1FF8
1FF8
0780
0F00
1E00
3E06
3C0C
781C
F0F8
FFF8
ENDCHAR
STARTCHAR uni01B6
ENCODING 438
SWIDTH 389 0
DWIDTH 9 0
BBX 10 14 -1 -2
BITMAP
3FC0
3FC0
6180
4300
0600
0C00
FFC0
FFC0
3000
6000
F000
F980
0D80
0700
ENDCHAR
STARTCHAR uni01BB
ENCODING 443
SWIDTH 500 0
DWIDTH 12 0
BBX 12 17 -1 0
BITMAP
03E0
0FF0
18F0
1070
0070
0070
0060
FFF0
FFF0
0180
0300
0600
0C00
1820
3FE0
7FC0
FF80
ENDCHAR
STARTCHAR uni01BC
ENCODING 444
SWIDTH 500 0
DWIDTH 12 0
BBX 13 17 0 0
BITMAP
03F8
07F0
07F0
0C00
1800
1F00
3FC0
3FC0
07E0
01E0
00E0
00E0
00E0
C1C0
E180
E380
3E00
ENDCHAR
STARTCHAR uni01C0
ENCODING 448
SWIDTH 220 0
DWIDTH 6 0
BBX 2 18 2 0
BITMAP
C0
C0
C0
C0
C0
C0
C0
C0
C0
C0
C0
C0
C0
C0
C0
C0
C0
C0
ENDCHAR
STARTCHAR uni01C2
ENCODING 450
SWIDTH 570 0
DWIDTH 13 0
BBX 10 18 1 -3
BITMAP
0C00
0C00
0C00
0C00
0C00
0C00
FFC0
FFC0
0C00
0C00
FFC0
FFC0
0C00
0C00
0C00
0C00
0C00
0C00
ENDCHAR
STARTCHAR uni01C3
ENCODING 451
SWIDTH 389 0
DWIDTH 10 0
BBX 8 17 1 0
BITMAP
06
0F
0F
0E
1E
1C
1C
1C
18
38
30
30
00
00
E0
E0
E0
ENDCHAR
STARTCHAR uni01CD
ENCODING 461
SWIDTH 667 0
DWIDTH 16 0
BBX 17 22 -2 0
BITMAP
00C700
00EE00
007800
003000
000000
000200
000600
000E00
001E00
003E00
006E00
00CE00
018E00
030E00
060E00
0FFE00
0FFE00
180E00
300E00
600E00
E00F00
F01F80
ENDCHAR
STARTCHAR uni01CE
ENCODING 462
SWIDTH 500 0
DWIDTH 13 0
BBX 13 17 0 0
BITMAP
0C70
0EE0
0780
0300
0000
07B0
1EF0
3C70
38F0
70E0
70E0
E1C0
E1C0
E3C0
E7C8
FDF0
79E0
ENDCHAR
STARTCHAR uni01CF
ENCODING 463
SWIDTH 389 0
DWIDTH 10 0
BBX 11 22 0 0
BITMAP
18E0
1DC0
0F00
0600
0000
0FC0
0780
0780
0700
0F00
0F00
0E00
1E00
1E00
1C00
3C00
3C00
3800
7800
7800
7000
F800
ENDCHAR
STARTCHAR uni01D0
ENCODING 464
SWIDTH 278 0
DWIDTH 7 0
BBX 9 16 0 0
BITMAP
6380
7700
3C00
1800
0000
3C00
1C00
1C00
3800
3800
3800
7000
7000
F400
F800
7000
ENDCHAR
STARTCHAR uni01D1
ENCODING 465
SWIDTH 722 0
DWIDTH 18 0
BBX 17 22 1 0
BITMAP
031C00
03B800
01E000
00C000
000000
00FC00
03DE00
0F0700
1E0780
1C0780
3C0380
780780
780780
F00780
F00F00
F00F00
E01E00
F01E00
F03C00
707800
3DF000
1FC000
ENDCHAR
STARTCHAR uni01D2
ENCODING 466
SWIDTH 500 0
DWIDTH 12 0
BBX 11 17 0 0
BITMAP
18E0
1DC0
0F00
0600
0000
0F80
3DC0
78E0
70E0
E0E0
E0E0
E0E0
E1E0
E1C0
E3C0
7780
3E00
ENDCHAR
STARTCHAR uni01D3
ENCODING 467
SWIDTH 722 0
DWIDTH 18 0
BBX 19 22 1 0
BITMAP
031C00
03B800
01E000
00C000
000000
3F07E0
1E0180
1E0180
1C0300
3C0300
3C0200
380600
780600
780600
700C00
F00C00
F00C00
F01800
F01800
703000
7CF000
1FC000
ENDCHAR
STARTCHAR uni01D4
ENCODING 468
SWIDTH 556 0
DWIDTH 13 0
BBX 12 17 0 0
BITMAP
18E0
1DC0
0F00
0600
0000
3C70
1C70
38E0
38E0
71E0
71C0
73C0
73C0
E780
ED90
F9E0
71C0
ENDCHAR
STARTCHAR uni01D5
ENCODING 469
SWIDTH 722 0
DWIDTH 18 0
BBX 19 24 1 0
BITMAP
01FC00
01FC00
000000
00C300
01C700
018600
000000
3F07E0
1E0180
1E0180
1C0300
3C0300
3C0200
380600
780600
780600
700C00
F00C00
F00C00
F01800
F01800
703000
7CF000
1FC000
ENDCHAR
STARTCHAR uni01D6
ENCODING 470
SWIDTH 556 0
DWIDTH 14 0
BBX 12 19 1 0
BITMAP
1FC0
1FC0
0000
0C60
0C60
0000
0000
3C70
1C70
38E0
38E0
71E0
71C0
73C0
73C0
E7C0
EDB0
F9E0
71C0
ENDCHAR
STARTCHAR uni01D7
ENCODING 471
SWIDTH 722 0
DWIDTH 18 0
BBX 19 27 1 0
BITMAP
001C00
003C00
007800
00E000
008000
000000
00C300
01C700
018600
000000
3F07E0
1E0180
1E0180
1C0300
3C0300
3C0200
380600
780600
780600
700C00
F00C00
F00C00
F01800
F01800
703000
7CF000
1FC000
ENDCHAR
STARTCHAR uni01D8
ENCODING 472
SWIDTH 556 0
DWIDTH 14 0
BBX 12 22 1 0
BITMAP
00E0
01E0
03C0
0700
0400
0000
0C60
0C60
0000
0000
3C70
1C70
38E0
38E0
71E0
71C0
73C0
73C0
E7C0
EDB0
F9E0
71C0
ENDCHAR
STARTCHAR uni01D9
ENCODING 473
SWIDTH 722 0
DWIDTH 18 0
BBX 19 26 1 0
BITMAP
018E00
01DC00
00F000
006000
000000
00C300
01C700
018600
000000
3F07E0
1E0180
1E0180
1C0300
3C0300
3C0200
380600
780600
780600
700C00
F00C00
F00C00
F01800
F01800
703000
7CF000
1FC000
ENDCHAR
STARTCHAR uni01DA
ENCODING 474
SWIDTH 556 0
DWIDTH 14 0
BBX 12 21 1 0
BITMAP
18E0
1DC0
0F00
0600
0000
0C60
0C60
0000
0000
3C70
1C70
38E0
38E0
71E0
71C0
73C0
73C0
E7C0
EDB0
F9E0
71C0
ENDCHAR
STARTCHAR uni01DB
ENCODING 475
SWIDTH 722 0
DWIDTH 18 0
BBX 19 27 1 0
BITMAP
038000
03C000
01E000
007000
001000
000000
00C300
01C700
018600
000000
3F07E0
1E0180
1E0180
1C0300
3C0300
3C0200
380600
780600
780600
700C00
F00C00
F00C00
F01800
F01800
703000
7CF000
1FC000
ENDCHAR
STARTCHAR uni01DC
ENCODING 476
SWIDTH 556 0
DWIDTH 14 0
BBX 12 22 1 0
BITMAP
1C00
1E00
0F00
0380
0080
0000
0C60
0C60
0000
0000
3C70
1C70
38E0
38E0
71E0
71C0
73C0
73C0
E7C0
EDB0
F9E0
71C0
ENDCHAR
STARTCHAR uni01DD
ENCODING 477
SWIDTH 444 0
DWIDTH 10 0
BBX 10 12 0 0
BITMAP
0F00
3F80
63C0
01C0
01C0
03C0
0FC0
3B80
6380
E700
FE00
7800
ENDCHAR
STARTCHAR uni01DE
ENCODING 478
SWIDTH 667 0
DWIDTH 16 0
BBX 20 24 -2 0
BITMAP
003F80
003F80
000000
000C30
001C70
001860
000000
000200
000600
000E00
001E00
003E00
006E00
00CE00
018E00
030E00
060E00
0FFE00
0FFE00
180E00
300E00
600E00
E00F00
F01F80
ENDCHAR
STARTCHAR uni01DF
ENCODING 479
SWIDTH 500 0
DWIDTH 13 0
BBX 13 19 0 0
BITMAP
0FE0
0FE0
0000
0630
0630
0000
0000
07B8
1EF8
3C70
3870
70E0
70E0
E1E0
E1C0
E3C0
E7C8
FDF0
79E0
ENDCHAR
STARTCHAR uni01E0
ENCODING 480
SWIDTH 667 0
DWIDTH 16 0
BBX 17 23 -2 0
BITMAP
00FE00
00FE00
000000
001800
001800
000000
000200
000600
000E00
001E00
003E00
006E00
00CE00
018E00
030E00
060E00
0FFE00
0FFE00
180E00
300E00
600E00
E00F00
F01F80
ENDCHAR
STARTCHAR uni01E1
ENCODING 481
SWIDTH 500 0
DWIDTH 13 0
BBX 13 18 0 0
BITMAP
0FE0
0FE0
0000
0300
0300
0000
07B0
1EF0
3C70
38F0
70E0
70E0
E1C0
E1C0
E3C0
E7C8
FDF0
79E0
ENDCHAR
STARTCHAR uni01E2
ENCODING 482
SWIDTH 944 0
DWIDTH 22 0
BBX 25 20 -2 0
BITMAP
001FC000
001FC000
00000000
007FFF80
001F8380
00378100
00270100
006F0000
00CF0800
018E1800
011E3000
031FF000
061C7000
043C2000
0FFC2000
18380200
10780600
30780E00
70703C00
F8FFFC00
ENDCHAR
STARTCHAR uni01E3
ENCODING 483
SWIDTH 722 0
DWIDTH 17 0
BBX 17 15 0 0
BITMAP
03F800
03F800
000000
078F00
1EFF80
3C7380
38E300
70EE00
71F800
E1E000
E1E000
E3C000
E7E300
FCFE00
787800
ENDCHAR
STARTCHAR uni01E4
ENCODING 484
SWIDTH 722 0
DWIDTH 18 0
BBX 19 17 1 0
BITMAP
03FD80
0F8780
1E0300
3C0100
380100
780000
700000
F00000
F00000
F01F80
F00F00
F00E00
F07FE0
787FE0
7C1C00
3E3C00
0FF000
ENDCHAR
STARTCHAR uni01E5
ENCODING 485
SWIDTH 500 0
DWIDTH 11 0
BBX 13 17 -1 -5
BITMAP
07C0
1EF8
1C60
3870
3870
38E0
1CC0
1F80
0C00
3800
3E00
1F80
FFF8
FFF8
E0E0
F1E0
3F80
ENDCHAR
STARTCHAR Gcaron
ENCODING 486
SWIDTH 722 0
DWIDTH 18 0
BBX 17 22 1 0
BITMAP
031C00
03B800
01E000
00C000
000000
03FD80
0F8780
1E0300
3C0100
380100
780000
700000
F00000
F00000
F01F80
F00F00
F00E00
F00E00
781E00
7C1C00
3E3C00
0FF000
ENDCHAR
STARTCHAR gcaron
ENCODING 487
SWIDTH 500 0
DWIDTH 11 0
BBX 13 22 -1 -5
BITMAP
0C70
0EE0
0780
0300
0000
07C0
1EF8
1C60
3870
3870
38E0
1CC0
1F80
0C00
3800
3E00
1F80
77C0
E1E0
E0E0
F1E0
3F80
ENDCHAR
STARTCHAR uni01E8
ENCODING 488
SWIDTH 667 0
DWIDTH 17 0
BBX 18 22 0 0
BITMAP
031C00
03B800
01E000
00C000
000000
0FCFC0
078780
078E00
071C00
0F3800
0F6000
0EC000
1F8000
1FC000
1FC000
3DE000
3DE000
38F000
78F000
787800
707C00
F8FF00
ENDCHAR
STARTCHAR uni01E9
ENCODING 489
SWIDTH 500 0
DWIDTH 13 0
BBX 13 23 0 0
BITMAP
18E0
1DC0
0F00
0600
0000
0F00
0700
0700
0E00
0E00
0E00
1CF8
1C60
38C0
3B80
3F00
7F00
7380
7380
7190
E1F0
E1E0
E0C0
ENDCHAR
STARTCHAR uni01EA
ENCODING 490
SWIDTH 722 0
DWIDTH 18 0
BBX 17 22 1 -5
BITMAP
00FC00
03DE00
0F0700
1E0780
1C0780
3C0380
780780
780780
F00780
F00F00
F00F00
E01E00
F01E00
F03C00
707800
3DF000
1FC000
018000
070000
070000
07F000
03C000
ENDCHAR
STARTCHAR uni01EB
ENCODING 491
SWIDTH 500 0
DWIDTH 12 0
BBX 11 17 0 -5
BITMAP
0F80
3DC0
78E0
70E0
E0E0
E0E0
E0E0
E1E0
E1C0
E3C0
7780
3E00
0600
1C00
1C00
1FC0
0F00
ENDCHAR
STARTCHAR uni01EC
ENCODING 492
SWIDTH 722 0
DWIDTH 18 0
BBX 17 25 1 -5
BITMAP
03F800
03F800
000000
00FC00
03DE00
0F0700
1E0780
1C0780
3C0380
780780
780780
F00780
F00F00
F00F00
E01E00
F01E00
F03C00
707800
3DF000
1FC000
018000
070000
070000
07F000
03C000
ENDCHAR
STARTCHAR uni01ED
ENCODING 493
SWIDTH 500 0
DWIDTH 12 0
BBX 11 20 0 -5
BITMAP
3F80
3F80
0000
0F80
3DC0
78E0
70E0
E0E0
E0E0
E0E0
E1E0
E1C0
E3C0
7780
3E00
0600
1C00
1C00
1FC0
0F00
ENDCHAR
STARTCHAR uni01F0
ENCODING 496
SWIDTH 278 0
DWIDTH 7 0
BBX 11 22 -3 -5
BITMAP
18E0
1DC0
0F00
0600
0000
0780
0380
0380
0300
0700
0700
0700
0700
0700
0600
0E00
0E00
0E00
0C00
DC00
F800
7000
ENDCHAR
STARTCHAR uni01F4
ENCODING 500
SWIDTH 722 0
DWIDTH 18 0
BBX 17 23 1 0
BITMAP
003800
007800
00F000
01C000
010000
000000
03FD80
0F8780
1E0300
3C0100
380100
780000
700000
F00000
F00000
F01F80
F00F00
F00E00
F00E00
781E00
7C1C00
3E3C00
0FF000
ENDCHAR
STARTCHAR uni01F5
ENCODING 501
SWIDTH 500 0
DWIDTH 11 0
BBX 13 23 -1 -5
BITMAP
00E0
01E0
03C0
0700
0400
0000
07C0
1EF8
1C60
3870
3870
38E0
1CC0
1F80
0C00
3800
3E00
1F80
77C0
E1E0
E0E0
F1E0
3F80
ENDCHAR
STARTCHAR uni01F8
ENCODING 504
SWIDTH 722 0
DWIDTH 18 0
BBX 21 23 -1 0
BITMAP
01C000
01E000
00F000
003800
000800
000000
0FC0F8
03C070
03C060
03E060
07E040
05F040
04F0C0
04F880
0C7880
0C7D80
083D00
183F00
181F00
101F00
300E00
700600
FC0600
ENDCHAR
STARTCHAR uni01F9
ENCODING 505
SWIDTH 556 0
DWIDTH 13 0
BBX 12 18 0 0
BITMAP
3800
3C00
1E00
0700
0100
0000
79C0
3BE0
3AE0
3CE0
38E0
71C0
71C0
71C0
71C0
E390
E3E0
E1C0
ENDCHAR
STARTCHAR Aringacute
ENCODING 506
SWIDTH 667 0
DWIDTH 16 0
BBX 17 28 -2 0
BITMAP
000380
000780
000F00
001C00
001000
000000
000700
000D80
000880
000D80
000700
000200
000600
000E00
001E00
003E00
006E00
00CE00
018E00
030E00
060E00
0FFE00
0FFE00
180E00
300E00
600E00
E00F00
F01F80
ENDCHAR
STARTCHAR aringacute
ENCODING 507
SWIDTH 500 0
DWIDTH 13 0
BBX 13 24 0 0
BITMAP
0070
00F0
01E0
0380
0200
0000
01C0
0360
0220
0360
01C0
0000
07B0
1EF0
3C70
38F0
70E0
71E0
E1C0
E1C0
E3C0
E7C8
FDF0
79E0
ENDCHAR
STARTCHAR AEacute
ENCODING 508
SWIDTH 944 0
DWIDTH 22 0
BBX 25 23 -2 0
BITMAP
0000E000
0001E000
0003C000
00070000
00040000
00000000
007FFF80
001F8380
00378100
00270100
006F0000
00CF0800
018E1800
011E3000
031FF000
061C7000
043C2000
0FFC2000
18380200
10780600
30780E00
70703C00
F8FFFC00
ENDCHAR
STARTCHAR aeacute
ENCODING 509
SWIDTH 722 0
DWIDTH 17 0
BBX 17 18 0 0
BITMAP
003800
007800
00F000
01C000
010000
000000
078F00
1EFF80
3C7380
38E300
70EE00
71F800
E1E000
E1E000
E3C000
E7E300
FCFE00
787800
ENDCHAR
STARTCHAR Oslashacute
ENCODING 510
SWIDTH 722 0
DWIDTH 18 0
BBX 17 27 1 -3
BITMAP
001C00
003C00
007800
00E000
008000
000000
000300
00FE00
03DE00
0F0F00
1E1F80
1C3780
3C6780
786780
78C780
F18780
F18F00
F30F00
F61E00
F61E00
FC3C00
787800
3DF000
7FC000
600000
C00000
800000
ENDCHAR
STARTCHAR oslashacute
ENCODING 511
SWIDTH 500 0
DWIDTH 13 0
BBX 11 23 1 -3
BITMAP
01C0
03C0
0780
0E00
0800
0000
0040
00C0
0F80
3DC0
7BE0
7360
E6E0
E6E0
ECE0
ECE0
D9C0
FBC0
7780
3E00
7000
6000
4000
ENDCHAR
STARTCHAR Scommaaccent
ENCODING 536
SWIDTH 556 0
DWIDTH 14 0
BBX 15 24 -1 -7
BITMAP
03F6
071E
0E0C
0E04
0E04
0F00
0F80
07C0
03E0
01F0
00F8
10F8
3078
3078
78F0
7DE0
EFC0
0000
0380
0380
0380
0180
0300
0600
ENDCHAR
STARTCHAR scommaaccent
ENCODING 537
SWIDTH 389 0
DWIDTH 10 0
BBX 9 19 0 -7
BITMAP
1F80
3980
3180
3800
3C00
1E00
0F00
0F00
C700
C700
EE00
BC00
0000
1C00
1C00
1C00
0C00
1800
3000
ENDCHAR
STARTCHAR Tcommaaccent
ENCODING 538
SWIDTH 611 0
DWIDTH 16 0
BBX 15 24 2 -7
BITMAP
7FFE
E3CE
C3C6
8384
0780
0780
0700
0F00
0F00
0E00
1E00
1E00
1C00
3C00
3C00
3800
FF00
0000
0E00
0E00
0E00
0600
0C00
1800
ENDCHAR
STARTCHAR tcommaaccent
ENCODING 539
SWIDTH 278 0
DWIDTH 8 0
BBX 7 22 1 -7
BITMAP
0E
0E
1C
7E
FE
38
38
70
70
70
70
E0
E4
F8
70
00
70
70
70
30
60
C0
ENDCHAR
STARTCHAR uni021E
ENCODING 542
SWIDTH 778 0
DWIDTH 19 0
BBX 21 22 -1 0
BITMAP
00C700
00EE00
007800
003000
000000
07E3F8
03C0E0
03C1E0
0381E0
0781C0
0783C0
0703C0
0F0380
0FFF80
0E0780
1E0700
1E0F00
1C0F00
3C0E00
3C0E00
381E00
FC3F00
ENDCHAR
STARTCHAR uni021F
ENCODING 543
SWIDTH 556 0
DWIDTH 13 0
BBX 12 23 0 0
BITMAP
31C0
3B80
1E00
0C00
0000
1E00
0E00
0E00
1C00
1C00
1C00
19C0
3BE0
3EE0
38E0
70E0
70C0
71C0
71C0
E180
E390
E3E0
E1C0
ENDCHAR
STARTCHAR uni0226
ENCODING 550
SWIDTH 667 0
DWIDTH 16 0
BBX 17 20 -2 0
BITMAP
001800
001800
000000
000200
000600
000E00
001E00
003E00
006E00
00CE00
018E00
030E00
060E00
0FFE00
0FFE00
180E00
300E00
600E00
E00F00
F01F80
ENDCHAR
STARTCHAR uni0227
ENCODING 551
SWIDTH 500 0
DWIDTH 13 0
BBX 13 15 0 0
BITMAP
0300
0300
0000
07B0
1EF0
3C70
38F0
70E0
70E0
E1C0
E1C0
E3C0
E7C8
FDF0
79E0
ENDCHAR
STARTCHAR uni0228
ENCODING 552
SWIDTH 667 0
DWIDTH 16 0
BBX 17 22 0 -5
BITMAP
0FFF80
078380
078100
070100
0F0000
0F0800
0E1800
1E3000
1FF000
1C7000
3C2000
3C2000
380200
780600
780E00
703C00
FFFC00
018000
01C000
08E000
0CE000
07C000
ENDCHAR
STARTCHAR uni0229
ENCODING 553
SWIDTH 444 0
DWIDTH 10 0
BBX 10 17 0 -5
BITMAP
0780
1FC0
39C0
7180
7700
FC00
F000
E000
E000
F180
7F00
3C00
1800
1C00
8E00
CE00
7C00
ENDCHAR
STARTCHAR uni022A
ENCODING 554
SWIDTH 722 0
DWIDTH 18 0
BBX 17 24 1 0
BITMAP
01FC00
01FC00
000000
006300
00E700
00C600
000000
00FC00
03DE00
0F0700
1E0780
1C0780
3C0380
780780
780780
F00780
F00F00
F00F00
E01E00
F01E00
F03C00
707800
3DF000
1FC000
ENDCHAR
STARTCHAR uni022B
ENCODING 555
SWIDTH 500 0
DWIDTH 12 0
BBX 11 19 0 0
BITMAP
1FC0
1FC0
0000
0C60
0C60
0000
0000
0F80
3DC0
78E0
70E0
E0E0
E0E0
E0E0
E0E0
E1C0
E3C0
7780
3E00
ENDCHAR
STARTCHAR uni022C
ENCODING 556
SWIDTH 722 0
DWIDTH 18 0
BBX 17 24 1 0
BITMAP
01FC00
01FC00
000000
007100
00FF00
008E00
000000
00FC00
03DE00
0F0700
1E0780
1C0780
3C0380
780780
780780
F00780
F00F00
F00F00
E01E00
F01E00
F03C00
707800
3DF000
1FC000
ENDCHAR
STARTCHAR uni022D
ENCODING 557
SWIDTH 500 0
DWIDTH 12 0
BBX 11 19 0 0
BITMAP
1FC0
1FC0
0000
0E20
1FE0
11C0
0000
0F80
3DC0
78E0
70E0
E0E0
E0E0
E0E0
E0E0
E1C0
E3C0
7780
3E00
ENDCHAR
STARTCHAR uni022E
ENCODING 558
SWIDTH 722 0
DWIDTH 18 0
BBX 17 20 1 0
BITMAP
006000
006000
000000
00FC00
03DE00
0F0700
1E0780
1C0780
3C0380
780780
780780
F00780
F00F00
F00F00
E01E00
F01E00
F03C00
707800
3DF000
1FC000
ENDCHAR
STARTCHAR uni022F
ENCODING 559
SWIDTH 500 0
DWIDTH 12 0
BBX 11 15 0 0
BITMAP
0600
0600
0000
0F80
3DC0
78E0
70E0
E0E0
E0E0
E0E0
E1E0
E1C0
E3C0
7780
3E00
ENDCHAR
STARTCHAR uni0230
ENCODING 560
SWIDTH 722 0
DWIDTH 18 0
BBX 17 23 1 0
BITMAP
03F800
03F800
000000
006000
006000
000000
00FC00
03DE00
0F0700
1E0780
1C0780
3C0380
780780
780780
F00780
F00F00
F00F00
E01E00
F01E00
F03C00
707800
3DF000
1FC000
ENDCHAR
STARTCHAR uni0231
ENCODING 561
SWIDTH 500 0
DWIDTH 12 0
BBX 11 18 0 0
BITMAP
1FC0
1FC0
0000
0600
0600
0000
0F80
3DC0
78E0
70E0
E0E0
E0E0
E0E0
E1E0
E1C0
E3C0
7780
3E00
ENDCHAR
STARTCHAR uni0232
ENCODING 562
SWIDTH 611 0
DWIDTH 14 0
BBX 15 20 2 0
BITMAP
1FC0
1FC0
0000
FC3E
781C
7818
3830
3C20
3C60
1CC0
1D80
1F00
0E00
1E00
1C00
1C00
1C00
3800
3C00
FF00
ENDCHAR
STARTCHAR uni0233
ENCODING 563
SWIDTH 444 0
DWIDTH 11 0
BBX 12 20 -2 -5
BITMAP
1FC0
1FC0
0000
3C70
1C70
1C70
1C60
0C60
0EC0
0EC0
0780
0780
0700
0300
0200
0600
0400
CC00
F800
7000
ENDCHAR
STARTCHAR uni0250
ENCODING 592
SWIDTH 500 0
DWIDTH 13 0
BBX 13 12 0 0
BITMAP
3CF0
7DF8
9F38
1E38
1C38
1C38
3870
3870
78E0
71E0
7BC0
6F00
ENDCHAR
STARTCHAR uni0259
ENCODING 601
SWIDTH 444 0
DWIDTH 10 0
BBX 10 12 0 0
BITMAP
0F00
3F80
63C0
01C0
01C0
03C0
0FC0
3B80
6380
E700
FE00
7800
ENDCHAR
STARTCHAR uni025F
ENCODING 607
SWIDTH 333 0
DWIDTH 8 0
BBX 16 23 -4 -11
BITMAP
001E
0037
0077
0070
00E0
00E0
00E0
00C0
01C0
01C0
01C0
0180
0380
0380
0380
1FE0
1FE0
0700
0700
0700
E600
EE00
7800
ENDCHAR
STARTCHAR uni0265
ENCODING 613
SWIDTH 556 0
DWIDTH 13 0
BBX 12 18 0 -6
BITMAP
3870
7C70
9C70
1870
38E0
38E0
30E0
70E0
71C0
77C0
7DC0
3980
0380
0380
0380
0700
0700
0780
ENDCHAR
STARTCHAR uni0275
ENCODING 629
SWIDTH 500 0
DWIDTH 12 0
BBX 11 12 0 0
BITMAP
0F80
3DC0
78E0
70E0
E0E0
FFE0
FFE0
E1E0
E1C0
E3C0
7780
3E00
ENDCHAR
STARTCHAR uni0279
ENCODING 633
SWIDTH 389 0
DWIDTH 10 0
BBX 10 12 0 0
BITMAP
01C0
01C0
01C0
0380
0380
0380
0780
0700
CF00
FB00
F700
6780
ENDCHAR
STARTCHAR uni0287
ENCODING 647
SWIDTH 278 0
DWIDTH 8 0
BBX 7 15 1 0
BITMAP
1C
3E
4E
0E
1C
1C
1C
1C
38
38
FE
FC
70
E0
E0
ENDCHAR
STARTCHAR uni0289
ENCODING 649
SWIDTH 556 0
DWIDTH 13 0
BBX 12 12 0 0
BITMAP
3C70
1C70
38E0
38E0
71E0
FFF0
FFF0
73C0
E780
ED90
F9E0
71C0
ENDCHAR
STARTCHAR uni028C
ENCODING 652
SWIDTH 444 0
DWIDTH 11 0
BBX 10 12 0 0
BITMAP
0300
0700
0F00
1F00
3700
2700
6700
4700
C380
E380
F380
63C0
ENDCHAR
STARTCHAR uni028D
ENCODING 653
SWIDTH 667 0
DWIDTH 16 0
BBX 16 12 0 0
BITMAP
030C
071C
0F1C
1F3C
177C
377C
23DC
63DC
C38E
C18E
F18E
718F
ENDCHAR
STARTCHAR uni028E
ENCODING 654
SWIDTH 444 0
DWIDTH 11 0
BBX 12 17 -2 0
BITMAP
00E0
01F0
0330
0200
0600
0400
0C00
0E00
1E00
1E00
3700
3700
6300
6380
E380
E380
E3C0
ENDCHAR
STARTCHAR uni029E
ENCODING 670
SWIDTH 500 0
DWIDTH 13 0
BBX 13 18 0 -6
BITMAP
1838
3C38
7C38
4C70
0E70
0E70
07F0
07E0
0EE0
18E0
31C0
F9C0
0380
0380
0380
0700
0700
0780
ENDCHAR
STARTCHAR uni02BB
ENCODING 699
SWIDTH 333 0
DWIDTH 8 0
BBX 4 6 4 11
BITMAP
30
60
C0
E0
E0
E0
ENDCHAR
STARTCHAR afii57929
ENCODING 700
SWIDTH 333 0
DWIDTH 8 0
BBX 4 6 3 11
BITMAP
70
70
70
30
60
C0
ENDCHAR
STARTCHAR afii64937
ENCODING 701
SWIDTH 333 0
DWIDTH 8 0
BBX 4 6 3 11
BITMAP
E0
E0
E0
C0
60
30
ENDCHAR
STARTCHAR circumflex
ENCODING 710
SWIDTH 333 0
DWIDTH 8 0
BBX 8 4 1 13
BITMAP
0C
1E
77
E3
ENDCHAR
STARTCHAR caron
ENCODING 711
SWIDTH 333 0
DWIDTH 9 0
BBX 8 4 2 13
BITMAP
C7
EE
78
30
ENDCHAR
STARTCHAR uni02C8
ENCODING 712
SWIDTH 278 0
DWIDTH 7 0
BBX 3 6 3 11
BITMAP
60
E0
E0
C0
C0
80
ENDCHAR
STARTCHAR macron
ENCODING 713
SWIDTH 333 0
DWIDTH 8 0
BBX 7 2 2 14
BITMAP
FE
FE
ENDCHAR
STARTCHAR uni02CA
ENCODING 714
SWIDTH 333 0
DWIDTH 7 0
BBX 6 5 2 12
BITMAP
1C
3C
78
E0
80
ENDCHAR
STARTCHAR uni02CB
ENCODING 715
SWIDTH 333 0
DWIDTH 7 0
BBX 6 5 2 12
BITMAP
E0
F0
78
1C
04
ENDCHAR
STARTCHAR uni02CD
ENCODING 717
SWIDTH 333 0
DWIDTH 8 0
BBX 7 2 2 -3
BITMAP
FE
FE
ENDCHAR
STARTCHAR uni02CE
ENCODING 718
SWIDTH 333 0
DWIDTH 7 0
BBX 6 5 2 -6
BITMAP
E0
F0
78
1C
04
ENDCHAR
STARTCHAR uni02CF
ENCODING 719
SWIDTH 333 0
DWIDTH 7 0
BBX 6 5 2 -6
BITMAP
1C
3C
78
E0
80
ENDCHAR
STARTCHAR breve
ENCODING 728
SWIDTH 333 0
DWIDTH 9 0
BBX 8 4 2 13
BITMAP
C3
C3
7E
3C
ENDCHAR
STARTCHAR dotaccent
ENCODING 729
SWIDTH 333 0
DWIDTH 6 0
BBX 2 2 4 14
BITMAP
C0
C0
ENDCHAR
STARTCHAR ring
ENCODING 730
SWIDTH 333 0
DWIDTH 7 0
BBX 5 5 3 13
BITMAP
70
D8
88
D8
70
ENDCHAR
STARTCHAR ogonek
ENCODING 731
SWIDTH 333 0
DWIDTH 9 0
BBX 7 5 0 -5
BITMAP
30
E0
E0
FE
78
ENDCHAR
STARTCHAR tilde
ENCODING 732
SWIDTH 333 0
DWIDTH 8 0
BBX 8 3 2 14
BITMAP
71
FF
8E
ENDCHAR
STARTCHAR hungarumlaut
ENCODING 733
SWIDTH 333 0
DWIDTH 9 0
BBX 7 4 2 13
BITMAP
66
66
CC
CC
ENDCHAR
STARTCHAR uni02EE
ENCODING 750
SWIDTH 500 0
DWIDTH 12 0
BBX 9 6 2 11
BITMAP
7380
7380
7380
3180
6300
C600
ENDCHAR
STARTCHAR uni037E
ENCODING 894
SWIDTH 333 0
DWIDTH 8 0
BBX 6 14 0 -3
BITMAP
1C
1C
1C
00
00
00
00
00
70
70
70
30
60
C0
ENDCHAR
STARTCHAR tonos
ENCODING 900
SWIDTH 333 0
DWIDTH 7 0
BBX 6 5 2 12
BITMAP
1C
3C
78
E0
80
ENDCHAR
STARTCHAR dieresistonos
ENCODING 901
SWIDTH 333 0
DWIDTH 9 0
BBX 8 8 3 14
BITMAP
07
0F
1E
38
20
00
C6
C6
ENDCHAR
STARTCHAR anoteleia
ENCODING 903
SWIDTH 250 0
DWIDTH 7 0
BBX 3 3 2 5
BITMAP
E0
E0
E0
ENDCHAR
STARTCHAR mu
ENCODING 956
SWIDTH 576 0
DWIDTH 13 0
BBX 14 17 -2 -5
BITMAP
0F1C
071C
0E38
0E38
1C78
1CF0
1CB0
1CB0
39B0
3B64
3E78
7C70
6000
4000
E000
F000
6000
ENDCHAR
STARTCHAR uni1E00
ENCODING 7680
SWIDTH 667 0
DWIDTH 16 0
BBX 17 23 -2 -6
BITMAP
000200
000600
000E00
001E00
003E00
006E00
00CE00
018E00
030E00
060E00
0FFE00
0FFE00
180E00
300E00
600E00
E00F00
F01F80
000000
01C000
036000
022000
036000
01C000
ENDCHAR
STARTCHAR uni1E01
ENCODING 7681
SWIDTH 500 0
DWIDTH 13 0
BBX 13 18 0 -6
BITMAP
07B0
1EF0
3C70
38F0
70E0
70E0
E1C0
E1C0
E3C0
E7C8
FDF0
79E0
0000
0700
0D80
0880
0D80
0700
ENDCHAR
STARTCHAR uni1E02
ENCODING 7682
SWIDTH 667 0
DWIDTH 16 0
BBX 15 20 0 0
BITMAP
00C0
00C0
0000
0FF8
079C
078E
070E
0F0E
0F0E
0E1C
1FF8
1E60
1C38
3C1C
3C1C
381C
783C
7878
71F0
FFC0
ENDCHAR
STARTCHAR uni1E03
ENCODING 7683
SWIDTH 500 0
DWIDTH 12 0
BBX 12 21 0 0
BITMAP
0C00
0C00
0000
1E00
0E00
0C00
1C00
1C00
1800
39E0
3BF0
3E70
7870
7070
7070
F0F0
E0E0
E1E0
E1C0
E780
7E00
ENDCHAR
STARTCHAR uni1E04
ENCODING 7684
SWIDTH 667 0
DWIDTH 16 0
BBX 15 20 0 -3
BITMAP
0FF8
079C
078E
070E
0F0E
0F0E
0E1C
1FF8
1E60
1C38
3C1C
3C1C
381C
783C
7878
71F0
FFC0
0000
0300
0300
ENDCHAR
STARTCHAR uni1E05
ENCODING 7685
SWIDTH 500 0
DWIDTH 12 0
BBX 12 21 0 -3
BITMAP
1E00
0E00
0C00
1C00
1C00
1800
39E0
3BF0
3E70
7870
7070
7070
F0F0
E0E0
E1E0
E1C0
E780
7E00
0000
0C00
0C00
ENDCHAR
STARTCHAR uni1E06
ENCODING 7686
SWIDTH 667 0
DWIDTH 16 0
BBX 15 20 0 -3
BITMAP
0FF8
079C
078E
070E
0F0E
0F0E
0E1C
1FF8
1E60
1C38
3C1C
3C1C
381C
783C
7878
71F0
FFC0
0000
1FC0
1FC0
ENDCHAR
STARTCHAR uni1E07
ENCODING 7687
SWIDTH 500 0
DWIDTH 12 0
BBX 12 21 0 -3
BITMAP
1E00
0E00
0C00
1C00
1C00
1800
39E0
3BF0
3E70
7870
7070
7070
F0F0
E0E0
E1E0
E1C0
E780
7E00
0000
3F80
3F80
ENDCHAR
STARTCHAR uni1E08
ENCODING 7688
SWIDTH 667 0
DWIDTH 16 0
BBX 16 28 0 -5
BITMAP
0070
00F0
01E0
0380
0200
0000
03FB
0F8F
1E06
3C02
3802
7800
7000
F000
F000
F000
F000
F000
F000
7806
7C1C
3FF8
0FE0
0180
01C0
08E0
0CE0
07C0
ENDCHAR
STARTCHAR uni1E09
ENCODING 7689
SWIDTH 444 0
DWIDTH 11 0
BBX 10 23 0 -5
BITMAP
0380
0780
0F00
1C00
1000
0000
0F80
3DC0
79C0
7000
F000
E000
E000
E000
E000
E180
7700
3E00
0C00
0E00
4700
6700
3E00
ENDCHAR
STARTCHAR uni1E0A
ENCODING 7690
SWIDTH 722 0
DWIDTH 19 0
BBX 18 20 0 0
BITMAP
006000
006000
000000
0FF800
079F00
078780
070780
0F03C0
0F03C0
0E03C0
1E03C0
1E03C0
1C03C0
3C0780
3C0780
380F00
781E00
783C00
70F800
FFC000
ENDCHAR
STARTCHAR uni1E0B
ENCODING 7691
SWIDTH 500 0
DWIDTH 13 0
BBX 14 21 0 0
BITMAP
0060
0060
0000
003C
001C
001C
0038
0038
0038
07B0
1EF0
3870
7070
70E0
E0E0
E1E0
E1C0
E3C0
F6E4
FEF8
7870
ENDCHAR
STARTCHAR uni1E0C
ENCODING 7692
SWIDTH 722 0
DWIDTH 19 0
BBX 18 20 0 -3
BITMAP
0FF800
079F00
078780
070780
0F03C0
0F03C0
0E03C0
1E03C0
1E03C0
1C03C0
3C0780
3C0780
380F00
781E00
783C00
70F800
FFC000
000000
018000
018000
ENDCHAR
STARTCHAR uni1E0D
ENCODING 7693
SWIDTH 500 0
DWIDTH 13 0
BBX 14 21 0 -3
BITMAP
003C
001C
001C
0038
0038
0038
07B0
1EF0
3870
7070
70E0
E0E0
E1E0
E1C0
E3C0
F6E4
FEF8
7870
0000
0600
0600
ENDCHAR
STARTCHAR uni1E0E
ENCODING 7694
SWIDTH 722 0
DWIDTH 19 0
BBX 18 20 0 -3
BITMAP
0FF800
079F00
078780
070780
0F03C0
0F03C0
0E03C0
1E03C0
1E03C0
1C03C0
3C0780
3C0780
380F00
781E00
783C00
70F800
FFC000
000000
0FE000
0FE000
ENDCHAR
STARTCHAR uni1E0F
ENCODING 7695
SWIDTH 500 0
DWIDTH 13 0
BBX 14 21 0 -3
BITMAP
003C
001C
001C
0038
0038
0038
07B0
1EF0
3870
7070
70E0
E0E0
E1E0
E1C0
E3C0
F6E4
FEF8
7870
0000
1FC0
1FC0
ENDCHAR
STARTCHAR uni1E10
ENCODING 7696
SWIDTH 722 0
DWIDTH 19 0
BBX 18 22 0 -5
BITMAP
0FF800
079F00
078780
070780
0F03C0
0F03C0
0E03C0
1E03C0
1E03C0
1C03C0
3C0780
3C0780
380F00
781E00
783C00
70F800
FFC000
018000
01C000
08E000
0CE000
07C000
ENDCHAR
STARTCHAR uni1E11
ENCODING 7697
SWIDTH 500 0
DWIDTH 13 0
BBX 14 23 0 -5
BITMAP
003C
001C
001C
0038
0038
0038
07B0
1EF0
3870
7070
70E0
E0E0
E1E0
E1C0
E3C0
F6E4
FEF8
7870
0600
0700
2380
3380
1F00
ENDCHAR
STARTCHAR uni1E12
ENCODING 7698
SWIDTH 722 0
DWIDTH 19 0
BBX 18 22 0 -5
BITMAP
0FF800
079F00
078780
070780
0F03C0
0F03C0
0E03C0
1E03C0
1E03C0
1C03C0
3C0780
3C0780
380F00
781E00
783C00
70F800
FFC000
000000
018000
03C000
0EE000
1C6000
ENDCHAR
STARTCHAR uni1E13
ENCODING 7699
SWIDTH 500 0
DWIDTH 13 0
BBX 14 23 0 -5
BITMAP
003C
001C
001C
0038
0038
0038
07B0
1EF0
3870
7070
70E0
E0E0
E1E0
E1C0
E3C0
F6E4
FEF8
7870
0000
0300
0780
1DC0
38C0
ENDCHAR
STARTCHAR uni1E14
ENCODING 7700
SWIDTH 667 0
DWIDTH 16 0
BBX 17 26 0 0
BITMAP
070000
078000
03C000
00E000
002000
000000
03F800
03F800
000000
0FFF80
078380
078100
070100
0F0000
0F0800
0E1800
1E3000
1FF000
1C7000
3C2000
3C2000
380200
780600
780E00
703C00
FFFC00
ENDCHAR
STARTCHAR uni1E15
ENCODING 7701
SWIDTH 444 0
DWIDTH 10 0
BBX 10 21 0 0
BITMAP
7000
7800
3C00
0E00
0200
0000
3F80
3F80
0000
0780
1FC0
39C0
7180
7700
FC00
F000
E000
E000
F180
7F00
3C00
ENDCHAR
STARTCHAR uni1E16
ENCODING 7702
SWIDTH 667 0
DWIDTH 16 0
BBX 17 26 0 0
BITMAP
001C00
003C00
007800
00E000
008000
000000
03F800
03F800
000000
0FFF80
078380
078100
070100
0F0000
0F0800
0E1800
1E3000
1FF000
1C7000
3C2000
3C2000
380200
780600
780E00
703C00
FFFC00
ENDCHAR
STARTCHAR uni1E17
ENCODING 7703
SWIDTH 444 0
DWIDTH 10 0
BBX 10 21 0 0
BITMAP
01C0
03C0
0780
0E00
0800
0000
3F80
3F80
0000
0780
1FC0
39C0
7180
7700
FC00
F000
E000
E000
F180
7F00
3C00
ENDCHAR
STARTCHAR uni1E18
ENCODING 7704
SWIDTH 667 0
DWIDTH 16 0
BBX 17 22 0 -5
BITMAP
0FFF80
078380
078100
070100
0F0000
0F0800
0E1800
1E3000
1FF000
1C7000
3C2000
3C2000
380200
780600
780E00
703C00
FFFC00
000000
018000
03C000
0EE000
1C6000
ENDCHAR
STARTCHAR uni1E19
ENCODING 7705
SWIDTH 444 0
DWIDTH 10 0
BBX 10 17 0 -5
BITMAP
0780
1FC0
39C0
7180
7700
FC00
F000
E000
E000
F180
7F00
3C00
0000
0C00
1E00
7700
E300
ENDCHAR
STARTCHAR uni1E1A
ENCODING 7706
SWIDTH 667 0
DWIDTH 16 0
BBX 17 21 0 -4
BITMAP
0FFF80
078380
078100
070100
0F0000
0F0800
0E1800
1E3000
1FF000
1C7000
3C2000
3C2000
380200
780600
780E00
703C00
FFFC00
000000
071000
0FF000
08E000
ENDCHAR
STARTCHAR uni1E1B
ENCODING 7707
SWIDTH 444 0
DWIDTH 10 0
BBX 10 16 0 -4
BITMAP
0780
1FC0
39C0
7180
7700
FC00
F000
E000
E000
F180
7F00
3C00
0000
7100
FF00
8E00
ENDCHAR
STARTCHAR uni1E1C
ENCODING 7708
SWIDTH 667 0
DWIDTH 16 0
BBX 17 27 0 -5
BITMAP
061800
061800
03F000
01E000
000000
0FFF80
078380
078100
070100
0F0000
0F0800
0E1800
1E3000
1FF000
1C7000
3C2000
3C2000
380200
780600
780E00
703C00
FFFC00
018000
01C000
08E000
0CE000
07C000
ENDCHAR
STARTCHAR uni1E1D
ENCODING 7709
SWIDTH 444 0
DWIDTH 10 0
BBX 10 22 0 -5
BITMAP
6180
6180
3F00
1E00
0000
0780
1FC0
39C0
7180
7700
FC00
F000
E000
E000
F180
7F00
3C00
1800
1C00
8E00
CE00
7C00
ENDCHAR
STARTCHAR uni1E1E
ENCODING 7710
SWIDTH 667 0
DWIDTH 16 0
BBX 17 20 0 0
BITMAP
00C000
00C000
000000
0FFF80
078380
078100
070100
0F0000
0F0800
0E1800
1E3000
1FF000
1C7000
3C2000
3C2000
380000
780000
780000
700000
F80000
ENDCHAR
STARTCHAR uni1E1F
ENCODING 7711
SWIDTH 333 0
DWIDTH 8 0
BBX 16 26 -4 -5
BITMAP
0060
0060
0000
001E
0077
0067
00E0
00E0
00E0
07F8
07F8
01C0
01C0
01C0
0180
0380
0380
0380
0300
0700
0700
0700
0E00
EE00
EC00
7800
ENDCHAR
STARTCHAR uni1E20
ENCODING 7712
SWIDTH 722 0
DWIDTH 18 0
BBX 17 20 1 0
BITMAP
07F000
07F000
000000
03FD80
0F8780
1E0300
3C0100
380100
780000
700000
F00000
F00000
F01F80
F00F00
F00E00
F00E00
781E00
7C1C00
3E3C00
0FF000
ENDCHAR
STARTCHAR uni1E21
ENCODING 7713
SWIDTH 500 0
DWIDTH 11 0
BBX 13 20 -1 -5
BITMAP
0FE0
0FE0
0000
07C0
1EF8
1C60
3870
3870
38E0
1CC0
1F80
0C00
3800
3E00
1F80
77C0
E1E0
E0E0
F1E0
3F80
ENDCHAR
STARTCHAR uni1E22
ENCODING 7714
SWIDTH 778 0
DWIDTH 19 0
BBX 21 20 -1 0
BITMAP
001800
001800
000000
07E3F8
03C0E0
03C1E0
0381E0
0781C0
0783C0
0703C0
0F0380
0FFF80
0E0780
1E0700
1E0F00
1C0F00
3C0E00
3C0E00
381E00
FC3F00
ENDCHAR
STARTCHAR uni1E23
ENCODING 7715
SWIDTH 556 0
DWIDTH 13 0
BBX 12 21 0 0
BITMAP
0C00
0C00
0000
1E00
0E00
0E00
1C00
1C00
1C00
19C0
3BE0
3EE0
38E0
70E0
70C0
71C0
71C0
E180
E390
E3E0
E1C0
ENDCHAR
STARTCHAR uni1E24
ENCODING 7716
SWIDTH 778 0
DWIDTH 19 0
BBX 21 20 -1 -3
BITMAP
07E3F8
03C0E0
03C1E0
0381E0
0781C0
0783C0
0703C0
0F0380
0FFF80
0E0780
1E0700
1E0F00
1C0F00
3C0E00
3C0E00
381E00
FC3F00
000000
00C000
00C000
ENDCHAR
STARTCHAR uni1E25
ENCODING 7717
SWIDTH 556 0
DWIDTH 13 0
BBX 12 21 0 -3
BITMAP
1E00
0E00
0E00
1C00
1C00
1C00
19C0
3BE0
3EE0
38E0
70E0
70C0
71C0
71C0
E180
E390
E3E0
E1C0
0000
0600
0600
ENDCHAR
STARTCHAR uni1E26
ENCODING 7718
SWIDTH 778 0
DWIDTH 19 0
BBX 21 20 -1 0
BITMAP
00C600
00C600
000000
07E3F8
03C0E0
03C1E0
0381E0
0781C0
0783C0
0703C0
0F0380
0FFF80
0E0780
1E0700
1E0F00
1C0F00
3C0E00
3C0E00
381E00
FC3F00
ENDCHAR
STARTCHAR uni1E27
ENCODING 7719
SWIDTH 556 0
DWIDTH 13 0
BBX 12 21 0 0
BITMAP
3180
3180
0000
1E00
0E00
0E00
1C00
1C00
1C00
19C0
3BE0
3EE0
38E0
70E0
70C0
71C0
71C0
E180
E390
E3E0
E1C0
ENDCHAR
STARTCHAR uni1E28
ENCODING 7720
SWIDTH 778 0
DWIDTH 19 0
BBX 21 22 -1 -5
BITMAP
07E3F8
03C0E0
03C1E0
0381E0
0781C0
0783C0
0703C0
0F0380
0FFF80
0E0780
1E0700
1E0F00
1C0F00
3C0E00
3C0E00
381E00
FC3F00
00C000
00E000
047000
067000
03E000
ENDCHAR
STARTCHAR uni1E29
ENCODING 7721
SWIDTH 556 0
DWIDTH 13 0
BBX 12 23 0 -5
BITMAP
1E00
0E00
0E00
1C00
1C00
1C00
19C0
3BE0
3EE0
38E0
70E0
70C0
71C0
71C0
E180
E390
E3E0
E1C0
0C00
0E00
4700
6700
3E00
ENDCHAR
STARTCHAR uni1E2A
ENCODING 7722
SWIDTH 778 0
DWIDTH 19 0
BBX 21 22 -1 -5
BITMAP
07E3F8
03C0E0
03C1E0
0381E0
0781C0
0783C0
0703C0
0F0380
0FFF80
0E0780
1E0700
1E0F00
1C0F00
3C0E00
3C0E00
381E00
FC3F00
000000
061800
061800
03F000
01E000
ENDCHAR
STARTCHAR uni1E2B
ENCODING 7723
SWIDTH 556 0
DWIDTH 13 0
BBX 12 23 0 -5
BITMAP
1E00
0E00
0E00
1C00
1C00
1C00
19C0
3BE0
3EE0
38E0
70E0
70C0
71C0
71C0
E180
E390
E3E0
E1C0
0000
30C0
30C0
1F80
0F00
ENDCHAR
STARTCHAR uni1E2C
ENCODING 7724
SWIDTH 389 0
DWIDTH 10 0
BBX 10 21 0 -4
BITMAP
0FC0
0780
0780
0700
0F00
0F00
0E00
1E00
1E00
1C00
3C00
3C00
3800
7800
7800
7000
F800
0000
7100
FF00
8E00
ENDCHAR
STARTCHAR uni1E2D
ENCODING 7725
SWIDTH 278 0
DWIDTH 7 0
BBX 8 22 -1 -4
BITMAP
07
07
06
00
00
00
1E
0E
0E
1C
1C
1C
38
38
38
7A
7C
38
00
71
FF
8E
ENDCHAR
STARTCHAR uni1E2E
ENCODING 7726
SWIDTH 389 0
DWIDTH 10 0
BBX 13 27 0 0
BITMAP
0070
00F0
01E0
0380
0200
0000
0318
0738
0630
0000
0FC0
0780
0780
0700
0F00
0F00
0E00
1E00
1E00
1C00
3C00
3C00
3800
7800
7800
7000
F800
ENDCHAR
STARTCHAR uni1E2F
ENCODING 7727
SWIDTH 278 0
DWIDTH 7 0
BBX 9 22 0 0
BITMAP
0380
0780
0F00
1C00
1000
0000
3300
3300
0000
0000
3C00
1C00
1C00
3800
3800
3800
7000
7000
7000
F400
F800
7000
ENDCHAR
STARTCHAR uni1E30
ENCODING 7728
SWIDTH 667 0
DWIDTH 17 0
BBX 18 23 0 0
BITMAP
001C00
003C00
007800
00E000
008000
000000
0FCFC0
078780
078E00
071C00
0F3800
0F6000
0EC000
1F8000
1FC000
1FC000
3DE000
3DE000
38F000
78F000
787800
707C00
F8FF00
ENDCHAR
STARTCHAR uni1E31
ENCODING 7729
SWIDTH 500 0
DWIDTH 13 0
BBX 13 24 0 0
BITMAP
01C0
03C0
0780
0E00
0800
0000
0F00
0700
0700
0E00
0E00
0E00
1CF8
1C60
38C0
3B80
3F00
7F00
7380
7380
7190
E1F0
E1E0
E0C0
ENDCHAR
STARTCHAR uni1E32
ENCODING 7730
SWIDTH 667 0
DWIDTH 17 0
BBX 18 20 0 -3
BITMAP
0FCFC0
078780
078E00
071C00
0F3800
0F6000
0EC000
1F8000
1FC000
1FC000
3DE000
3DE000
38F000
78F000
787800
707C00
F8FF00
000000
018000
018000
ENDCHAR
STARTCHAR uni1E33
ENCODING 7731
SWIDTH 500 0
DWIDTH 13 0
BBX 13 21 0 -3
BITMAP
0F00
0700
0700
0E00
0E00
0E00
1CF8
1C60
38C0
3B80
3F00
7F00
7380
7380
7190
E1F0
E1E0
E0C0
0000
0600
0600
ENDCHAR
STARTCHAR uni1E34
ENCODING 7732
SWIDTH 667 0
DWIDTH 17 0
BBX 18 20 0 -3
BITMAP
0FCFC0
078780
078E00
071C00
0F3800
0F6000
0EC000
1F8000
1FC000
1FC000
3DE000
3DE000
38F000
78F000
787800
707C00
F8FF00
000000
07F000
07F000
ENDCHAR
STARTCHAR uni1E35
ENCODING 7733
SWIDTH 500 0
DWIDTH 13 0
BBX 13 21 0 -3
BITMAP
0F00
0700
0700
0E00
0E00
0E00
1CF8
1C60
38C0
3B80
3F00
7F00
7380
7380
7190
E1F0
E1E0
E0C0
0000
3F80
3F80
ENDCHAR
STARTCHAR uni1E36
ENCODING 7734
SWIDTH 611 0
DWIDTH 15 0
BBX 14 20 0 -3
BITMAP
0FC0
0780
0780
0700
0F00
0F00
0E00
1E00
1E00
1C00
3C00
3C00
3804
780C
781C
7C78
FFF8
0000
0300
0300
ENDCHAR
STARTCHAR uni1E37
ENCODING 7735
SWIDTH 278 0
DWIDTH 7 0
BBX 7 21 1 -3
BITMAP
1E
0E
0E
1C
1C
1C
38
38
38
70
70
70
70
70
E0
E4
F8
70
00
30
30
ENDCHAR
STARTCHAR uni1E38
ENCODING 7736
SWIDTH 611 0
DWIDTH 15 0
BBX 14 23 0 -3
BITMAP
1FC0
1FC0
0000
0FC0
0780
0780
0700
0F00
0F00
0E00
1E00
1E00
1C00
3C00
3C00
3804
780C
781C
7C78
FFF8
0000
0300
0300
ENDCHAR
STARTCHAR uni1E39
ENCODING 7737
SWIDTH 278 0
DWIDTH 7 0
BBX 8 24 1 -3
BITMAP
7F
7F
00
1E
0E
0E
1C
1C
1C
38
38
38
70
70
70
70
70
E0
E4
F8
70
00
30
30
ENDCHAR
STARTCHAR uni1E3A
ENCODING 7738
SWIDTH 611 0
DWIDTH 15 0
BBX 14 20 0 -3
BITMAP
0FC0
0780
0780
0700
0F00
0F00
0E00
1E00
1E00
1C00
3C00
3C00
3804
780C
781C
7C78
FFF8
0000
1FC0
1FC0
ENDCHAR
STARTCHAR uni1E3B
ENCODING 7739
SWIDTH 278 0
DWIDTH 7 0
BBX 8 21 0 -3
BITMAP
0F
07
07
0E
0E
0E
1C
1C
1C
38
38
38
38
38
70
72
7C
38
00
FE
FE
ENDCHAR
STARTCHAR uni1E3C
ENCODING 7740
SWIDTH 611 0
DWIDTH 15 0
BBX 14 22 0 -5
BITMAP
0FC0
0780
0780
0700
0F00
0F00
0E00
1E00
1E00
1C00
3C00
3C00
3804
780C
781C
7C78
FFF8
0000
0300
0780
1DC0
38C0
ENDCHAR
STARTCHAR uni1E3D
ENCODING 7741
SWIDTH 278 0
DWIDTH 7 0
BBX 9 23 -1 -5
BITMAP
0780
0380
0380
0700
0700
0700
0E00
0E00
0E00
1C00
1C00
1C00
1C00
1C00
3800
3900
3E00
1C00
0000
0C00
1E00
7700
E300
ENDCHAR
STARTCHAR uni1E3E
ENCODING 7742
SWIDTH 889 0
DWIDTH 22 0
BBX 22 23 0 0
BITMAP
000700
000F00
001E00
003800
002000
000000
0F807C
0780F8
0780F8
0781F0
0F83F0
0FC3F0
0BC6E0
0BCCE0
1BC9E0
13D9E0
11F1C0
11F3C0
31E3C0
31C3C0
21C380
7087C0
FC9FE0
ENDCHAR
STARTCHAR uni1E3F
ENCODING 7743
SWIDTH 778 0
DWIDTH 19 0
BBX 19 18 0 0
BITMAP
003800
007800
00F000
01C000
010000
000000
79C700
3BEF80
3AEB80
3CF380
38E380
70C380
70C300
70C300
71C700
E1C720
E1C7C0
E1C380
ENDCHAR
STARTCHAR uni1E40
ENCODING 7744
SWIDTH 889 0
DWIDTH 22 0
BBX 22 20 0 0
BITMAP
001800
001800
000000
0F807C
0780F8
0780F8
0781F0
0F83F0
0FC3F0
0BC6E0
0BCCE0
1BC9E0
13D9E0
11F1C0
11F3C0
31E3C0
31C3C0
21C380
7087C0
FC9FE0
ENDCHAR
STARTCHAR uni1E41
ENCODING 7745
SWIDTH 778 0
DWIDTH 19 0
BBX 19 15 0 0
BITMAP
00C000
00C000
000000
79C700
3BEF80
3AEB80
3CF380
38E380
70C380
70C300
70C300
71C700
E1C720
E1C7C0
E1C380
ENDCHAR
STARTCHAR uni1E42
ENCODING 7746
SWIDTH 889 0
DWIDTH 22 0
BBX 22 20 0 -3
BITMAP
0F807C
0780F8
0780F8
0781F0
0F83F0
0FC3F0
0BC6E0
0BCCE0
1BC9E0
13D9E0
11F1C0
11F3C0
31E3C0
31C3C0
21C380
7087C0
FC9FE0
000000
003000
003000
ENDCHAR
STARTCHAR uni1E43
ENCODING 7747
SWIDTH 778 0
DWIDTH 19 0
BBX 19 15 0 -3
BITMAP
79C700
3BEF80
3AEB80
3CF380
38E380
70C380
70C300
70C300
71C700
E1C720
E1C7C0
E1C380
000000
00C000
00C000
ENDCHAR
STARTCHAR uni1E44
ENCODING 7748
SWIDTH 722 0
DWIDTH 18 0
BBX 21 20 -1 0
BITMAP
003000
003000
000000
0FC0F8
03C070
03C060
03E060
07E040
05F040
04F0C0
04F880
0C7880
0C7D80
083D00
183F00
181F00
101F00
300E00
700600
FC0600
ENDCHAR
STARTCHAR uni1E45
ENCODING 7749
SWIDTH 556 0
DWIDTH 13 0
BBX 12 15 0 0
BITMAP
0600
0600
0000
79C0
3BE0
3AE0
3CE0
38E0
71C0
71C0
71C0
71C0
E390
E3E0
E1C0
ENDCHAR
STARTCHAR uni1E46
ENCODING 7750
SWIDTH 722 0
DWIDTH 18 0
BBX 21 20 -1 -3
BITMAP
0FC0F8
03C070
03C060
03E060
07E040
05F040
04F0C0
04F880
0C7880
0C7D80
083D00
183F00
181F00
101F00
300E00
700600
FC0600
000000
00C000
00C000
ENDCHAR
STARTCHAR uni1E47
ENCODING 7751
SWIDTH 556 0
DWIDTH 13 0
BBX 12 15 0 -3
BITMAP
79C0
3BE0
3AE0
3CE0
38E0
71C0
71C0
71C0
71C0
E390
E3E0
E1C0
0000
0600
0600
ENDCHAR
STARTCHAR uni1E48
ENCODING 7752
SWIDTH 722 0
DWIDTH 18 0
BBX 21 20 -1 -3
BITMAP
0FC0F8
03C070
03C060
03E060
07E040
05F040
04F0C0
04F880
0C7880
0C7D80
083D00
183F00
181F00
101F00
300E00
700600
FC0600
000000
03F800
03F800
ENDCHAR
STARTCHAR uni1E49
ENCODING 7753
SWIDTH 556 0
DWIDTH 13 0
BBX 12 15 0 -3
BITMAP
79C0
3BE0
3AE0
3CE0
38E0
71C0
71C0
71C0
71C0
E390
E3E0
E1C0
0000
3F80
3F80
ENDCHAR
STARTCHAR uni1E4A
ENCODING 7754
SWIDTH 722 0
DWIDTH 18 0
BBX 21 22 -1 -5
BITMAP
0FC0F8
03C070
03C060
03E060
07E040
05F040
04F0C0
04F880
0C7880
0C7D80
083D00
183F00
181F00
101F00
300E00
700600
FC0600
000000
006000
00F000
03B800
071800
ENDCHAR
STARTCHAR uni1E4B
ENCODING 7755
SWIDTH 556 0
DWIDTH 13 0
BBX 12 17 0 -5
BITMAP
79C0
3BE0
3AE0
3CE0
38E0
71C0
71C0
71C0
71C0
E390
E3E0
E1C0
0000
0600
0F00
3B80
7180
ENDCHAR
STARTCHAR uni1E4C
ENCODING 7756
SWIDTH 722 0
DWIDTH 18 0
BBX 17 27 1 0
BITMAP
000E00
001E00
003C00
007000
004000
000000
007100
00FF00
008E00
000000
00FC00
03DE00
0F0700
1E0780
1C0780
3C0380
780780
780780
F00780
F00F00
F00F00
E01E00
F01E00
F03C00
707800
3DF000
1FC000
ENDCHAR
STARTCHAR uni1E4D
ENCODING 7757
SWIDTH 500 0
DWIDTH 12 0
BBX 11 22 0 0
BITMAP
00E0
01E0
03C0
0700
0400
0000
0E20
1FE0
11C0
0000
0F80
3DC0
78E0
70E0
E0E0
E0E0
E0E0
E0E0
E1C0
E3C0
7780
3E00
ENDCHAR
STARTCHAR uni1E4E
ENCODING 7758
SWIDTH 722 0
DWIDTH 18 0
BBX 17 24 1 0
BITMAP
018C00
018C00
000000
007100
00FF00
008E00
000000
00FC00
03DE00
0F0700
1E0780
1C0780
3C0380
780780
780780
F00780
F00F00
F00F00
E01E00
F01E00
F03C00
707800
3DF000
1FC000
ENDCHAR
STARTCHAR uni1E4F
ENCODING 7759
SWIDTH 500 0
DWIDTH 12 0
BBX 11 19 0 0
BITMAP
18C0
18C0
0000
0E20
1FE0
11C0
0000
0F80
3DC0
78E0
70E0
E0E0
E0E0
E0E0
E0E0
E1C0
E3C0
7780
3E00
ENDCHAR
STARTCHAR uni1E50
ENCODING 7760
SWIDTH 722 0
DWIDTH 18 0
BBX 17 26 1 0
BITMAP
070000
078000
03C000
00E000
002000
000000
03F800
03F800
000000
00FC00
03DE00
0F0700
1E0780
1C0780
3C0380
780780
780780
F00780
F00F00
F00F00
E01E00
F01E00
F03C00
707800
3DF000
1FC000
ENDCHAR
STARTCHAR uni1E51
ENCODING 7761
SWIDTH 500 0
DWIDTH 12 0
BBX 11 21 0 0
BITMAP
3800
3C00
1E00
0700
0100
0000
3F80
3F80
0000
0F80
3DC0
78E0
70E0
E0E0
E0E0
E0E0
E1E0
E1C0
E3C0
7780
3E00
ENDCHAR
STARTCHAR uni1E52
ENCODING 7762
SWIDTH 722 0
DWIDTH 18 0
BBX 17 26 1 0
BITMAP
001C00
003C00
007800
00E000
008000
000000
03F800
03F800
000000
00FC00
03DE00
0F0700
1E0780
1C0780
3C0380
780780
780780
F00780
F00F00
F00F00
E01E00
F01E00
F03C00
707800
3DF000
1FC000
ENDCHAR
STARTCHAR uni1E53
ENCODING 7763
SWIDTH 500 0
DWIDTH 12 0
BBX 11 21 0 0
BITMAP
01C0
03C0
0780
0E00
0800
0000
3F80
3F80
0000
0F80
3DC0
78E0
70E0
E0E0
E0E0
E0E0
E1E0
E1C0
E3C0
7780
3E00
ENDCHAR
STARTCHAR uni1E54
ENCODING 7764
SWIDTH 611 0
DWIDTH 15 0
BBX 16 23 0 0
BITMAP
0038
0078
00F0
01C0
0100
0000
0FF8
079E
078F
070F
0F0F
0F0F
0E1E
1E3C
1FF0
1C00
3C00
3C00
3800
7800
7800
7000
F800
ENDCHAR
STARTCHAR uni1E55
ENCODING 7765
SWIDTH 500 0
DWIDTH 13 0
BBX 15 23 -2 -5
BITMAP
0038
0078
00F0
01C0
0100
0000
0F38
077C
07FE
071E
0E0E
0E0E
0E0C
1C0C
1C1C
1E18
1FF0
39C0
3800
3800
7000
7000
F800
ENDCHAR
STARTCHAR uni1E56
ENCODING 7766
SWIDTH 611 0
DWIDTH 15 0
BBX 16 20 0 0
BITMAP
00C0
00C0
0000
0FF8
079E
078F
070F
0F0F
0F0F
0E1E
1E3C
1FF0
1C00
3C00
3C00
3800
7800
7800
7000
F800
ENDCHAR
STARTCHAR uni1E57
ENCODING 7767
SWIDTH 500 0
DWIDTH 13 0
BBX 15 20 -2 -5
BITMAP
00C0
00C0
0000
0F38
077C
07FE
071E
0E0E
0E0E
0E0C
1C0C
1C1C
1E18
1FF0
39C0
3800
3800
7000
7000
F800
ENDCHAR
STARTCHAR uni1E58
ENCODING 7768
SWIDTH 667 0
DWIDTH 17 0
BBX 16 20 0 0
BITMAP
00C0
00C0
0000
0FF8
079E
078F
070F
0F0F
0F0F
0E1E
1E3C
1FF0
1CE0
3CF0
3CF0
3870
7878
7838
703C
F83E
ENDCHAR
STARTCHAR uni1E59
ENCODING 7769
SWIDTH 389 0
DWIDTH 10 0
BBX 10 15 0 0
BITMAP
0C00
0C00
0000
7980
3BC0
37C0
3CC0
3800
7800
7000
7000
7000
E000
E000
E000
ENDCHAR
STARTCHAR uni1E5A
ENCODING 7770
SWIDTH 667 0
DWIDTH 17 0
BBX 16 20 0 -3
BITMAP
0FF8
079E
078F
070F
0F0F
0F0F
0E1E
1E3C
1FF0
1CE0
3CF0
3CF0
3870
7878
7838
703C
F83E
0000
0300
0300
ENDCHAR
STARTCHAR uni1E5B
ENCODING 7771
SWIDTH 389 0
DWIDTH 10 0
BBX 10 15 0 -3
BITMAP
7980
3BC0
37C0
3CC0
3800
7800
7000
7000
7000
E000
E000
E000
0000
3000
3000
ENDCHAR
STARTCHAR uni1E5C
ENCODING 7772
SWIDTH 667 0
DWIDTH 17 0
BBX 16 23 0 -3
BITMAP
03F8
03F8
0000
0FF8
079E
078F
070F
0F0F
0F0F
0E1E
1E3C
1FF0
1CE0
3CF0
3CF0
3870
7878
7838
703C
F83E
0000
0300
0300
ENDCHAR
STARTCHAR uni1E5D
ENCODING 7773
SWIDTH 389 0
DWIDTH 10 0
BBX 10 18 0 -3
BITMAP
3F80
3F80
0000
7980
3BC0
37C0
3CC0
3800
7800
7000
7000
7000
E000
E000
E000
0000
3000
3000
ENDCHAR
STARTCHAR uni1E5E
ENCODING 7774
SWIDTH 667 0
DWIDTH 17 0
BBX 16 20 0 -3
BITMAP
0FF8
079E
078F
070F
0F0F
0F0F
0E1E
1E3C
1FF0
1CE0
3CF0
3CF0
3870
7878
7838
703C
F83E
0000
0FE0
0FE0
ENDCHAR
STARTCHAR uni1E5F
ENCODING 7775
SWIDTH 389 0
DWIDTH 10 0
BBX 11 15 -1 -3
BITMAP
3CC0
1DE0
1BE0
1E60
1C00
3C00
3800
3800
3800
7000
7000
7000
0000
FE00
FE00
ENDCHAR
STARTCHAR uni1E60
ENCODING 7776
SWIDTH 556 0
DWIDTH 14 0
BBX 15 20 -1 0
BITMAP
00C0
00C0
0000
03F6
071E
0E0C
0E04
0E04
0F00
0F80
07C0
03E0
01F0
00F8
10F8
3078
3078
78F0
7DE0
EFC0
ENDCHAR
STARTCHAR uni1E61
ENCODING 7777
SWIDTH 389 0
DWIDTH 10 0
BBX 9 15 0 0
BITMAP
0C00
0C00
0000
1F80
3980
3180
3800
3C00
1E00
0F00
0F00
C700
C700
EE00
BC00
ENDCHAR
STARTCHAR uni1E62
ENCODING 7778
SWIDTH 556 0
DWIDTH 14 0
BBX 15 20 -1 -3
BITMAP
03F6
071E
0E0C
0E04
0E04
0F00
0F80
07C0
03E0
01F0
00F8
10F8
3078
3078
78F0
7DE0
EFC0
0000
0300
0300
ENDCHAR
STARTCHAR uni1E63
ENCODING 7779
SWIDTH 389 0
DWIDTH 10 0
BBX 9 15 0 -3
BITMAP
1F80
3980
3180
3800
3C00
1E00
0F00
0F00
C700
C700
EE00
BC00
0000
1800
1800
ENDCHAR
STARTCHAR uni1E64
ENCODING 7780
SWIDTH 556 0
DWIDTH 14 0
BBX 15 26 -1 0
BITMAP
00C0
00C0
0000
0038
0078
00F0
01C0
0100
0000
03F6
071E
0E0C
0E04
0E04
0F00
0F80
07C0
03E0
01F0
00F8
10F8
3078
3078
78F0
7DE0
EFC0
ENDCHAR
STARTCHAR uni1E65
ENCODING 7781
SWIDTH 389 0
DWIDTH 10 0
BBX 9 21 0 0
BITMAP
0600
0600
0000
0380
0780
0F00
1C00
1000
0000
1F80
3980
3180
3800
3C00
1E00
0F00
0F00
C700
C700
EE00
BC00
ENDCHAR
STARTCHAR uni1E66
ENCODING 7782
SWIDTH 556 0
DWIDTH 14 0
BBX 15 20 -1 0
BITMAP
00C0
00C0
0000
018E
01DC
00F0
0060
03F6
071E
0E0C
0F04
0F84
07C0
01E0
10F0
3078
3078
7878
7CF0
EFE0
ENDCHAR
STARTCHAR uni1E67
ENCODING 7783
SWIDTH 389 0
DWIDTH 10 0
BBX 11 18 0 0
BITMAP
0600
0600
0000
18E0
1DC0
0F00
0600
1F80
3980
3180
3800
3C00
1E00
0F00
C700
C700
EF00
BC00
ENDCHAR
STARTCHAR uni1E68
ENCODING 7784
SWIDTH 556 0
DWIDTH 14 0
BBX 15 23 -1 -3
BITMAP
0180
0180
0000
03F6
071E
0E0C
0E04
0E04
0F00
0F80
07C0
03E0
01F0
00F8
10F8
3078
3078
78F0
7DE0
EFC0
0000
0300
0300
ENDCHAR
STARTCHAR uni1E69
ENCODING 7785
SWIDTH 389 0
DWIDTH 10 0
BBX 9 18 0 -3
BITMAP
0C00
0C00
0000
1F80
3980
3180
3800
3C00
1E00
0F00
0F00
C700
C700
EE00
BC00
0000
1800
1800
ENDCHAR
STARTCHAR uni1E6A
ENCODING 7786
SWIDTH 611 0
DWIDTH 16 0
BBX 15 20 2 0
BITMAP
0180
0180
0000
7FFE
E3CE
C3C6
8384
0780
0780
0700
0F00
0F00
0E00
1E00
1E00
1C00
3C00
3C00
3800
FF00
ENDCHAR
STARTCHAR uni1E6B
ENCODING 7787
SWIDTH 278 0
DWIDTH 8 0
BBX 7 18 1 0
BITMAP
18
18
00
0E
0E
1C
7E
FE
38
38
70
70
70
70
E0
E4
F8
70
ENDCHAR
STARTCHAR uni1E6C
ENCODING 7788
SWIDTH 611 0
DWIDTH 16 0
BBX 15 20 2 -3
BITMAP
7FFE
E3CE
C3C6
8384
0780
0780
0700
0F00
0F00
0E00
1E00
1E00
1C00
3C00
3C00
3800
FF00
0000
0C00
0C00
ENDCHAR
STARTCHAR uni1E6D
ENCODING 7789
SWIDTH 278 0
DWIDTH 8 0
BBX 7 18 1 -3
BITMAP
0E
0E
1C
7E
FE
38
38
70
70
70
70
E0
E4
F8
70
00
30
30
ENDCHAR
STARTCHAR uni1E6E
ENCODING 7790
SWIDTH 611 0
DWIDTH 16 0
BBX 15 20 2 -3
BITMAP
7FFE
E3CE
C3C6
8384
0780
0780
0700
0F00
0F00
0E00
1E00
1E00
1C00
3C00
3C00
3800
FF00
0000
3F80
3F80
ENDCHAR
STARTCHAR uni1E6F
ENCODING 7791
SWIDTH 278 0
DWIDTH 8 0
BBX 8 18 0 -3
BITMAP
07
07
0E
3F
7F
1C
1C
38
38
38
38
70
72
7C
38
00
FE
FE
ENDCHAR
STARTCHAR uni1E70
ENCODING 7792
SWIDTH 611 0
DWIDTH 16 0
BBX 15 22 2 -5
BITMAP
7FFE
E3CE
C3C6
8384
0780
0780
0700
0F00
0F00
0E00
1E00
1E00
1C00
3C00
3C00
3800
FF00
0000
0600
0F00
3B80
7180
ENDCHAR
STARTCHAR uni1E71
ENCODING 7793
SWIDTH 278 0
DWIDTH 8 0
BBX 9 20 -1 -5
BITMAP
0380
0380
0700
1F80
3F80
0E00
0E00
1C00
1C00
1C00
1C00
3800
3900
3E00
1C00
0000
0C00
1E00
7700
E300
ENDCHAR
STARTCHAR uni1E72
ENCODING 7794
SWIDTH 722 0
DWIDTH 18 0
BBX 19 20 1 -3
BITMAP
3F07E0
1E0180
1E0180
1C0300
3C0300
3C0200
380600
780600
780600
700C00
F00C00
F00C00
F01800
F01800
703000
7CF000
1FC000
000000
0C6000
0C6000
ENDCHAR
STARTCHAR uni1E73
ENCODING 7795
SWIDTH 556 0
DWIDTH 13 0
BBX 12 15 0 -3
BITMAP
3C70
1C70
38E0
38E0
71E0
71C0
73C0
73C0
E780
ED90
F9E0
71C0
0000
3180
3180
ENDCHAR
STARTCHAR uni1E74
ENCODING 7796
SWIDTH 722 0
DWIDTH 18 0
BBX 19 21 1 -4
BITMAP
3F07E0
1E0180
1E0180
1C0300
3C0300
3C0200
380600
780600
780600
700C00
F00C00
F00C00
F01800
F01800
703000
7CF000
1FC000
000000
0E2000
1FE000
11C000
ENDCHAR
STARTCHAR uni1E75
ENCODING 7797
SWIDTH 556 0
DWIDTH 13 0
BBX 12 16 0 -4
BITMAP
3C70
1C70
38E0
38E0
71E0
71C0
73C0
73C0
E780
ED90
F9E0
71C0
0000
1C40
3FC0
2380
ENDCHAR
STARTCHAR uni1E76
ENCODING 7798
SWIDTH 722 0
DWIDTH 18 0
BBX 19 22 1 -5
BITMAP
3F07E0
1E0180
1E0180
1C0300
3C0300
3C0200
380600
780600
780600
700C00
F00C00
F00C00
F01800
F01800
703000
7CF000
1FC000
000000
030000
078000
1DC000
38C000
ENDCHAR
STARTCHAR uni1E77
ENCODING 7799
SWIDTH 556 0
DWIDTH 13 0
BBX 12 17 0 -5
BITMAP
3C70
1C70
38E0
38E0
71E0
71C0
73C0
73C0
E780
ED90
F9E0
71C0
0000
0600
0F00
3B80
7180
ENDCHAR
STARTCHAR uni1E78
ENCODING 7800
SWIDTH 722 0
DWIDTH 18 0
BBX 19 27 1 0
BITMAP
001C00
003C00
007800
00E000
008000
000000
038800
07F800
047000
000000
3F07E0
1E0180
1E0180
1C0300
3C0300
3C0200
380600
780600
780600
700C00
F00C00
F00C00
F01800
F01800
703000
7CF000
1FC000
ENDCHAR
STARTCHAR uni1E79
ENCODING 7801
SWIDTH 556 0
DWIDTH 13 0
BBX 12 22 0 0
BITMAP
01C0
03C0
0780
0E00
0800
0000
1C40
3FC0
2380
0000
3C70
1C70
38E0
38E0
71E0
71C0
73C0
73C0
E780
ED90
F9E0
71C0
ENDCHAR
STARTCHAR uni1E7A
ENCODING 7802
SWIDTH 722 0
DWIDTH 18 0
BBX 19 23 1 0
BITMAP
031800
031800
000000
03F800
03F800
000000
3F07E0
1E0180
1E0180
1C0300
3C0300
3C0200
380600
780600
780600
700C00
F00C00
F00C00
F01800
F01800
703000
7CF000
1FC000
ENDCHAR
STARTCHAR uni1E7B
ENCODING 7803
SWIDTH 556 0
DWIDTH 13 0
BBX 12 18 0 0
BITMAP
18C0
18C0
0000
1FC0
1FC0
0000
3C70
1C70
38E0
38E0
71E0
71C0
73C0
73C0
E780
ED90
F9E0
71C0
ENDCHAR
STARTCHAR uni1E7C
ENCODING 7804
SWIDTH 667 0
DWIDTH 17 0
BBX 17 21 1 0
BITMAP
071000
0FF000
08E000
000000
FC0F80
780700
380600
380C00
380C00
3C1800
1C3000
1C3000
1C6000
1CE000
1CC000
1D8000
1F8000
0F0000
0E0000
0E0000
0C0000
ENDCHAR
STARTCHAR uni1E7D
ENCODING 7805
SWIDTH 444 0
DWIDTH 11 0
BBX 10 16 0 0
BITMAP
3880
7F80
4700
0000
F180
73C0
71C0
70C0
3880
3980
3900
3B00
3E00
3C00
3800
3000
ENDCHAR
STARTCHAR uni1E7E
ENCODING 7806
SWIDTH 667 0
DWIDTH 17 0
BBX 17 20 1 -3
BITMAP
FC0F80
780700
380600
380C00
380C00
3C1800
1C3000
1C3000
1C6000
1CE000
1CC000
1D8000
1F8000
0F0000
0E0000
0E0000
0C0000
000000
030000
030000
ENDCHAR
STARTCHAR uni1E7F
ENCODING 7807
SWIDTH 444 0
DWIDTH 11 0
BBX 10 15 0 -3
BITMAP
F180
73C0
71C0
70C0
3880
3980
3900
3B00
3E00
3C00
3800
3000
0000
1800
1800
ENDCHAR
STARTCHAR Wgrave
ENCODING 7808
SWIDTH 889 0
DWIDTH 21 0
BBX 23 23 1 0
BITMAP
01C000
01E000
00F000
003800
000800
000000
FC7C7E
78381C
383818
383830
387830
3C7C60
1CDC60
1CDCC0
1C9C80
1D9D80
1D1D00
1F1F00
1E1E00
0E0E00
0E0E00
0C0C00
0C0C00
ENDCHAR
STARTCHAR wgrave
ENCODING 7809
SWIDTH 667 0
DWIDTH 16 0
BBX 16 18 0 0
BITMAP
0E00
0F00
0780
01C0
0040
0000
F18E
718F
7183
71C3
3BC6
3BC4
3EEC
3EE8
3CF8
38F0
38E0
30C0
ENDCHAR
STARTCHAR Wacute
ENCODING 7810
SWIDTH 889 0
DWIDTH 21 0
BBX 23 23 1 0
BITMAP
000E00
001E00
003C00
007000
004000
000000
FC7C7E
78381C
383818
383830
387830
3C7C60
1CDC60
1CDCC0
1C9C80
1D9D80
1D1D00
1F1F00
1E1E00
0E0E00
0E0E00
0C0C00
0C0C00
ENDCHAR
STARTCHAR wacute
ENCODING 7811
SWIDTH 667 0
DWIDTH 16 0
BBX 16 18 0 0
BITMAP
0070
00F0
01E0
0380
0200
0000
F18E
718F
7183
71C3
3BC6
3BC4
3EEC
3EE8
3CF8
38F0
38E0
30C0
ENDCHAR
STARTCHAR Wdieresis
ENCODING 7812
SWIDTH 889 0
DWIDTH 21 0
BBX 23 20 1 0
BITMAP
00C600
00C600
000000
FC7C7E
78381C
383818
383830
387830
3C7C60
1CDC60
1CDCC0
1C9C80
1D9D80
1D1D00
1F1F00
1E1E00
0E0E00
0E0E00
0C0C00
0C0C00
ENDCHAR
STARTCHAR wdieresis
ENCODING 7813
SWIDTH 667 0
DWIDTH 16 0
BBX 16 15 0 0
BITMAP
0C60
0C60
0000
F18E
718F
7183
71C3
3BC6
3BC4
3EEC
3EE8
3CF8
38F0
38E0
30C0
ENDCHAR
STARTCHAR uni1E86
ENCODING 7814
SWIDTH 889 0
DWIDTH 21 0
BBX 23 20 1 0
BITMAP
003000
003000
000000
FC7C7E
78381C
383818
383830
387830
3C7C60
1CDC60
1CDCC0
1C9C80
1D9D80
1D1D00
1F1F00
1E1E00
0E0E00
0E0E00
0C0C00
0C0C00
ENDCHAR
STARTCHAR uni1E87
ENCODING 7815
SWIDTH 667 0
DWIDTH 16 0
BBX 16 15 0 0
BITMAP
0180
0180
0000
F18E
718F
7183
71C3
3BC6
3BC4
3EEC
3EE8
3CF8
38F0
38E0
30C0
ENDCHAR
STARTCHAR uni1E88
ENCODING 7816
SWIDTH 889 0
DWIDTH 21 0
BBX 23 20 1 -3
BITMAP
FC7C7E
78381C
383818
383830
387830
3C7C60
1CDC60
1CDCC0
1C9C80
1D9D80
1D1D00
1F1F00
1E1E00
0E0E00
0E0E00
0C0C00
0C0C00
000000
006000
006000
ENDCHAR
STARTCHAR uni1E89
ENCODING 7817
SWIDTH 667 0
DWIDTH 16 0
BBX 16 15 0 -3
BITMAP
F18E
718F
7183
71C3
3BC6
3BC4
3EEC
3EE8
3CF8
38F0
38E0
30C0
0000
0300
0300
ENDCHAR
STARTCHAR uni1E8A
ENCODING 7818
SWIDTH 667 0
DWIDTH 17 0
BBX 18 20 0 0
BITMAP
006000
006000
000000
3FC7C0
0F0380
070700
070E00
079C00
03B800
03F000
01E000
01E000
01E000
03F000
077000
0E7800
1C7800
383C00
783C00
FCFF00
ENDCHAR
STARTCHAR uni1E8B
ENCODING 7819
SWIDTH 500 0
DWIDTH 12 0
BBX 12 15 -1 0
BITMAP
0300
0300
0000
1E70
0E70
0E60
06C0
0780
0700
0700
0F00
0B80
DB90
F3E0
E1C0
ENDCHAR
STARTCHAR uni1E8C
ENCODING 7820
SWIDTH 667 0
DWIDTH 17 0
BBX 18 20 0 0
BITMAP
031800
031800
000000
3FC7C0
0F0380
070700
070E00
079C00
03B800
03F000
01E000
01E000
01E000
03F000
077000
0E7800
1C7800
383C00
783C00
FCFF00
ENDCHAR
STARTCHAR uni1E8D
ENCODING 7821
SWIDTH 500 0
DWIDTH 12 0
BBX 12 15 -1 0
BITMAP
0C60
0C60
0000
1E70
0E70
0E60
06C0
0780
0700
0700
0F00
0B80
DB90
F3E0
E1C0
ENDCHAR
STARTCHAR uni1E8E
ENCODING 7822
SWIDTH 611 0
DWIDTH 14 0
BBX 15 20 2 0
BITMAP
0300
0300
0000
FC3E
781C
7818
3830
3C20
3C60
1CC0
1D80
1F00
0E00
1E00
1C00
1C00
1C00
3800
3C00
FF00
ENDCHAR
STARTCHAR uni1E8F
ENCODING 7823
SWIDTH 444 0
DWIDTH 11 0
BBX 12 20 -2 -5
BITMAP
0300
0300
0000
3C70
1C70
1C70
1C60
0C60
0EC0
0EC0
0780
0780
0700
0300
0200
0600
0400
CC00
F800
7000
ENDCHAR
STARTCHAR uni1E90
ENCODING 7824
SWIDTH 611 0
DWIDTH 15 0
BBX 16 22 -1 0
BITMAP
0060
00F0
03B8
0718
0000
0FFF
1E1F
181E
303C
0078
00F0
01E0
01E0
03C0
0780
0F00
1E00
3E06
3C0C
781C
F0F8
FFF8
ENDCHAR
STARTCHAR uni1E91
ENCODING 7825
SWIDTH 389 0
DWIDTH 9 0
BBX 10 19 -1 -2
BITMAP
0600
0F00
3B80
7180
0000
3FC0
3FC0
6180
4300
0600
0C00
0C00
1800
3000
6000
F000
F980
0D80
0700
ENDCHAR
STARTCHAR uni1E92
ENCODING 7826
SWIDTH 611 0
DWIDTH 15 0
BBX 16 20 -1 -3
BITMAP
0FFF
1E1F
181E
303C
0078
00F0
01E0
01E0
03C0
0780
0F00
1E00
3E06
3C0C
781C
F0F8
FFF8
0000
0300
0300
ENDCHAR
STARTCHAR uni1E93
ENCODING 7827
SWIDTH 389 0
DWIDTH 9 0
BBX 10 17 -1 -5
BITMAP
3FC0
3FC0
6180
4300
0600
0C00
0C00
1800
3000
6000
F000
F980
0D80
0700
0000
0C00
0C00
ENDCHAR
STARTCHAR uni1E94
ENCODING 7828
SWIDTH 611 0
DWIDTH 15 0
BBX 16 20 -1 -3
BITMAP
0FFF
1E1F
181E
303C
0078
00F0
01E0
01E0
03C0
0780
0F00
1E00
3E06
3C0C
781C
F0F8
FFF8
0000
0FE0
0FE0
ENDCHAR
STARTCHAR uni1E95
ENCODING 7829
SWIDTH 389 0
DWIDTH 9 0
BBX 10 17 -1 -5
BITMAP
3FC0
3FC0
6180
4300
0600
0C00
0C00
1800
3000
6000
F000
F980
0D80
0700
0000
7F00
7F00
ENDCHAR
STARTCHAR uni1E96
ENCODING 7830
SWIDTH 556 0
DWIDTH 13 0
BBX 12 21 0 -3
BITMAP
1E00
0E00
0E00
1C00
1C00
1C00
19C0
3BE0
3EE0
38E0
70E0
70C0
71C0
71C0
E180
E390
E3E0
E1C0
0000
3F80
3F80
ENDCHAR
STARTCHAR uni1E97
ENCODING 7831
SWIDTH 278 0
DWIDTH 8 0
BBX 8 18 1 0
BITMAP
63
63
00
0E
0E
1C
7E
FE
38
38
70
70
70
70
E0
E4
F8
70
ENDCHAR
STARTCHAR uni1E98
ENCODING 7832
SWIDTH 667 0
DWIDTH 16 0
BBX 16 18 0 0
BITMAP
0380
06C0
0440
06C0
0380
0000
F18E
718F
7183
71C3
3BC6
3BC4
3EEC
3EE8
3CF8
38F0
38E0
30C0
ENDCHAR
STARTCHAR uni1E99
ENCODING 7833
SWIDTH 444 0
DWIDTH 11 0
BBX 12 23 -2 -5
BITMAP
0700
0D80
0880
0D80
0700
0000
3C70
1C70
1C70
1C60
0C60
0EC0
0EC0
0780
0780
0700
0300
0200
0600
0400
CC00
F800
7000
ENDCHAR
STARTCHAR uni1EA0
ENCODING 7840
SWIDTH 667 0
DWIDTH 16 0
BBX 17 20 -2 -3
BITMAP
000200
000600
000E00
001E00
003E00
006E00
00CE00
018E00
030E00
060E00
0FFE00
0FFE00
180E00
300E00
600E00
E00F00
F01F80
000000
00C000
00C000
ENDCHAR
STARTCHAR uni1EA1
ENCODING 7841
SWIDTH 500 0
DWIDTH 13 0
BBX 13 15 0 -3
BITMAP
07B0
1EF0
3C70
38F0
70E0
70E0
E1C0
E1C0
E3C0
E7C8
FDF0
79E0
0000
0600
0600
ENDCHAR
STARTCHAR uni1EA4
ENCODING 7844
SWIDTH 667 0
DWIDTH 16 0
BBX 19 28 -2 0
BITMAP
0001C0
0003C0
000780
000E00
000800
000000
000180
0003C0
000EE0
001C60
000000
000200
000600
000E00
001E00
003E00
006E00
00CE00
018E00
030E00
060E00
0FFE00
0FFE00
180E00
300E00
600E00
E00F00
F01F80
ENDCHAR
STARTCHAR uni1EA5
ENCODING 7845
SWIDTH 500 0
DWIDTH 13 0
BBX 13 23 0 0
BITMAP
0070
00F0
01E0
0380
0200
0000
00C0
01E0
0770
0E30
0000
07B8
1EF8
3C70
3870
70E0
70E0
E1E0
E1C0
E3C0
E7C8
FDF0
79E0
ENDCHAR
STARTCHAR uni1EA6
ENCODING 7846
SWIDTH 667 0
DWIDTH 16 0
BBX 19 28 -2 0
BITMAP
007000
007800
003C00
000E00
000200
000000
000180
0003C0
000EE0
001C60
000000
000200
000600
000E00
001E00
003E00
006E00
00CE00
018E00
030E00
060E00
0FFE00
0FFE00
180E00
300E00
600E00
E00F00
F01F80
ENDCHAR
STARTCHAR uni1EA7
ENCODING 7847
SWIDTH 500 0
DWIDTH 13 0
BBX 13 23 0 0
BITMAP
0E00
0F00
0780
01C0
0040
0000
00C0
01E0
0770
0E30
0000
07B8
1EF8
3C70
3870
70E0
70E0
E1E0
E1C0
E3C0
E7C8
FDF0
79E0
ENDCHAR
STARTCHAR uni1EAA
ENCODING 7850
SWIDTH 667 0
DWIDTH 16 0
BBX 19 26 -2 0
BITMAP
003880
007F80
004700
000000
000180
0003C0
000EE0
001C60
000000
000200
000600
000E00
001E00
003E00
006E00
00CE00
018E00
030E00
060E00
0FFE00
0FFE00
180E00
300E00
600E00
E00F00
F01F80
ENDCHAR
STARTCHAR uni1EAB
ENCODING 7851
SWIDTH 500 0
DWIDTH 13 0
BBX 13 21 0 0
BITMAP
0710
0FF0
08E0
0000
00C0
01E0
0770
0E30
0000
07B8
1EF8
3C70
3870
70E0
70E0
E1E0
E1C0
E3C0
E7C8
FDF0
79E0
ENDCHAR
STARTCHAR uni1EAC
ENCODING 7852
SWIDTH 667 0
DWIDTH 16 0
BBX 17 25 -2 -3
BITMAP
001800
003C00
00EE00
01C600
000000
000200
000600
000E00
001E00
003E00
006E00
00CE00
018E00
030E00
060E00
0FFE00
0FFE00
180E00
300E00
600E00
E00F00
F01F80
000000
00C000
00C000
ENDCHAR
STARTCHAR uni1EAD
ENCODING 7853
SWIDTH 500 0
DWIDTH 13 0
BBX 13 20 0 -3
BITMAP
0180
03C0
0EE0
1C60
0000
07B0
1EF0
3C70
38F0
70E0
70E0
E1C0
E1C0
E3C0
E7C8
FDF0
79E0
0000
0600
0600
ENDCHAR
STARTCHAR uni1EAE
ENCODING 7854
SWIDTH 667 0
DWIDTH 16 0
BBX 17 28 -2 0
BITMAP
000E00
001E00
003C00
007000
004000
000000
00C300
00C300
007E00
003C00
000000
000200
000600
000E00
001E00
003E00
006E00
00CE00
018E00
030E00
060E00
0FFE00
0FFE00
180E00
300E00
600E00
E00F00
F01F80
ENDCHAR
STARTCHAR uni1EAF
ENCODING 7855
SWIDTH 500 0
DWIDTH 13 0
BBX 13 23 0 0
BITMAP
00E0
01E0
03C0
0700
0400
0000
1860
1860
0FC0
0780
0000
07B0
1EF0
3C70
38F0
70E0
70E0
E1C0
E1C0
E3C0
E7C8
FDF0
79E0
ENDCHAR
STARTCHAR uni1EB0
ENCODING 7856
SWIDTH 667 0
DWIDTH 16 0
BBX 17 28 -2 0
BITMAP
01C000
01E000
00F000
003800
000800
000000
00C300
00C300
007E00
003C00
000000
000200
000600
000E00
001E00
003E00
006E00
00CE00
018E00
030E00
060E00
0FFE00
0FFE00
180E00
300E00
600E00
E00F00
F01F80
ENDCHAR
STARTCHAR uni1EB1
ENCODING 7857
SWIDTH 500 0
DWIDTH 13 0
BBX 13 23 0 0
BITMAP
1C00
1E00
0F00
0380
0080
0000
1860
1860
0FC0
0780
0000
07B0
1EF0
3C70
38F0
70E0
70E0
E1C0
E1C0
E3C0
E7C8
FDF0
79E0
ENDCHAR
STARTCHAR uni1EB4
ENCODING 7860
SWIDTH 667 0
DWIDTH 16 0
BBX 17 26 -2 0
BITMAP
00E200
01FE00
011C00
000000
00C300
00C300
007E00
003C00
000000
000200
000600
000E00
001E00
003E00
006E00
00CE00
018E00
030E00
060E00
0FFE00
0FFE00
180E00
300E00
600E00
E00F00
F01F80
ENDCHAR
STARTCHAR uni1EB5
ENCODING 7861
SWIDTH 500 0
DWIDTH 13 0
BBX 13 21 0 0
BITMAP
0E20
1FE0
11C0
0000
1860
1860
0FC0
0780
0000
07B0
1EF0
3C70
38F0
70E0
70E0
E1C0
E1C0
E3C0
E7C8
FDF0
79E0
ENDCHAR
STARTCHAR uni1EB6
ENCODING 7862
SWIDTH 667 0
DWIDTH 16 0
BBX 17 25 -2 -3
BITMAP
018600
018600
00FC00
007800
000000
000200
000600
000E00
001E00
003E00
006E00
00CE00
018E00
030E00
060E00
0FFE00
0FFE00
180E00
300E00
600E00
E00F00
F01F80
000000
00C000
00C000
ENDCHAR
STARTCHAR uni1EB7
ENCODING 7863
SWIDTH 500 0
DWIDTH 13 0
BBX 13 20 0 -3
BITMAP
1860
1860
0FC0
0780
0000
07B0
1EF0
3C70
38F0
70E0
70E0
E1C0
E1C0
E3C0
E7C8
FDF0
79E0
0000
0600
0600
ENDCHAR
STARTCHAR uni1EB8
ENCODING 7864
SWIDTH 667 0
DWIDTH 16 0
BBX 17 20 0 -3
BITMAP
0FFF80
078380
078100
070100
0F0000
0F0800
0E1800
1E3000
1FF000
1C7000
3C2000
3C2000
380200
780600
780E00
703C00
FFFC00
000000
018000
018000
ENDCHAR
STARTCHAR uni1EB9
ENCODING 7865
SWIDTH 444 0
DWIDTH 10 0
BBX 10 15 0 -3
BITMAP
0780
1FC0
39C0
7180
7700
FC00
F000
E000
E000
F180
7F00
3C00
0000
1800
1800
ENDCHAR
STARTCHAR uni1EBC
ENCODING 7868
SWIDTH 667 0
DWIDTH 16 0
BBX 17 21 0 0
BITMAP
038800
07F800
047000
000000
0FFF80
078380
078100
070100
0F0000
0F0800
0E1800
1E3000
1FF000
1C7000
3C2000
3C2000
380200
780600
780E00
703C00
FFFC00
ENDCHAR
STARTCHAR uni1EBD
ENCODING 7869
SWIDTH 444 0
DWIDTH 10 0
BBX 10 16 0 0
BITMAP
1C40
3FC0
2380
0000
0780
1FC0
39C0
7180
7700
FC00
F000
E000
E000
F180
7F00
3C00
ENDCHAR
STARTCHAR uni1EBE
ENCODING 7870
SWIDTH 667 0
DWIDTH 16 0
BBX 17 28 0 0
BITMAP
001C00
003C00
007800
00E000
008000
000000
001800
003C00
00EE00
01C600
000000
0FFF80
078380
078100
070100
0F0000
0F0800
0E1800
1E3000
1FF000
1C7000
3C2000
3C2000
380200
780600
780E00
703C00
FFFC00
ENDCHAR
STARTCHAR uni1EBF
ENCODING 7871
SWIDTH 444 0
DWIDTH 11 0
BBX 10 23 1 0
BITMAP
01C0
03C0
0780
0E00
0800
0000
0300
0780
1DC0
38C0
0000
0780
1FC0
39C0
7180
7300
FE00
F800
E000
E000
F180
7F00
3C00
ENDCHAR
STARTCHAR uni1EC0
ENCODING 7872
SWIDTH 667 0
DWIDTH 16 0
BBX 17 28 0 0
BITMAP
038000
03C000
01E000
007000
001000
000000
001800
003C00
00EE00
01C600
000000
0FFF80
078380
078100
070100
0F0000
0F0800
0E1800
1E3000
1FF000
1C7000
3C2000
3C2000
380200
780600
780E00
703C00
FFFC00
ENDCHAR
STARTCHAR uni1EC1
ENCODING 7873
SWIDTH 444 0
DWIDTH 11 0
BBX 10 23 1 0
BITMAP
3800
3C00
1E00
0700
0100
0000
0300
0780
1DC0
38C0
0000
0780
1FC0
39C0
7180
7300
FE00
F800
E000
E000
F180
7F00
3C00
ENDCHAR
STARTCHAR uni1EC4
ENCODING 7876
SWIDTH 667 0
DWIDTH 16 0
BBX 17 26 0 0
BITMAP
01C400
03FC00
023800
000000
001800
003C00
00EE00
01C600
000000
0FFF80
078380
078100
070100
0F0000
0F0800
0E1800
1E3000
1FF000
1C7000
3C2000
3C2000
380200
780600
780E00
703C00
FFFC00
ENDCHAR
STARTCHAR uni1EC5
ENCODING 7877
SWIDTH 444 0
DWIDTH 11 0
BBX 10 21 1 0
BITMAP
1C40
3FC0
2380
0000
0300
0780
1DC0
38C0
0000
0780
1FC0
39C0
7180
7300
FE00
F800
E000
E000
F180
7F00
3C00
ENDCHAR
STARTCHAR uni1EC6
ENCODING 7878
SWIDTH 667 0
DWIDTH 16 0
BBX 17 25 0 -3
BITMAP
006000
00F000
03B800
071800
000000
0FFF80
078380
078100
070100
0F0000
0F0800
0E1800
1E3000
1FF000
1C7000
3C2000
3C2000
380200
780600
780E00
703C00
FFFC00
000000
018000
018000
ENDCHAR
STARTCHAR uni1EC7
ENCODING 7879
SWIDTH 444 0
DWIDTH 10 0
BBX 10 20 0 -3
BITMAP
0300
0780
1DC0
38C0
0000
0780
1FC0
39C0
7180
7700
FC00
F000
E000
E000
F180
7F00
3C00
0000
1800
1800
ENDCHAR
STARTCHAR uni1ECA
ENCODING 7882
SWIDTH 389 0
DWIDTH 10 0
BBX 10 20 0 -3
BITMAP
0FC0
0780
0780
0700
0F00
0F00
0E00
1E00
1E00
1C00
3C00
3C00
3800
7800
7800
7000
F800
0000
1800
1800
ENDCHAR
STARTCHAR uni1ECB
ENCODING 7883
SWIDTH 278 0
DWIDTH 7 0
BBX 7 21 0 -3
BITMAP
0E
0E
0C
00
00
00
3C
1C
1C
38
38
38
70
70
70
F4
F8
70
00
30
30
ENDCHAR
STARTCHAR uni1ECC
ENCODING 7884
SWIDTH 722 0
DWIDTH 18 0
BBX 17 20 1 -3
BITMAP
00FC00
03DE00
0F0700
1E0780
1C0780
3C0380
780780
780780
F00780
F00F00
F00F00
E01E00
F01E00
F03C00
707800
3DF000
1FC000
000000
018000
018000
ENDCHAR
STARTCHAR uni1ECD
ENCODING 7885
SWIDTH 500 0
DWIDTH 12 0
BBX 11 15 0 -3
BITMAP
0F80
3DC0
78E0
70E0
E0E0
E0E0
E0E0
E1E0
E1C0
E3C0
7780
3E00
0000
0C00
0C00
ENDCHAR
STARTCHAR uni1ED0
ENCODING 7888
SWIDTH 722 0
DWIDTH 18 0
BBX 17 28 1 0
BITMAP
000E00
001E00
003C00
007000
004000
000000
001800
003C00
00EE00
01C600
000000
00FC00
03DE00
0F0700
1E0780
1C0780
3C0380
780780
780780
F00780
F00F00
F00F00
E01E00
F01E00
F03C00
707800
3DF000
1FC000
ENDCHAR
STARTCHAR uni1ED1
ENCODING 7889
SWIDTH 500 0
DWIDTH 12 0
BBX 11 23 0 0
BITMAP
00E0
01E0
03C0
0700
0400
0000
0180
03C0
0EE0
1C60
0000
0F80
3DC0
78E0
70E0
E0E0
E0E0
E0E0
E0E0
E1C0
E3C0
7780
3E00
ENDCHAR
STARTCHAR uni1ED2
ENCODING 7890
SWIDTH 722 0
DWIDTH 18 0
BBX 17 28 1 0
BITMAP
038000
03C000
01E000
007000
001000
000000
001800
003C00
00EE00
01C600
000000
00FC00
03DE00
0F0700
1E0780
1C0780
3C0380
780780
780780
F00780
F00F00
F00F00
E01E00
F01E00
F03C00
707800
3DF000
1FC000
ENDCHAR
STARTCHAR uni1ED3
ENCODING 7891
SWIDTH 500 0
DWIDTH 12 0
BBX 11 23 0 0
BITMAP
1C00
1E00
0F00
0380
0080
0000
0180
03C0
0EE0
1C60
0000
0F80
3DC0
78E0
70E0
E0E0
E0E0
E0E0
E0E0
E1C0
E3C0
7780
3E00
ENDCHAR
STARTCHAR uni1ED6
ENCODING 7894
SWIDTH 722 0
DWIDTH 18 0
BBX 17 26 1 0
BITMAP
01C400
03FC00
023800
000000
001800
003C00
00EE00
01C600
000000
00FC00
03DE00
0F0700
1E0780
1C0780
3C0380
780780
780780
F00780
F00F00
F00F00
E01E00
F01E00
F03C00
707800
3DF000
1FC000
ENDCHAR
STARTCHAR uni1ED7
ENCODING 7895
SWIDTH 500 0
DWIDTH 12 0
BBX 11 21 0 0
BITMAP
0E20
1FE0
11C0
0000
0180
03C0
0EE0
1C60
0000
0F80
3DC0
78E0
70E0
E0E0
E0E0
E0E0
E0E0
E1C0
E3C0
7780
3E00
ENDCHAR
STARTCHAR uni1ED8
ENCODING 7896
SWIDTH 722 0
DWIDTH 18 0
BBX 17 25 1 -3
BITMAP
006000
00F000
03B800
071800
000000
00FC00
03DE00
0F0700
1E0780
1C0780
3C0380
780780
780780
F00780
F00F00
F00F00
E01E00
F01E00
F03C00
707800
3DF000
1FC000
000000
018000
018000
ENDCHAR
STARTCHAR uni1ED9
ENCODING 7897
SWIDTH 500 0
DWIDTH 12 0
BBX 11 20 0 -3
BITMAP
0300
0780
1DC0
38C0
0000
0F80
3DC0
78E0
70E0
E0E0
E0E0
E0E0
E1E0
E1C0
E3C0
7780
3E00
0000
0C00
0C00
ENDCHAR
STARTCHAR uni1EDA
ENCODING 7898
SWIDTH 722 0
DWIDTH 18 0
BBX 19 23 1 0
BITMAP
000E00
001E00
003C00
007000
004000
000000
00FCE0
03DEE0
0F07E0
1E07E0
1C07C0
3C0380
780780
780780
F00780
F00F00
F00F00
E01E00
F01E00
F03C00
707800
3DF000
1FC000
ENDCHAR
STARTCHAR uni1EDB
ENCODING 7899
SWIDTH 500 0
DWIDTH 12 0
BBX 14 18 0 0
BITMAP
0070
00F0
01E0
0380
0200
0000
0F9C
3DDC
78FC
70EC
E0F8
E0F0
E0E0
E1E0
E1C0
E3C0
7780
3E00
ENDCHAR
STARTCHAR uni1EDC
ENCODING 7900
SWIDTH 722 0
DWIDTH 18 0
BBX 19 23 1 0
BITMAP
01C000
01E000
00F000
003800
000800
000000
00FCE0
03DEE0
0F07E0
1E07E0
1C07C0
3C0380
780780
780780
F00780
F00F00
F00F00
E01E00
F01E00
F03C00
707800
3DF000
1FC000
ENDCHAR
STARTCHAR uni1EDD
ENCODING 7901
SWIDTH 500 0
DWIDTH 12 0
BBX 14 18 0 0
BITMAP
0E00
0F00
0780
01C0
0040
0000
0F9C
3DDC
78FC
70EC
E0F8
E0F0
E0E0
E1E0
E1C0
E3C0
7780
3E00
ENDCHAR
STARTCHAR uni1EE0
ENCODING 7904
SWIDTH 722 0
DWIDTH 18 0
BBX 19 21 1 0
BITMAP
00E200
01FE00
011C00
000000
00FCE0
03DEE0
0F07E0
1E07E0
1C07C0
3C0380
780780
780780
F00780
F00F00
F00F00
E01E00
F01E00
F03C00
707800
3DF000
1FC000
ENDCHAR
STARTCHAR uni1EE1
ENCODING 7905
SWIDTH 500 0
DWIDTH 12 0
BBX 14 16 0 0
BITMAP
0710
0FF0
08E0
0000
0F9C
3DDC
78FC
70EC
E0F8
E0F0
E0E0
E1E0
E1C0
E3C0
7780
3E00
ENDCHAR
STARTCHAR uni1EE2
ENCODING 7906
SWIDTH 722 0
DWIDTH 18 0
BBX 19 20 1 -3
BITMAP
00FCE0
03DEE0
0F07E0
1E07E0
1C07C0
3C0380
780780
780780
F00780
F00F00
F00F00
E01E00
F01E00
F03C00
707800
3DF000
1FC000
000000
018000
018000
ENDCHAR
STARTCHAR uni1EE3
ENCODING 7907
SWIDTH 500 0
DWIDTH 12 0
BBX 14 15 0 -3
BITMAP
0F9C
3DDC
78FC
70EC
E0F8
E0F0
E0E0
E1E0
E1C0
E3C0
7780
3E00
0000
0600
0600
ENDCHAR
STARTCHAR uni1EE4
ENCODING 7908
SWIDTH 722 0
DWIDTH 18 0
BBX 19 20 1 -3
BITMAP
3F07E0
1E0180
1E0180
1C0300
3C0300
3C0200
380600
780600
780600
700C00
F00C00
F00C00
F01800
F01800
703000
7CF000
1FC000
000000
030000
030000
ENDCHAR
STARTCHAR uni1EE5
ENCODING 7909
SWIDTH 556 0
DWIDTH 13 0
BBX 12 15 0 -3
BITMAP
3C70
1C70
38E0
38E0
71E0
71C0
73C0
73C0
E780
ED90
F9E0
71C0
0000
0C00
0C00
ENDCHAR
STARTCHAR uni1EE8
ENCODING 7912
SWIDTH 722 0
DWIDTH 18 0
BBX 21 23 1 0
BITMAP
000700
000F00
001E00
003800
002000
000000
3F07F8
1E01B8
1E01B8
1C0318
3C0330
3C0260
380600
780600
780600
700C00
F00C00
F00C00
F01800
F01800
703000
7CF000
1FC000
ENDCHAR
STARTCHAR uni1EE9
ENCODING 7913
SWIDTH 556 0
DWIDTH 13 0
BBX 15 18 0 0
BITMAP
0038
0078
00F0
01C0
0100
0000
3C7E
1C7E
38EE
38E6
71EC
71D8
73C0
73C0
E780
ED90
F9E0
71C0
ENDCHAR
STARTCHAR uni1EEA
ENCODING 7914
SWIDTH 722 0
DWIDTH 18 0
BBX 21 23 1 0
BITMAP
01C000
01E000
00F000
003800
000800
000000
3F07F8
1E01B8
1E01B8
1C0318
3C0330
3C0260
380600
780600
780600
700C00
F00C00
F00C00
F01800
F01800
703000
7CF000
1FC000
ENDCHAR
STARTCHAR uni1EEB
ENCODING 7915
SWIDTH 556 0
DWIDTH 13 0
BBX 15 18 0 0
BITMAP
0E00
0F00
0780
01C0
0040
0000
3C7E
1C7E
38EE
38E6
71EC
71D8
73C0
73C0
E780
ED90
F9E0
71C0
ENDCHAR
STARTCHAR uni1EEE
ENCODING 7918
SWIDTH 722 0
DWIDTH 18 0
BBX 21 21 1 0
BITMAP
00E200
01FE00
011C00
000000
3F07F8
1E01B8
1E01B8
1C0318
3C0330
3C0260
380600
780600
780600
700C00
F00C00
F00C00
F01800
F01800
703000
7CF000
1FC000
ENDCHAR
STARTCHAR uni1EEF
ENCODING 7919
SWIDTH 556 0
DWIDTH 13 0
BBX 15 16 0 0
BITMAP
0710
0FF0
08E0
0000
3C7E
1C7E
38EE
38E6
71EC
71D8
73C0
73C0
E780
ED90
F9E0
71C0
ENDCHAR
STARTCHAR uni1EF0
ENCODING 7920
SWIDTH 722 0
DWIDTH 18 0
BBX 21 20 1 -3
BITMAP
3F07F8
1E01B8
1E01B8
1C0318
3C0330
3C0260
380600
780600
780600
700C00
F00C00
F00C00
F01800
F01800
703000
7CF000
1FC000
000000
030000
030000
ENDCHAR
STARTCHAR uni1EF1
ENCODING 7921
SWIDTH 556 0
DWIDTH 13 0
BBX 15 15 0 -3
BITMAP
3C7E
1C7E
38EE
38E6
71EC
71D8
73C0
73C0
E780
ED90
F9E0
71C0
0000
0600
0600
ENDCHAR
STARTCHAR Ygrave
ENCODING 7922
SWIDTH 611 0
DWIDTH 14 0
BBX 15 23 2 0
BITMAP
1C00
1E00
0F00
0380
0080
0000
FC3E
781C
7818
3830
3C20
3C60
1CC0
1D80
1F00
0E00
1E00
1C00
1C00
1C00
3800
3C00
FF00
ENDCHAR
STARTCHAR ygrave
ENCODING 7923
SWIDTH 444 0
DWIDTH 11 0
BBX 12 23 -2 -5
BITMAP
1C00
1E00
0F00
0380
0080
0000
3C70
1C70
1C70
1C60
0C60
0EC0
0EC0
0780
0780
0700
0300
0200
0600
0400
CC00
F800
7000
ENDCHAR
STARTCHAR uni1EF4
ENCODING 7924
SWIDTH 611 0
DWIDTH 14 0
BBX 15 20 2 -3
BITMAP
FC3E
781C
7818
3830
3C20
3C60
1CC0
1D80
1F00
0E00
1E00
1C00
1C00
1C00
3800
3C00
FF00
0000
0C00
0C00
ENDCHAR
STARTCHAR uni1EF5
ENCODING 7925
SWIDTH 444 0
DWIDTH 11 0
BBX 12 20 -2 -8
BITMAP
3C70
1C70
1C70
1C60
0C60
0EC0
0EC0
0780
0780
0700
0300
0200
0600
0400
CC00
F800
7000
0000
1800
1800
ENDCHAR
STARTCHAR uni1EF8
ENCODING 7928
SWIDTH 611 0
DWIDTH 14 0
BBX 15 21 2 0
BITMAP
0E20
1FE0
11C0
0000
FC3E
781C
7818
3830
3C20
3C60
1CC0
1D80
1F00
0E00
1E00
1C00
1C00
1C00
3800
3C00
FF00
ENDCHAR
STARTCHAR uni1EF9
ENCODING 7929
SWIDTH 444 0
DWIDTH 11 0
BBX 12 21 -2 -5
BITMAP
0E20
1FE0
11C0
0000
3C70
1C70
1C70
1C60
0C60
0EC0
0EC0
0780
0780
0700
0300
0200
0600
0400
CC00
F800
7000
ENDCHAR
STARTCHAR uni2000
ENCODING 8192
SWIDTH 500 0
DWIDTH 13 0
BBX 1 1 0 0
BITMAP
00
ENDCHAR
STARTCHAR uni2001
ENCODING 8193
SWIDTH 1000 0
DWIDTH 25 0
BBX 1 1 0 0
BITMAP
00
ENDCHAR
STARTCHAR uni2002
ENCODING 8194
SWIDTH 500 0
DWIDTH 13 0
BBX 1 1 0 0
BITMAP
00
ENDCHAR
STARTCHAR uni2003
ENCODING 8195
SWIDTH 1000 0
DWIDTH 25 0
BBX 1 1 0 0
BITMAP
00
ENDCHAR
STARTCHAR uni2004
ENCODING 8196
SWIDTH 333 0
DWIDTH 8 0
BBX 1 1 0 0
BITMAP
00
ENDCHAR
STARTCHAR uni2005
ENCODING 8197
SWIDTH 250 0
DWIDTH 6 0
BBX 1 1 0 0
BITMAP
00
ENDCHAR
STARTCHAR uni2006
ENCODING 8198
SWIDTH 167 0
DWIDTH 4 0
BBX 1 1 0 0
BITMAP
00
ENDCHAR
STARTCHAR uni2007
ENCODING 8199
SWIDTH 500 0
DWIDTH 12 0
BBX 1 1 0 0
BITMAP
00
ENDCHAR
STARTCHAR uni2008
ENCODING 8200
SWIDTH 250 0
DWIDTH 6 0
BBX 1 1 0 0
BITMAP
00
ENDCHAR
STARTCHAR uni2009
ENCODING 8201
SWIDTH 200 0
DWIDTH 5 0
BBX 1 1 0 0
BITMAP
00
ENDCHAR
STARTCHAR uni200A
ENCODING 8202
SWIDTH 100 0
DWIDTH 3 0
BBX 1 1 0 0
BITMAP
00
ENDCHAR
STARTCHAR uni200B
ENCODING 8203
SWIDTH 0 0
DWIDTH 0 0
BBX 1 1 0 0
BITMAP
00
ENDCHAR
STARTCHAR uni2010
ENCODING 8208
SWIDTH 333 0
DWIDTH 8 0
BBX 6 3 0 4
BITMAP
FC
FC
FC
ENDCHAR
STARTCHAR uni2011
ENCODING 8209
SWIDTH 333 0
DWIDTH 8 0
BBX 6 3 0 4
BITMAP
FC
FC
FC
ENDCHAR
STARTCHAR figuredash
ENCODING 8210
SWIDTH 500 0
DWIDTH 12 0
BBX 12 2 0 5
BITMAP
FFF0
FFF0
ENDCHAR
STARTCHAR endash
ENCODING 8211
SWIDTH 500 0
DWIDTH 12 0
BBX 12 2 0 5
BITMAP
FFF0
FFF0
ENDCHAR
STARTCHAR emdash
ENCODING 8212
SWIDTH 1000 0
DWIDTH 25 0
BBX 25 2 0 5
BITMAP
FFFFFF80
FFFFFF80
ENDCHAR
STARTCHAR afii00208
ENCODING 8213
SWIDTH 1000 0
DWIDTH 25 0
BBX 25 2 0 5
BITMAP
FFFFFF80
FFFFFF80
ENDCHAR
STARTCHAR quoteleft
ENCODING 8216
SWIDTH 333 0
DWIDTH 8 0
BBX 4 6 4 11
BITMAP
30
60
C0
E0
E0
E0
ENDCHAR
STARTCHAR quoteright
ENCODING 8217
SWIDTH 333 0
DWIDTH 8 0
BBX 4 6 3 11
BITMAP
70
70
70
30
60
C0
ENDCHAR
STARTCHAR quotesinglbase
ENCODING 8218
SWIDTH 333 0
DWIDTH 6 0
BBX 4 6 -1 -3
BITMAP
70
70
70
30
60
C0
ENDCHAR
STARTCHAR quotereversed
ENCODING 8219
SWIDTH 333 0
DWIDTH 8 0
BBX 4 6 3 11
BITMAP
E0
E0
E0
C0
60
30
ENDCHAR
STARTCHAR quotedblleft
ENCODING 8220
SWIDTH 500 0
DWIDTH 13 0
BBX 9 6 4 11
BITMAP
3180
6300
C600
E700
E700
E700
ENDCHAR
STARTCHAR quotedblright
ENCODING 8221
SWIDTH 500 0
DWIDTH 12 0
BBX 9 6 2 11
BITMAP
7380
7380
7380
3180
6300
C600
ENDCHAR
STARTCHAR quotedblbase
ENCODING 8222
SWIDTH 500 0
DWIDTH 11 0
BBX 9 6 -1 -3
BITMAP
7380
7380
7380
3180
6300
C600
ENDCHAR
STARTCHAR uni201F
ENCODING 8223
SWIDTH 500 0
DWIDTH 12 0
BBX 9 6 2 11
BITMAP
E700
E700
E700
C600
6300
3180
ENDCHAR
STARTCHAR dagger
ENCODING 8224
SWIDTH 500 0
DWIDTH 12 0
BBX 12 21 0 -3
BITMAP
0100
0380
0380
0300
0200
7260
FFF0
64E0
0E00
0E00
0C00
1C00
1C00
1800
1800
1000
1000
3000
2000
2000
2000
ENDCHAR
STARTCHAR daggerdbl
ENCODING 8225
SWIDTH 500 0
DWIDTH 12 0
BBX 14 21 -2 -3
BITMAP
0040
00E0
00E0
00C0
0080
1C98
3FFC
1938
0100
0300
0300
0300
0200
7260
FFF0
64E0
0400
0C00
1C00
1C00
0800
ENDCHAR
STARTCHAR bullet
ENCODING 8226
SWIDTH 350 0
DWIDTH 9 0
BBX 6 6 1 5
BITMAP
78
FC
FC
FC
FC
78
ENDCHAR
STARTCHAR ellipsis
ENCODING 8230
SWIDTH 1000 0
DWIDTH 25 0
BBX 19 3 2 0
BITMAP
E0E0E0
E0E0E0
E0E0E0
ENDCHAR
STARTCHAR perthousand
ENCODING 8240
SWIDTH 1000 0
DWIDTH 27 0
BBX 25 18 1 0
BITMAP
00060000
0E0C0000
3FFC0000
73180000
71300000
E3700000
E2600000
E6C00000
FCC00000
798E0700
033F1F80
037B3D80
06713880
06E37180
0CE27100
18E67300
18FC7E00
30783C00
ENDCHAR
STARTCHAR guilsinglleft
ENCODING 8249
SWIDTH 333 0
DWIDTH 9 0
BBX 7 10 1 0
BITMAP
06
0E
1C
38
70
E0
60
70
30
38
ENDCHAR
STARTCHAR guilsinglright
ENCODING 8250
SWIDTH 333 0
DWIDTH 9 0
BBX 7 10 1 0
BITMAP
38
18
1C
0C
0E
1C
38
70
E0
C0
ENDCHAR
STARTCHAR fraction
ENCODING 8260
SWIDTH 167 0
DWIDTH 6 0
BBX 10 17 -2 0
BITMAP
00C0
00C0
0180
0180
0300
0300
0600
0600
0C00
0C00
1800
1800
3000
3000
6000
6000
C000
ENDCHAR
STARTCHAR oneinferior
ENCODING 8321
SWIDTH 300 0
DWIDTH 7 0
BBX 6 11 0 -6
BITMAP
04
1C
0C
0C
08
18
18
10
30
30
FC
ENDCHAR
STARTCHAR twoinferior
ENCODING 8322
SWIDTH 300 0
DWIDTH 7 0
BBX 8 11 -1 -6
BITMAP
1E
27
43
03
06
04
08
10
22
7E
FC
ENDCHAR
STARTCHAR threeinferior
ENCODING 8323
SWIDTH 300 0
DWIDTH 7 0
BBX 8 11 -1 -6
BITMAP
1E
27
43
03
06
1C
06
06
06
8C
78
ENDCHAR
STARTCHAR uni20A5
ENCODING 8357
SWIDTH 778 0
DWIDTH 19 0
BBX 19 17 0 -2
BITMAP
000C00
001800
001800
79DF00
3BFF80
3AFB80
3CF380
38E380
70E380
70E300
70C300
71C700
E1C720
E1C7C0
E1C380
018000
030000
ENDCHAR
STARTCHAR uni20A6
ENCODING 8358
SWIDTH 722 0
DWIDTH 18 0
BBX 21 17 -1 0
BITMAP
0FC0F8
03C070
03C060
03E060
07E040
07FF40
07FFC0
04F880
0C7880
0FFF80
0BFF00
183F00
181F00
101F00
300E00
700600
FC0600
ENDCHAR
STARTCHAR uni20A9
ENCODING 8361
SWIDTH 889 0
DWIDTH 21 0
BBX 23 17 1 0
BITMAP
FC7C7E
78381C
383818
383830
387830
3DFFE0
1DFFE0
1CDCC0
1C9C80
1DFF80
1DFF80
1F1F00
1E1E00
0E0E00
0E0E00
0C0C00
0C0C00
ENDCHAR
STARTCHAR Euro
ENCODING 8364
SWIDTH 667 0
DWIDTH 16 0
BBX 18 17 -2 0
BITMAP
00FEC0
03E3C0
078180
0F0080
0E0080
FFC000
FFC000
3C0000
3C0000
FFC000
FFC000
3C0000
3C0000
1E0000
1F0300
0FFE00
03F000
ENDCHAR
STARTCHAR uni20AD
ENCODING 8365
SWIDTH 667 0
DWIDTH 17 0
BBX 18 17 0 0
BITMAP
0FCFC0
078780
078E00
071C00
0F3800
0F6000
0EC000
FFFFC0
FFFFC0
1FC000
3DE000
3DE000
38F000
78F000
787800
707C00
F8FF00
ENDCHAR
STARTCHAR uni2103
ENCODING 8451
SWIDTH 1047 0
DWIDTH 25 0
BBX 24 17 1 0
BITMAP
3C03FB
660F8F
C31E06
C33C02
C33802
667800
3C7000
00F000
00F000
00F000
00F000
00F000
00F000
007800
007C0C
003FF8
000FC0
ENDCHAR
STARTCHAR uni2109
ENCODING 8457
SWIDTH 1047 0
DWIDTH 25 0
BBX 25 17 1 0
BITMAP
3C0FFF80
66078380
C3078100
C3070100
C30F0000
660F0800
3C0E1800
001E3000
001FF000
001C7000
003C2000
003C2000
00380000
00780000
00780000
00700000
00F80000
ENDCHAR
STARTCHAR trademark
ENCODING 8482
SWIDTH 1000 0
DWIDTH 25 0
BBX 23 10 1 7
BITMAP
FFDC0E
CCCE1C
8C4E1C
0C0F3C
0C0B2C
0C0BEC
0C09CC
0C09CC
0C088C
1E1C9E
ENDCHAR
STARTCHAR uni212A
ENCODING 8490
SWIDTH 667 0
DWIDTH 17 0
BBX 18 17 0 0
BITMAP
0FCFC0
078780
078E00
071C00
0F3800
0F6000
0EC000
1F8000
1FC000
1FC000
3DE000
3DE000
38F000
78F000
787800
707C00
F8FF00
ENDCHAR
STARTCHAR uni212B
ENCODING 8491
SWIDTH 667 0
DWIDTH 16 0
BBX 17 22 -2 0
BITMAP
000700
000D80
000880
000D80
000700
000200
000600
000E00
001E00
003E00
006E00
00CE00
018E00
030E00
060E00
0FFE00
0FFE00
180E00
300E00
600E00
E00F00
F01F80
ENDCHAR
STARTCHAR uni2132
ENCODING 8498
SWIDTH 667 0
DWIDTH 16 0
BBX 17 17 0 0
BITMAP
000F80
000700
000F00
000F00
000E00
021E00
021E00
071C00
07FC00
063C00
0C3800
087800
007800
407000
40F000
E0F000
FFF800
ENDCHAR
STARTCHAR minus
ENCODING 8722
SWIDTH 606 0
DWIDTH 15 0
BBX 11 2 1 5
BITMAP
FFE0
FFE0
ENDCHAR
STARTCHAR fraction
ENCODING 8725
SWIDTH 167 0
DWIDTH 6 0
BBX 10 17 -2 0
BITMAP
00C0
00C0
0180
0180
0300
0300
0600
0600
0C00
0C00
1800
1800
3000
3000
6000
6000
C000
ENDCHAR
STARTCHAR periodcentered
ENCODING 8729
SWIDTH 250 0
DWIDTH 7 0
BBX 3 3 2 5
BITMAP
E0
E0
E0
ENDCHAR
STARTCHAR uni2236
ENCODING 8758
SWIDTH 333 0
DWIDTH 8 0
BBX 5 11 1 0
BITMAP
38
38
38
00
00
00
00
00
E0
E0
E0
ENDCHAR
STARTCHAR uni2259
ENCODING 8793
SWIDTH 570 0
DWIDTH 13 0
BBX 10 11 1 3
BITMAP
0600
0F00
3B80
7180
0000
FFC0
FFC0
0000
0000
FFC0
FFC0
ENDCHAR
STARTCHAR uni225A
ENCODING 8794
SWIDTH 570 0
DWIDTH 13 0
BBX 10 11 1 3
BITMAP
6380
7700
3C00
1800
0000
FFC0
FFC0
0000
0000
FFC0
FFC0
ENDCHAR
STARTCHAR notequal
ENCODING 8800
SWIDTH 570 0
DWIDTH 13 0
BBX 10 17 1 -2
BITMAP
0180
0300
0300
0300
0600
0600
FFC0
FFC0
0C00
0C00
FFC0
FFC0
1800
3000
3000
3000
6000
ENDCHAR
STARTCHAR equivalence
ENCODING 8801
SWIDTH 570 0
DWIDTH 13 0
BBX 10 8 0 2
BITMAP
FFC0
FFC0
0000
FFC0
FFC0
0000
FFC0
FFC0
ENDCHAR
STARTCHAR uni2262
ENCODING 8802
SWIDTH 570 0
DWIDTH 13 0
BBX 10 17 0 -2
BITMAP
0180
0300
0300
0300
0600
FFC0
FFC0
0C00
FFC0
FFC0
1800
FFC0
FFC0
3000
3000
3000
6000
ENDCHAR
STARTCHAR lessequal
ENCODING 8804
SWIDTH 570 0
DWIDTH 12 0
BBX 10 13 1 -2
BITMAP
01C0
0780
1E00
7800
E000
E000
7800
1E00
0780
01C0
0000
FFC0
FFC0
ENDCHAR
STARTCHAR greaterequal
ENCODING 8805
SWIDTH 570 0
DWIDTH 12 0
BBX 10 13 1 -2
BITMAP
E000
7800
1E00
0780
01C0
01C0
0780
1E00
7800
E000
0000
FFC0
FFC0
ENDCHAR
STARTCHAR uni226E
ENCODING 8814
SWIDTH 570 0
DWIDTH 12 0
BBX 10 17 1 -2
BITMAP
0180
0300
0300
0300
07C0
0780
1E00
7C00
EC00
EC00
7800
1E00
1F80
31C0
3000
3000
6000
ENDCHAR
STARTCHAR uni226F
ENCODING 8815
SWIDTH 570 0
DWIDTH 12 0
BBX 10 17 1 -2
BITMAP
0180
0300
0300
0300
E600
7E00
1E00
0F80
0DC0
0DC0
1F80
1E00
7800
F000
3000
3000
6000
ENDCHAR
STARTCHAR uni2270
ENCODING 8816
SWIDTH 570 0
DWIDTH 12 0
BBX 10 17 1 -4
BITMAP
0180
0300
03C0
0780
1E00
7E00
E600
EC00
7C00
1E00
1F80
19C0
1800
FFC0
FFC0
3000
6000
ENDCHAR
STARTCHAR uni2271
ENCODING 8817
SWIDTH 570 0
DWIDTH 12 0
BBX 10 17 1 -4
BITMAP
0180
0300
E300
7B00
1E00
0780
07C0
0DC0
0F80
1E00
7800
F800
1800
FFC0
FFC0
3000
6000
ENDCHAR
STARTCHAR fi
ENCODING -1
SWIDTH 556 0
DWIDTH 14 0
BBX 17 22 -4 -5
BITMAP
000F00
003F80
007380
006000
00E000
00E000
07FF80
01C780
01C700
01C700
038700
038F00
038E00
038E00
031E80
071F00
070E00
070000
060000
E60000
EC0000
780000
ENDCHAR
STARTCHAR fl
ENCODING -1
SWIDTH 556 0
DWIDTH 14 0
BBX 18 22 -4 -5
BITMAP
000FC0
003FC0
0073C0
006380
00E380
00E380
07FF00
01C700
01C700
01CF00
038E00
038E00
039E00
039C00
031C80
071F00
070E00
070000
060000
E60000
EC0000
780000
ENDCHAR
ENDFONT
